<svg width="1438" height="729" viewBox="0 0 1438 729" fill="none" xmlns="http://www.w3.org/2000/svg">
<g opacity="0.81">
<g opacity="0.81">
<path opacity="0.81" d="M699.965 1L0 728" stroke="#D8BFD4" stroke-opacity="0.45" stroke-width="2" stroke-miterlimit="10"/>
<path opacity="0.81" d="M716.666 1L16.701 728" stroke="#D8BFD4" stroke-opacity="0.45" stroke-width="2" stroke-miterlimit="10"/>
<path opacity="0.81" d="M733.367 1L33.6135 728" stroke="#D8BFD4" stroke-opacity="0.45" stroke-width="2" stroke-miterlimit="10"/>
<path opacity="0.81" d="M750.28 1L50.3146 728" stroke="#D8BFD4" stroke-opacity="0.45" stroke-width="2" stroke-miterlimit="10"/>
<path opacity="0.81" d="M766.981 1L67.0156 728" stroke="#D8BFD4" stroke-opacity="0.45" stroke-width="2" stroke-miterlimit="10"/>
<path opacity="0.81" d="M783.682 1L83.7165 728" stroke="#D8BFD4" stroke-opacity="0.45" stroke-width="2" stroke-miterlimit="10"/>
<path opacity="0.81" d="M800.383 1L100.629 728" stroke="#D8BFD4" stroke-opacity="0.45" stroke-width="2" stroke-miterlimit="10"/>
<path opacity="0.81" d="M817.295 1L117.33 728" stroke="#D8BFD4" stroke-opacity="0.45" stroke-width="2" stroke-miterlimit="10"/>
<path opacity="0.81" d="M833.997 1L134.031 728" stroke="#D8BFD4" stroke-opacity="0.45" stroke-width="2" stroke-miterlimit="10"/>
<path opacity="0.81" d="M850.698 1L150.732 728" stroke="#D8BFD4" stroke-opacity="0.45" stroke-width="2" stroke-miterlimit="10"/>
<path opacity="0.81" d="M867.399 1L167.645 728" stroke="#D8BFD4" stroke-opacity="0.45" stroke-width="2" stroke-miterlimit="10"/>
<path opacity="0.81" d="M884.311 1L184.346 728" stroke="#D8BFD4" stroke-opacity="0.45" stroke-width="2" stroke-miterlimit="10"/>
<path opacity="0.81" d="M901.012 1L201.047 728" stroke="#D8BFD4" stroke-opacity="0.45" stroke-width="2" stroke-miterlimit="10"/>
<path opacity="0.81" d="M917.713 1L217.748 728" stroke="#D8BFD4" stroke-opacity="0.45" stroke-width="2" stroke-miterlimit="10"/>
<path opacity="0.81" d="M934.414 1L234.661 728" stroke="#D8BFD4" stroke-opacity="0.45" stroke-width="2" stroke-miterlimit="10"/>
<path opacity="0.81" d="M951.327 1L251.362 728" stroke="#D8BFD4" stroke-opacity="0.45" stroke-width="2" stroke-miterlimit="10"/>
<path opacity="0.81" d="M968.028 1L268.063 728" stroke="#D8BFD4" stroke-opacity="0.45" stroke-width="2" stroke-miterlimit="10"/>
<path opacity="0.81" d="M984.729 1L284.764 728" stroke="#D8BFD4" stroke-opacity="0.45" stroke-width="2" stroke-miterlimit="10"/>
<path opacity="0.81" d="M1001.43 1L301.465 728" stroke="#D8BFD4" stroke-opacity="0.45" stroke-width="2" stroke-miterlimit="10"/>
<path opacity="0.81" d="M1018.13 1L318.377 728" stroke="#D8BFD4" stroke-opacity="0.45" stroke-width="2" stroke-miterlimit="10"/>
<path opacity="0.81" d="M1035.04 1L335.079 728" stroke="#D8BFD4" stroke-opacity="0.45" stroke-width="2" stroke-miterlimit="10"/>
<path opacity="0.81" d="M1051.74 1L351.78 728" stroke="#D8BFD4" stroke-opacity="0.45" stroke-width="2" stroke-miterlimit="10"/>
<path opacity="0.81" d="M1068.45 1L368.48 728" stroke="#D8BFD4" stroke-opacity="0.45" stroke-width="2" stroke-miterlimit="10"/>
<path opacity="0.81" d="M1085.15 1L385.393 728" stroke="#D8BFD4" stroke-opacity="0.45" stroke-width="2" stroke-miterlimit="10"/>
<path opacity="0.81" d="M1102.06 1L402.094 728" stroke="#D8BFD4" stroke-opacity="0.45" stroke-width="2" stroke-miterlimit="10"/>
<path opacity="0.81" d="M1118.76 1L418.795 728" stroke="#D8BFD4" stroke-opacity="0.45" stroke-width="2" stroke-miterlimit="10"/>
<path opacity="0.81" d="M1135.46 1L435.496 728" stroke="#D8BFD4" stroke-opacity="0.45" stroke-width="2" stroke-miterlimit="10"/>
<path opacity="0.81" d="M1152.16 1L452.409 728" stroke="#D8BFD4" stroke-opacity="0.45" stroke-width="2" stroke-miterlimit="10"/>
<path opacity="0.81" d="M1169.07 1L469.11 728" stroke="#D8BFD4" stroke-opacity="0.45" stroke-width="2" stroke-miterlimit="10"/>
<path opacity="0.81" d="M1185.78 1L485.811 728" stroke="#D8BFD4" stroke-opacity="0.45" stroke-width="2" stroke-miterlimit="10"/>
<path opacity="0.81" d="M1202.48 1L502.512 728" stroke="#D8BFD4" stroke-opacity="0.45" stroke-width="2" stroke-miterlimit="10"/>
<path opacity="0.81" d="M1219.18 1L519.425 728" stroke="#D8BFD4" stroke-opacity="0.45" stroke-width="2" stroke-miterlimit="10"/>
<path opacity="0.81" d="M1236.09 1L536.125 728" stroke="#D8BFD4" stroke-opacity="0.45" stroke-width="2" stroke-miterlimit="10"/>
<path opacity="0.81" d="M1252.79 1L552.827 728" stroke="#D8BFD4" stroke-opacity="0.45" stroke-width="2" stroke-miterlimit="10"/>
<path opacity="0.81" d="M1269.49 1L569.528 728" stroke="#D8BFD4" stroke-opacity="0.45" stroke-width="2" stroke-miterlimit="10"/>
<path opacity="0.81" d="M1286.19 1L586.44 728" stroke="#D8BFD4" stroke-opacity="0.45" stroke-width="2" stroke-miterlimit="10"/>
<path opacity="0.81" d="M1302.9 1L603.141 728" stroke="#D8BFD4" stroke-opacity="0.45" stroke-width="2" stroke-miterlimit="10"/>
<path opacity="0.81" d="M1319.81 1L619.842 728" stroke="#D8BFD4" stroke-opacity="0.45" stroke-width="2" stroke-miterlimit="10"/>
<path opacity="0.81" d="M1336.51 1L636.543 728" stroke="#D8BFD4" stroke-opacity="0.45" stroke-width="2" stroke-miterlimit="10"/>
<path opacity="0.81" d="M1353.21 1L653.244 728" stroke="#D8BFD4" stroke-opacity="0.45" stroke-width="2" stroke-miterlimit="10"/>
<path opacity="0.81" d="M1369.91 1L670.157 728" stroke="#D8BFD4" stroke-opacity="0.45" stroke-width="2" stroke-miterlimit="10"/>
<path opacity="0.81" d="M1386.82 1L686.858 728" stroke="#D8BFD4" stroke-opacity="0.45" stroke-width="2" stroke-miterlimit="10"/>
<path opacity="0.81" d="M1403.52 1L703.559 728" stroke="#D8BFD4" stroke-opacity="0.45" stroke-width="2" stroke-miterlimit="10"/>
<path opacity="0.81" d="M1420.23 1L720.26 728" stroke="#D8BFD4" stroke-opacity="0.45" stroke-width="2" stroke-miterlimit="10"/>
<path opacity="0.81" d="M1436.93 1L737.173 728" stroke="#D8BFD4" stroke-opacity="0.45" stroke-width="2" stroke-miterlimit="10"/>
</g>
</g>
</svg>
