<svg width="1440" height="2487" viewBox="0 0 1440 2487" fill="none" xmlns="http://www.w3.org/2000/svg">
<g opacity="0.5">
<path opacity="0.5" d="M1432.65 14.2255C1436.48 14.2255 1439.58 11.127 1439.58 7.30493C1439.58 3.48282 1436.48 0.38443 1432.65 0.38443C1428.83 0.38443 1425.73 3.48282 1425.73 7.30493C1425.73 11.127 1428.83 14.2255 1432.65 14.2255Z" fill="#D8BFD4"/>
<path opacity="0.5" d="M1432.65 73.0505C1436.48 73.0505 1439.58 69.9521 1439.58 66.13C1439.58 62.3079 1436.48 59.2094 1432.65 59.2094C1428.83 59.2094 1425.73 62.3079 1425.73 66.13C1425.73 69.9521 1428.83 73.0505 1432.65 73.0505Z" fill="#D8BFD4"/>
<path opacity="0.5" d="M1432.65 131.875C1436.48 131.875 1439.58 128.777 1439.58 124.955C1439.58 121.133 1436.48 118.034 1432.65 118.034C1428.83 118.034 1425.73 121.133 1425.73 124.955C1425.73 128.777 1428.83 131.875 1432.65 131.875Z" fill="#D8BFD4"/>
<path opacity="0.5" d="M1432.65 190.7C1436.48 190.7 1439.58 187.602 1439.58 183.78C1439.58 179.958 1436.48 176.859 1432.65 176.859C1428.83 176.859 1425.73 179.958 1425.73 183.78C1425.73 187.602 1428.83 190.7 1432.65 190.7Z" fill="#D8BFD4"/>
<path opacity="0.5" d="M1432.65 249.525C1436.48 249.525 1439.58 246.427 1439.58 242.605C1439.58 238.783 1436.48 235.684 1432.65 235.684C1428.83 235.684 1425.73 238.783 1425.73 242.605C1425.73 246.427 1428.83 249.525 1432.65 249.525Z" fill="#D8BFD4"/>
<path opacity="0.5" d="M1432.65 308.35C1436.48 308.35 1439.58 305.252 1439.58 301.43C1439.58 297.608 1436.48 294.509 1432.65 294.509C1428.83 294.509 1425.73 297.608 1425.73 301.43C1425.73 305.252 1428.83 308.35 1432.65 308.35Z" fill="#D8BFD4"/>
<path opacity="0.5" d="M1432.65 367.175C1436.48 367.175 1439.58 364.077 1439.58 360.255C1439.58 356.433 1436.48 353.334 1432.65 353.334C1428.83 353.334 1425.73 356.433 1425.73 360.255C1425.73 364.077 1428.83 367.175 1432.65 367.175Z" fill="#D8BFD4"/>
<path opacity="0.5" d="M1432.65 426C1428.81 426 1425.73 422.924 1425.73 419.08C1425.73 415.235 1428.81 412.159 1432.65 412.159C1436.5 412.159 1439.58 415.235 1439.58 419.08C1439.58 422.924 1436.5 426 1432.65 426Z" fill="#D8BFD4"/>
<path opacity="0.5" d="M1373.81 13.8411C1369.96 13.8411 1366.89 10.7652 1366.89 6.9205C1366.89 3.07575 1369.96 0 1373.81 0C1377.66 0 1380.73 3.07575 1380.73 6.9205C1380.73 10.7652 1377.66 13.8411 1373.81 13.8411Z" fill="#D8BFD4"/>
<path opacity="0.5" d="M1373.81 72.666C1369.96 72.666 1366.89 69.5902 1366.89 65.7455C1366.89 61.9007 1369.96 58.8249 1373.81 58.8249C1377.66 58.8249 1380.73 61.9007 1380.73 65.7455C1380.73 69.5902 1377.66 72.666 1373.81 72.666Z" fill="#D8BFD4"/>
<path opacity="0.5" d="M1373.81 131.491C1369.96 131.491 1366.89 128.415 1366.89 124.57C1366.89 120.726 1369.96 117.65 1373.81 117.65C1377.66 117.65 1380.73 120.726 1380.73 124.57C1380.73 128.415 1377.66 131.491 1373.81 131.491Z" fill="#D8BFD4"/>
<path opacity="0.5" d="M1373.81 190.316C1369.96 190.316 1366.89 187.24 1366.89 183.395C1366.89 179.551 1369.96 176.475 1373.81 176.475C1377.66 176.475 1380.73 179.551 1380.73 183.395C1380.73 187.625 1377.66 190.316 1373.81 190.316Z" fill="#D8BFD4"/>
<path opacity="0.5" d="M1373.81 249.525C1369.96 249.525 1366.89 246.45 1366.89 242.605C1366.89 238.76 1369.96 235.684 1373.81 235.684C1377.66 235.684 1380.73 238.76 1380.73 242.605C1380.73 246.45 1377.66 249.525 1373.81 249.525Z" fill="#D8BFD4"/>
<path opacity="0.5" d="M1373.81 308.35C1369.96 308.35 1366.89 305.274 1366.89 301.43C1366.89 297.585 1369.96 294.509 1373.81 294.509C1377.66 294.509 1380.73 297.585 1380.73 301.43C1380.73 305.274 1377.66 308.35 1373.81 308.35Z" fill="#D8BFD4"/>
<path opacity="0.5" d="M1373.81 367.175C1369.96 367.175 1366.89 364.099 1366.89 360.255C1366.89 356.41 1369.96 353.334 1373.81 353.334C1377.66 353.334 1380.73 356.41 1380.73 360.255C1380.73 364.099 1377.66 367.175 1373.81 367.175Z" fill="#D8BFD4"/>
<path opacity="0.5" d="M1373.81 426C1369.96 426 1366.89 422.924 1366.89 419.08C1366.89 415.235 1369.96 412.159 1373.81 412.159C1377.66 412.159 1380.73 415.235 1380.73 419.08C1380.73 422.924 1377.66 426 1373.81 426Z" fill="#D8BFD4"/>
<path opacity="0.5" d="M1314.97 14.2255C1318.79 14.2255 1321.89 11.127 1321.89 7.30493C1321.89 3.48282 1318.79 0.38443 1314.97 0.38443C1311.14 0.38443 1308.04 3.48282 1308.04 7.30493C1308.04 11.127 1311.14 14.2255 1314.97 14.2255Z" fill="#D8BFD4"/>
<path opacity="0.5" d="M1314.97 73.0505C1318.79 73.0505 1321.89 69.9521 1321.89 66.13C1321.89 62.3079 1318.79 59.2094 1314.97 59.2094C1311.14 59.2094 1308.04 62.3079 1308.04 66.13C1308.04 69.9521 1311.14 73.0505 1314.97 73.0505Z" fill="#D8BFD4"/>
<path opacity="0.5" d="M1314.97 131.875C1318.79 131.875 1321.89 128.777 1321.89 124.955C1321.89 121.133 1318.79 118.034 1314.97 118.034C1311.14 118.034 1308.04 121.133 1308.04 124.955C1308.04 128.777 1311.14 131.875 1314.97 131.875Z" fill="#D8BFD4"/>
<path opacity="0.5" d="M1314.97 190.7C1318.79 190.7 1321.89 187.602 1321.89 183.78C1321.89 179.958 1318.79 176.859 1314.97 176.859C1311.14 176.859 1308.04 179.958 1308.04 183.78C1308.04 187.602 1311.14 190.7 1314.97 190.7Z" fill="#D8BFD4"/>
<path opacity="0.5" d="M1314.97 249.525C1318.79 249.525 1321.89 246.427 1321.89 242.605C1321.89 238.783 1318.79 235.684 1314.97 235.684C1311.14 235.684 1308.04 238.783 1308.04 242.605C1308.04 246.427 1311.14 249.525 1314.97 249.525Z" fill="#D8BFD4"/>
<path opacity="0.5" d="M1314.97 308.35C1318.79 308.35 1321.89 305.252 1321.89 301.43C1321.89 297.608 1318.79 294.509 1314.97 294.509C1311.14 294.509 1308.04 297.608 1308.04 301.43C1308.04 305.252 1311.14 308.35 1314.97 308.35Z" fill="#D8BFD4"/>
<path opacity="0.5" d="M1314.97 367.175C1318.79 367.175 1321.89 364.077 1321.89 360.255C1321.89 356.433 1318.79 353.334 1314.97 353.334C1311.14 353.334 1308.04 356.433 1308.04 360.255C1308.04 364.077 1311.14 367.175 1314.97 367.175Z" fill="#D8BFD4"/>
<path opacity="0.5" d="M1314.97 426C1311.12 426 1308.04 422.924 1308.04 419.08C1308.04 415.235 1311.12 412.159 1314.97 412.159C1318.81 412.159 1321.89 415.235 1321.89 419.08C1321.89 422.924 1318.81 426 1314.97 426Z" fill="#D8BFD4"/>
<path opacity="0.5" d="M1256.12 14.2255C1259.95 14.2255 1263.05 11.127 1263.05 7.30493C1263.05 3.48282 1259.95 0.38443 1256.12 0.38443C1252.3 0.38443 1249.2 3.48282 1249.2 7.30493C1249.2 11.127 1252.3 14.2255 1256.12 14.2255Z" fill="#D8BFD4"/>
<path opacity="0.5" d="M1256.12 73.0505C1259.95 73.0505 1263.05 69.9521 1263.05 66.13C1263.05 62.3079 1259.95 59.2094 1256.12 59.2094C1252.3 59.2094 1249.2 62.3079 1249.2 66.13C1249.2 69.9521 1252.3 73.0505 1256.12 73.0505Z" fill="#D8BFD4"/>
<path opacity="0.5" d="M1256.12 131.875C1259.95 131.875 1263.05 128.777 1263.05 124.955C1263.05 121.133 1259.95 118.034 1256.12 118.034C1252.3 118.034 1249.2 121.133 1249.2 124.955C1249.2 128.777 1252.3 131.875 1256.12 131.875Z" fill="#D8BFD4"/>
<path opacity="0.5" d="M1256.12 190.7C1259.95 190.7 1263.05 187.602 1263.05 183.78C1263.05 179.958 1259.95 176.859 1256.12 176.859C1252.3 176.859 1249.2 179.958 1249.2 183.78C1249.2 187.602 1252.3 190.7 1256.12 190.7Z" fill="#D8BFD4"/>
<path opacity="0.5" d="M1256.12 249.525C1259.95 249.525 1263.05 246.427 1263.05 242.605C1263.05 238.783 1259.95 235.684 1256.12 235.684C1252.3 235.684 1249.2 238.783 1249.2 242.605C1249.2 246.427 1252.3 249.525 1256.12 249.525Z" fill="#D8BFD4"/>
<path opacity="0.5" d="M1256.12 308.35C1259.95 308.35 1263.05 305.252 1263.05 301.43C1263.05 297.608 1259.95 294.509 1256.12 294.509C1252.3 294.509 1249.2 297.608 1249.2 301.43C1249.2 305.252 1252.3 308.35 1256.12 308.35Z" fill="#D8BFD4"/>
<path opacity="0.5" d="M1256.12 367.175C1259.95 367.175 1263.05 364.077 1263.05 360.255C1263.05 356.433 1259.95 353.334 1256.12 353.334C1252.3 353.334 1249.2 356.433 1249.2 360.255C1249.2 364.077 1252.3 367.175 1256.12 367.175Z" fill="#D8BFD4"/>
<path opacity="0.5" d="M1256.12 426C1252.28 426 1249.2 422.924 1249.2 419.08C1249.2 415.235 1252.28 412.159 1256.12 412.159C1259.97 412.159 1263.05 415.235 1263.05 419.08C1263.05 422.924 1259.97 426 1256.12 426Z" fill="#D8BFD4"/>
<path opacity="0.5" d="M1197.28 14.2255C1201.1 14.2255 1204.2 11.127 1204.2 7.30493C1204.2 3.48282 1201.1 0.38443 1197.28 0.38443C1193.46 0.38443 1190.36 3.48282 1190.36 7.30493C1190.36 11.127 1193.46 14.2255 1197.28 14.2255Z" fill="#D8BFD4"/>
<path opacity="0.5" d="M1197.28 73.0505C1201.1 73.0505 1204.2 69.9521 1204.2 66.13C1204.2 62.3079 1201.1 59.2094 1197.28 59.2094C1193.46 59.2094 1190.36 62.3079 1190.36 66.13C1190.36 69.9521 1193.46 73.0505 1197.28 73.0505Z" fill="#D8BFD4"/>
<path opacity="0.5" d="M1197.28 131.875C1201.1 131.875 1204.2 128.777 1204.2 124.955C1204.2 121.133 1201.1 118.034 1197.28 118.034C1193.46 118.034 1190.36 121.133 1190.36 124.955C1190.36 128.777 1193.46 131.875 1197.28 131.875Z" fill="#D8BFD4"/>
<path opacity="0.5" d="M1197.28 190.7C1201.1 190.7 1204.2 187.602 1204.2 183.78C1204.2 179.958 1201.1 176.859 1197.28 176.859C1193.46 176.859 1190.36 179.958 1190.36 183.78C1190.36 187.602 1193.46 190.7 1197.28 190.7Z" fill="#D8BFD4"/>
<path opacity="0.5" d="M1197.28 249.525C1201.1 249.525 1204.2 246.427 1204.2 242.605C1204.2 238.783 1201.1 235.684 1197.28 235.684C1193.46 235.684 1190.36 238.783 1190.36 242.605C1190.36 246.427 1193.46 249.525 1197.28 249.525Z" fill="#D8BFD4"/>
<path opacity="0.5" d="M1197.28 308.35C1201.1 308.35 1204.2 305.252 1204.2 301.43C1204.2 297.608 1201.1 294.509 1197.28 294.509C1193.46 294.509 1190.36 297.608 1190.36 301.43C1190.36 305.252 1193.46 308.35 1197.28 308.35Z" fill="#D8BFD4"/>
<path opacity="0.5" d="M1197.28 367.175C1201.1 367.175 1204.2 364.077 1204.2 360.255C1204.2 356.433 1201.1 353.334 1197.28 353.334C1193.46 353.334 1190.36 356.433 1190.36 360.255C1190.36 364.077 1193.46 367.175 1197.28 367.175Z" fill="#D8BFD4"/>
<path opacity="0.5" d="M1197.28 426C1193.44 426 1190.36 422.924 1190.36 419.08C1190.36 415.235 1193.44 412.159 1197.28 412.159C1201.13 412.159 1204.2 415.235 1204.2 419.08C1204.2 422.924 1201.13 426 1197.28 426Z" fill="#D8BFD4"/>
<path opacity="0.5" d="M1138.44 14.2254C1142.26 14.2254 1145.36 11.1268 1145.36 7.30471C1145.36 3.48257 1142.26 0.384155 1138.44 0.384155C1134.62 0.384155 1131.52 3.48257 1131.52 7.30471C1131.52 11.1268 1134.62 14.2254 1138.44 14.2254Z" fill="#D8BFD4"/>
<path opacity="0.5" d="M1138.44 73.0505C1142.26 73.0505 1145.36 69.9521 1145.36 66.13C1145.36 62.3079 1142.26 59.2094 1138.44 59.2094C1134.62 59.2094 1131.52 62.3079 1131.52 66.13C1131.52 69.9521 1134.62 73.0505 1138.44 73.0505Z" fill="#D8BFD4"/>
<path opacity="0.5" d="M1138.44 131.875C1142.26 131.875 1145.36 128.777 1145.36 124.955C1145.36 121.133 1142.26 118.034 1138.44 118.034C1134.62 118.034 1131.52 121.133 1131.52 124.955C1131.52 128.777 1134.62 131.875 1138.44 131.875Z" fill="#D8BFD4"/>
<path opacity="0.5" d="M1138.44 190.7C1142.26 190.7 1145.36 187.602 1145.36 183.78C1145.36 179.958 1142.26 176.859 1138.44 176.859C1134.62 176.859 1131.52 179.958 1131.52 183.78C1131.52 187.602 1134.62 190.7 1138.44 190.7Z" fill="#D8BFD4"/>
<path opacity="0.5" d="M1138.44 249.525C1142.26 249.525 1145.36 246.427 1145.36 242.605C1145.36 238.783 1142.26 235.684 1138.44 235.684C1134.62 235.684 1131.52 238.783 1131.52 242.605C1131.52 246.427 1134.62 249.525 1138.44 249.525Z" fill="#D8BFD4"/>
<path opacity="0.5" d="M1138.44 308.35C1142.26 308.35 1145.36 305.252 1145.36 301.43C1145.36 297.608 1142.26 294.509 1138.44 294.509C1134.62 294.509 1131.52 297.608 1131.52 301.43C1131.52 305.252 1134.62 308.35 1138.44 308.35Z" fill="#D8BFD4"/>
<path opacity="0.5" d="M1138.44 367.175C1142.26 367.175 1145.36 364.077 1145.36 360.255C1145.36 356.433 1142.26 353.334 1138.44 353.334C1134.62 353.334 1131.52 356.433 1131.52 360.255C1131.52 364.077 1134.62 367.175 1138.44 367.175Z" fill="#D8BFD4"/>
<path opacity="0.5" d="M1138.44 426C1134.59 426 1131.52 422.924 1131.52 419.08C1131.52 415.235 1134.59 412.159 1138.44 412.159C1142.28 412.159 1145.36 415.235 1145.36 419.08C1145.36 422.924 1142.28 426 1138.44 426Z" fill="#D8BFD4"/>
</g>
<g opacity="0.5">
<path opacity="0.5" d="M365.595 1986.27C370.237 1986.27 374 1982.51 374 1977.87C374 1973.23 370.237 1969.47 365.595 1969.47C360.954 1969.47 357.191 1973.23 357.191 1977.87C357.191 1982.51 360.954 1986.27 365.595 1986.27Z" fill="#D8BFD4"/>
<path opacity="0.5" d="M365.595 2057.69C370.237 2057.69 374 2053.93 374 2049.29C374 2044.65 370.237 2040.88 365.595 2040.88C360.954 2040.88 357.191 2044.65 357.191 2049.29C357.191 2053.93 360.954 2057.69 365.595 2057.69Z" fill="#D8BFD4"/>
<path opacity="0.5" d="M365.595 2129.1C370.237 2129.1 374 2125.34 374 2120.7C374 2116.06 370.237 2112.3 365.595 2112.3C360.954 2112.3 357.191 2116.06 357.191 2120.7C357.191 2125.34 360.954 2129.1 365.595 2129.1Z" fill="#D8BFD4"/>
<path opacity="0.5" d="M365.595 2200.52C370.237 2200.52 374 2196.76 374 2192.12C374 2187.48 370.237 2183.72 365.595 2183.72C360.954 2183.72 357.191 2187.48 357.191 2192.12C357.191 2196.76 360.954 2200.52 365.595 2200.52Z" fill="#D8BFD4"/>
<path opacity="0.5" d="M365.595 2271.94C370.237 2271.94 374 2268.18 374 2263.54C374 2258.89 370.237 2255.13 365.595 2255.13C360.954 2255.13 357.191 2258.89 357.191 2263.54C357.191 2268.18 360.954 2271.94 365.595 2271.94Z" fill="#D8BFD4"/>
<path opacity="0.5" d="M365.595 2343.35C370.237 2343.35 374 2339.59 374 2334.95C374 2330.31 370.237 2326.55 365.595 2326.55C360.954 2326.55 357.191 2330.31 357.191 2334.95C357.191 2339.59 360.954 2343.35 365.595 2343.35Z" fill="#D8BFD4"/>
<path opacity="0.5" d="M365.595 2414.77C370.237 2414.77 374 2411.01 374 2406.37C374 2401.73 370.237 2397.97 365.595 2397.97C360.954 2397.97 357.191 2401.73 357.191 2406.37C357.191 2411.01 360.954 2414.77 365.595 2414.77Z" fill="#D8BFD4"/>
<path opacity="0.5" d="M365.595 2486.19C360.926 2486.19 357.191 2482.45 357.191 2477.78C357.191 2473.12 360.926 2469.38 365.595 2469.38C370.265 2469.38 374 2473.12 374 2477.78C374 2482.45 370.265 2486.19 365.595 2486.19Z" fill="#D8BFD4"/>
<path opacity="0.5" d="M294.157 1985.8C289.488 1985.8 285.752 1982.07 285.752 1977.4C285.752 1972.73 289.488 1969 294.157 1969C298.826 1969 302.561 1972.73 302.561 1977.4C302.561 1982.07 298.826 1985.8 294.157 1985.8Z" fill="#D8BFD4"/>
<path opacity="0.5" d="M294.157 2057.22C289.488 2057.22 285.752 2053.49 285.752 2048.82C285.752 2044.15 289.488 2040.42 294.157 2040.42C298.826 2040.42 302.561 2044.15 302.561 2048.82C302.561 2053.49 298.826 2057.22 294.157 2057.22Z" fill="#D8BFD4"/>
<path opacity="0.5" d="M294.157 2128.64C289.488 2128.64 285.752 2124.9 285.752 2120.23C285.752 2115.57 289.488 2111.83 294.157 2111.83C298.826 2111.83 302.561 2115.57 302.561 2120.23C302.561 2124.9 298.826 2128.64 294.157 2128.64Z" fill="#D8BFD4"/>
<path opacity="0.5" d="M294.157 2200.05C289.488 2200.05 285.752 2196.32 285.752 2191.65C285.752 2186.98 289.488 2183.25 294.157 2183.25C298.826 2183.25 302.561 2186.98 302.561 2191.65C302.561 2196.79 298.826 2200.05 294.157 2200.05Z" fill="#D8BFD4"/>
<path opacity="0.5" d="M294.157 2271.94C289.488 2271.94 285.752 2268.2 285.752 2263.54C285.752 2258.87 289.488 2255.13 294.157 2255.13C298.826 2255.13 302.561 2258.87 302.561 2263.54C302.561 2268.2 298.826 2271.94 294.157 2271.94Z" fill="#D8BFD4"/>
<path opacity="0.5" d="M294.157 2343.35C289.488 2343.35 285.752 2339.62 285.752 2334.95C285.752 2330.28 289.488 2326.55 294.157 2326.55C298.826 2326.55 302.561 2330.28 302.561 2334.95C302.561 2339.62 298.826 2343.35 294.157 2343.35Z" fill="#D8BFD4"/>
<path opacity="0.5" d="M294.157 2414.77C289.488 2414.77 285.752 2411.04 285.752 2406.37C285.752 2401.7 289.488 2397.97 294.157 2397.97C298.826 2397.97 302.561 2401.7 302.561 2406.37C302.561 2411.04 298.826 2414.77 294.157 2414.77Z" fill="#D8BFD4"/>
<path opacity="0.5" d="M294.157 2486.19C289.488 2486.19 285.752 2482.45 285.752 2477.78C285.752 2473.12 289.488 2469.38 294.157 2469.38C298.826 2469.38 302.561 2473.12 302.561 2477.78C302.561 2482.45 298.826 2486.19 294.157 2486.19Z" fill="#D8BFD4"/>
<path opacity="0.5" d="M222.719 1986.27C227.361 1986.27 231.124 1982.51 231.124 1977.87C231.124 1973.23 227.361 1969.47 222.719 1969.47C218.078 1969.47 214.315 1973.23 214.315 1977.87C214.315 1982.51 218.078 1986.27 222.719 1986.27Z" fill="#D8BFD4"/>
<path opacity="0.5" d="M222.719 2057.69C227.361 2057.69 231.124 2053.93 231.124 2049.29C231.124 2044.65 227.361 2040.88 222.719 2040.88C218.078 2040.88 214.315 2044.65 214.315 2049.29C214.315 2053.93 218.078 2057.69 222.719 2057.69Z" fill="#D8BFD4"/>
<path opacity="0.5" d="M222.719 2129.1C227.361 2129.1 231.124 2125.34 231.124 2120.7C231.124 2116.06 227.361 2112.3 222.719 2112.3C218.078 2112.3 214.315 2116.06 214.315 2120.7C214.315 2125.34 218.078 2129.1 222.719 2129.1Z" fill="#D8BFD4"/>
<path opacity="0.5" d="M222.719 2200.52C227.361 2200.52 231.124 2196.76 231.124 2192.12C231.124 2187.48 227.361 2183.72 222.719 2183.72C218.078 2183.72 214.315 2187.48 214.315 2192.12C214.315 2196.76 218.078 2200.52 222.719 2200.52Z" fill="#D8BFD4"/>
<path opacity="0.5" d="M222.719 2271.94C227.361 2271.94 231.124 2268.18 231.124 2263.54C231.124 2258.89 227.361 2255.13 222.719 2255.13C218.078 2255.13 214.315 2258.89 214.315 2263.54C214.315 2268.18 218.078 2271.94 222.719 2271.94Z" fill="#D8BFD4"/>
<path opacity="0.5" d="M222.719 2343.35C227.361 2343.35 231.124 2339.59 231.124 2334.95C231.124 2330.31 227.361 2326.55 222.719 2326.55C218.078 2326.55 214.315 2330.31 214.315 2334.95C214.315 2339.59 218.078 2343.35 222.719 2343.35Z" fill="#D8BFD4"/>
<path opacity="0.5" d="M222.719 2414.77C227.361 2414.77 231.124 2411.01 231.124 2406.37C231.124 2401.73 227.361 2397.97 222.719 2397.97C218.078 2397.97 214.315 2401.73 214.315 2406.37C214.315 2411.01 218.078 2414.77 222.719 2414.77Z" fill="#D8BFD4"/>
<path opacity="0.5" d="M222.719 2486.19C218.05 2486.19 214.315 2482.45 214.315 2477.78C214.315 2473.12 218.05 2469.38 222.719 2469.38C227.389 2469.38 231.124 2473.12 231.124 2477.78C231.124 2482.45 227.389 2486.19 222.719 2486.19Z" fill="#D8BFD4"/>
<path opacity="0.5" d="M151.281 1986.27C155.923 1986.27 159.686 1982.51 159.686 1977.87C159.686 1973.23 155.923 1969.47 151.281 1969.47C146.64 1969.47 142.877 1973.23 142.877 1977.87C142.877 1982.51 146.64 1986.27 151.281 1986.27Z" fill="#D8BFD4"/>
<path opacity="0.5" d="M151.281 2057.69C155.923 2057.69 159.686 2053.93 159.686 2049.29C159.686 2044.65 155.923 2040.88 151.281 2040.88C146.64 2040.88 142.877 2044.65 142.877 2049.29C142.877 2053.93 146.64 2057.69 151.281 2057.69Z" fill="#D8BFD4"/>
<path opacity="0.5" d="M151.281 2129.1C155.923 2129.1 159.686 2125.34 159.686 2120.7C159.686 2116.06 155.923 2112.3 151.281 2112.3C146.64 2112.3 142.877 2116.06 142.877 2120.7C142.877 2125.34 146.64 2129.1 151.281 2129.1Z" fill="#D8BFD4"/>
<path opacity="0.5" d="M151.281 2200.52C155.923 2200.52 159.686 2196.76 159.686 2192.12C159.686 2187.48 155.923 2183.72 151.281 2183.72C146.64 2183.72 142.877 2187.48 142.877 2192.12C142.877 2196.76 146.64 2200.52 151.281 2200.52Z" fill="#D8BFD4"/>
<path opacity="0.5" d="M151.281 2271.94C155.923 2271.94 159.686 2268.18 159.686 2263.54C159.686 2258.89 155.923 2255.13 151.281 2255.13C146.64 2255.13 142.877 2258.89 142.877 2263.54C142.877 2268.18 146.64 2271.94 151.281 2271.94Z" fill="#D8BFD4"/>
<path opacity="0.5" d="M151.281 2343.35C155.923 2343.35 159.686 2339.59 159.686 2334.95C159.686 2330.31 155.923 2326.55 151.281 2326.55C146.64 2326.55 142.877 2330.31 142.877 2334.95C142.877 2339.59 146.64 2343.35 151.281 2343.35Z" fill="#D8BFD4"/>
<path opacity="0.5" d="M151.281 2414.77C155.923 2414.77 159.686 2411.01 159.686 2406.37C159.686 2401.73 155.923 2397.97 151.281 2397.97C146.64 2397.97 142.877 2401.73 142.877 2406.37C142.877 2411.01 146.64 2414.77 151.281 2414.77Z" fill="#D8BFD4"/>
<path opacity="0.5" d="M151.281 2486.19C146.612 2486.19 142.877 2482.45 142.877 2477.78C142.877 2473.12 146.612 2469.38 151.281 2469.38C155.95 2469.38 159.686 2473.12 159.686 2477.78C159.686 2482.45 155.95 2486.19 151.281 2486.19Z" fill="#D8BFD4"/>
<path opacity="0.5" d="M79.8425 1986.27C84.4841 1986.27 88.2468 1982.51 88.2468 1977.87C88.2468 1973.23 84.4841 1969.47 79.8425 1969.47C75.2009 1969.47 71.4382 1973.23 71.4382 1977.87C71.4382 1982.51 75.2009 1986.27 79.8425 1986.27Z" fill="#D8BFD4"/>
<path opacity="0.5" d="M79.8425 2057.69C84.4841 2057.69 88.2468 2053.93 88.2468 2049.29C88.2468 2044.65 84.4841 2040.88 79.8425 2040.88C75.2009 2040.88 71.4382 2044.65 71.4382 2049.29C71.4382 2053.93 75.2009 2057.69 79.8425 2057.69Z" fill="#D8BFD4"/>
<path opacity="0.5" d="M79.8425 2129.1C84.4841 2129.1 88.2468 2125.34 88.2468 2120.7C88.2468 2116.06 84.4841 2112.3 79.8425 2112.3C75.2009 2112.3 71.4382 2116.06 71.4382 2120.7C71.4382 2125.34 75.2009 2129.1 79.8425 2129.1Z" fill="#D8BFD4"/>
<path opacity="0.5" d="M79.8425 2200.52C84.4841 2200.52 88.2468 2196.76 88.2468 2192.12C88.2468 2187.48 84.4841 2183.72 79.8425 2183.72C75.2009 2183.72 71.4382 2187.48 71.4382 2192.12C71.4382 2196.76 75.2009 2200.52 79.8425 2200.52Z" fill="#D8BFD4"/>
<path opacity="0.5" d="M79.8425 2271.94C84.4841 2271.94 88.2468 2268.18 88.2468 2263.54C88.2468 2258.89 84.4841 2255.13 79.8425 2255.13C75.2009 2255.13 71.4382 2258.89 71.4382 2263.54C71.4382 2268.18 75.2009 2271.94 79.8425 2271.94Z" fill="#D8BFD4"/>
<path opacity="0.5" d="M79.8425 2343.35C84.4841 2343.35 88.2468 2339.59 88.2468 2334.95C88.2468 2330.31 84.4841 2326.55 79.8425 2326.55C75.2009 2326.55 71.4382 2330.31 71.4382 2334.95C71.4382 2339.59 75.2009 2343.35 79.8425 2343.35Z" fill="#D8BFD4"/>
<path opacity="0.5" d="M79.8425 2414.77C84.4841 2414.77 88.2468 2411.01 88.2468 2406.37C88.2468 2401.73 84.4841 2397.97 79.8425 2397.97C75.2009 2397.97 71.4382 2401.73 71.4382 2406.37C71.4382 2411.01 75.2009 2414.77 79.8425 2414.77Z" fill="#D8BFD4"/>
<path opacity="0.5" d="M79.8425 2486.19C75.1734 2486.19 71.4382 2482.45 71.4382 2477.78C71.4382 2473.12 75.1734 2469.38 79.8425 2469.38C84.5116 2469.38 88.2468 2473.12 88.2468 2477.78C88.2468 2482.45 84.5116 2486.19 79.8425 2486.19Z" fill="#D8BFD4"/>
<path opacity="0.5" d="M8.40479 1986.27C13.0465 1986.27 16.8093 1982.51 16.8093 1977.87C16.8093 1973.23 13.0465 1969.47 8.40479 1969.47C3.76308 1969.47 0 1973.23 0 1977.87C0 1982.51 3.76308 1986.27 8.40479 1986.27Z" fill="#D8BFD4"/>
<path opacity="0.5" d="M8.40479 2057.69C13.0465 2057.69 16.8093 2053.93 16.8093 2049.29C16.8093 2044.65 13.0465 2040.88 8.40479 2040.88C3.76308 2040.88 0 2044.65 0 2049.29C0 2053.93 3.76308 2057.69 8.40479 2057.69Z" fill="#D8BFD4"/>
<path opacity="0.5" d="M8.40479 2129.1C13.0465 2129.1 16.8093 2125.34 16.8093 2120.7C16.8093 2116.06 13.0465 2112.3 8.40479 2112.3C3.76308 2112.3 0 2116.06 0 2120.7C0 2125.34 3.76308 2129.1 8.40479 2129.1Z" fill="#D8BFD4"/>
<path opacity="0.5" d="M8.40479 2200.52C13.0465 2200.52 16.8093 2196.76 16.8093 2192.12C16.8093 2187.48 13.0465 2183.72 8.40479 2183.72C3.76308 2183.72 0 2187.48 0 2192.12C0 2196.76 3.76308 2200.52 8.40479 2200.52Z" fill="#D8BFD4"/>
<path opacity="0.5" d="M8.40479 2271.94C13.0465 2271.94 16.8093 2268.18 16.8093 2263.54C16.8093 2258.89 13.0465 2255.13 8.40479 2255.13C3.76308 2255.13 0 2258.89 0 2263.54C0 2268.18 3.76308 2271.94 8.40479 2271.94Z" fill="#D8BFD4"/>
<path opacity="0.5" d="M8.40479 2343.35C13.0465 2343.35 16.8093 2339.59 16.8093 2334.95C16.8093 2330.31 13.0465 2326.55 8.40479 2326.55C3.76308 2326.55 0 2330.31 0 2334.95C0 2339.59 3.76308 2343.35 8.40479 2343.35Z" fill="#D8BFD4"/>
<path opacity="0.5" d="M8.40479 2414.77C13.0465 2414.77 16.8093 2411.01 16.8093 2406.37C16.8093 2401.73 13.0465 2397.97 8.40479 2397.97C3.76308 2397.97 0 2401.73 0 2406.37C0 2411.01 3.76308 2414.77 8.40479 2414.77Z" fill="#D8BFD4"/>
<path opacity="0.5" d="M8.40479 2486.19C3.73559 2486.19 0 2482.45 0 2477.78C0 2473.12 3.73559 2469.38 8.40479 2469.38C13.074 2469.38 16.8093 2473.12 16.8093 2477.78C16.8093 2482.45 13.074 2486.19 8.40479 2486.19Z" fill="#D8BFD4"/>
</g>
</svg>
