<svg id="empreendela-logo" xmlns="http://www.w3.org/2000/svg" width="384" height="66" viewBox="0 0 384 66">
  <path id="Caminho_3" data-name="Caminho 3" d="M31,6.922H0V3.38H31ZM28.924,28.976H0V25.434H28.924Zm2.557,18.673V51.19H0V47.649Z" fill="#1f1b30"/>
  <path id="Caminho_4" data-name="Caminho 4" d="M85.973,33.483V51.19H82.457V33.483c0-8.693-3.516-12.234-9.109-12.234-5.273,0-8.789,3.542-8.789,12.234V51.19H61.044V33.483c0-8.693-3.516-12.234-9.109-12.234-5.273,0-8.789,3.542-8.789,12.234V51.19H39.631v-33h3.516V22.7a10.517,10.517,0,0,1,9.268-5.151c5.753,0,9.109,2.576,10.866,6.922,2.077-4.185,5.753-6.922,10.547-6.922C82.777,17.707,85.973,23.985,85.973,33.483Z" fill="#1f1b30"/>
  <path id="Caminho_5" data-name="Caminho 5" d="M124.964,34.771c0,9.337-6.232,16.9-15.5,16.9a13.75,13.75,0,0,1-11.825-6.439V66H94.122V18.19h3.516v5.956a13.75,13.75,0,0,1,11.825-6.439C118.732,17.707,124.964,25.434,124.964,34.771Zm-3.676,0c0-7.566-4.474-13.522-11.825-13.522S97.8,27.2,97.8,34.771c0,7.4,4.314,13.522,11.665,13.522S121.288,42.176,121.288,34.771Z" fill="#1f1b30"/>
  <path id="Caminho_6" data-name="Caminho 6" d="M147.016,17.868l-.639,3.541h-1.119c-5.273,0-10.067,3.542-10.067,12.234V51.351h-3.516V18.19h3.516V23.02a11.648,11.648,0,0,1,10.067-5.312C145.738,17.707,146.377,17.868,147.016,17.868Z" fill="#1f1b30"/>
  <path id="Caminho_7" data-name="Caminho 7" d="M153.248,36.542c.8,6.6,5.593,11.751,12.3,11.751a11.813,11.813,0,0,0,10.067-5.956l3.037,1.449c-2.717,4.668-7.191,7.888-13.1,7.888-9.268,0-15.98-7.566-15.98-16.9s6.392-16.9,15.66-16.9,14.382,7.566,14.382,16.9v1.771ZM176.26,33c-.48-6.6-4.155-11.751-11.027-11.751S153.888,26.4,153.248,33Z" fill="#1f1b30"/>
  <path id="Caminho_8" data-name="Caminho 8" d="M188.085,36.542c.8,6.6,5.593,11.751,12.3,11.751a11.813,11.813,0,0,0,10.067-5.956l3.036,1.449c-2.716,4.668-7.191,7.888-13.1,7.888-9.269,0-15.981-7.566-15.981-16.9s6.392-16.9,15.661-16.9,14.382,7.566,14.382,16.9v1.771ZM211.1,33c-.479-6.6-4.155-11.751-11.026-11.751S188.724,26.4,188.085,33Z" fill="#1f1b30"/>
  <path id="Caminho_9" data-name="Caminho 9" d="M247.371,33.483V51.19h-3.516V33.483c0-8.693-3.675-12.234-9.268-12.234-5.274,0-9.748,3.541-9.748,12.234V51.19h-3.516v-33h3.516V23.02a11.3,11.3,0,0,1,9.748-5.312C243.7,17.707,247.371,23.985,247.371,33.483Z" fill="#1f1b30"/>
  <path id="Caminho_10" data-name="Caminho 10" d="M295.79,27.2c0,14-9.108,23.824-24.769,23.824H255.84V28.815h8.949V42.5h6.072c9.908,0,15.98-6.117,15.98-15.132s-6.072-15.132-15.98-15.132H255.84V3.38h15.181C286.682,3.38,295.79,13.361,295.79,27.2Z" fill="#3a0c74"/>
  <path id="Caminho_11" data-name="Caminho 11" d="M307.456,37.99a7.123,7.123,0,0,0,7.191,5.312,7.2,7.2,0,0,0,6.072-2.9l7.511,3.7a15.423,15.423,0,0,1-13.424,7.566c-9.428,0-16.459-7.566-16.459-16.9s6.712-16.9,16.14-16.9c9.268,0,15.021,7.4,15.021,16.9a10.489,10.489,0,0,1-.32,3.22Zm0-6.439h13.583c-.8-3.22-2.717-5.634-6.552-5.634A7.111,7.111,0,0,0,307.456,31.551Z" fill="#3a0c74"/>
  <path id="Caminho_12" data-name="Caminho 12" d="M353.318,47.81a12.59,12.59,0,0,1-9.748,3.863c-5.593-.322-9.747-2.9-9.747-13.844V0h8.948V38.312c0,2.254.48,4.668,3.037,4.829a3.889,3.889,0,0,0,3.2-1.127Z" fill="#3a0c74"/>
  <path id="Caminho_13" data-name="Caminho 13" d="M384,30.585V51.029h-8.949V47.971c-1.278,1.288-4.474,3.542-10.067,3.542-6.392,0-9.908-3.381-10.227-8.371,0-7.083,4.794-9.659,11.825-11.107,5.433-1.288,7.83-1.288,8.15-3.059.479-1.932-1.6-4.024-4.794-3.863-2.717,0-4.794,1.288-5.434,3.863l-7.51-1.61c.639-4.346,5.433-9.659,13.583-9.659C377.928,17.868,384,21.088,384,30.585ZM375.211,36.7s-3.036.644-7.191,1.771c-3.356.8-4.315,3.058-3.675,4.668.479,1.449,2.556,1.932,4.634,1.61a7.221,7.221,0,0,0,6.232-6.922Z" fill="#3a0c74"/>
</svg>
