<svg width="63" height="11" viewBox="0 0 63 11" fill="none" xmlns="http://www.w3.org/2000/svg">
<path d="M31.3337 9.29183C33.4277 9.29183 35.1253 7.59424 35.1253 5.50016C35.1253 3.40608 33.4277 1.7085 31.3337 1.7085C29.2396 1.7085 27.542 3.40608 27.542 5.50016C27.542 7.59424 29.2396 9.29183 31.3337 9.29183Z" fill="#3A0C74" stroke="#3A0C74" stroke-width="2" stroke-linecap="round" stroke-linejoin="round"/>
<path d="M57.8752 9.29183C59.9692 9.29183 61.6668 7.59424 61.6668 5.50016C61.6668 3.40608 59.9692 1.7085 57.8752 1.7085C55.7811 1.7085 54.0835 3.40608 54.0835 5.50016C54.0835 7.59424 55.7811 9.29183 57.8752 9.29183Z" fill="#3A0C74" stroke="#3A0C74" stroke-width="2" stroke-linecap="round" stroke-linejoin="round"/>
<path d="M4.79167 9.29183C6.88575 9.29183 8.58333 7.59424 8.58333 5.50016C8.58333 3.40608 6.88575 1.7085 4.79167 1.7085C2.69759 1.7085 1 3.40608 1 5.50016C1 7.59424 2.69759 9.29183 4.79167 9.29183Z" fill="#3A0C74" stroke="#3A0C74" stroke-width="2" stroke-linecap="round" stroke-linejoin="round"/>
</svg>
