<svg width="65" height="65" viewBox="0 0 65 65" fill="none" xmlns="http://www.w3.org/2000/svg">
<path d="M32.3071 3.42347C16.4884 3.42347 3.50281 16.409 3.50281 32.2278C3.50281 48.0466 16.3703 61.0321 32.3071 61.0321C48.1259 61.0321 61.1115 48.1646 61.1115 32.2278C61.1115 16.409 48.1259 3.42347 32.3071 3.42347ZM32.3071 64.4556C14.4815 64.4556 0.0793457 49.9354 0.0793457 32.2278C0.0793457 14.4022 14.4815 0 32.3071 0C50.0147 0 64.5349 14.4022 64.5349 32.2278C64.5349 49.9354 50.0147 64.4556 32.3071 64.4556Z" fill="#BF6575"/>
<path fill-rule="evenodd" clip-rule="evenodd" d="M27.1129 32.3458V50.9977C27.1129 51.2338 27.349 51.4699 27.5851 51.4699H34.5501C34.7862 51.4699 35.0223 51.2338 35.0223 50.9977V32.1097H40.0985C40.3346 32.1097 40.5707 31.8736 40.5707 31.6375L41.0429 25.971C41.0429 25.7349 40.8068 25.4988 40.5707 25.4988H35.0223V21.4851C35.0223 20.5407 35.8487 19.7143 36.7931 19.7143H40.6888C40.9249 19.7143 41.161 19.4783 41.161 19.2421V13.5757C41.161 13.3396 40.9249 13.1035 40.6888 13.1035H34.196C30.3003 13.1035 27.231 16.1728 27.231 20.0685V25.6169H23.8075C23.5714 25.6169 23.3353 25.853 23.3353 26.0891V31.7555C23.3353 31.9916 23.5714 32.2277 23.8075 32.2277L27.1129 32.3458Z" fill="#BF6575"/>
</svg>
