<svg width="846" height="521" viewBox="0 0 846 521" fill="none" xmlns="http://www.w3.org/2000/svg">
<g opacity="0.6">
<path opacity="0.6" d="M136.634 249.875C158.68 227.831 158.68 192.091 136.634 170.047C114.589 148.003 78.8458 148.003 56.8002 170.047C34.7546 192.091 34.7546 227.831 56.8002 249.875C78.8458 271.918 114.589 271.918 136.634 249.875Z" fill="#5574D8"/>
<path opacity="0.6" d="M101.224 261.084C132.402 261.084 157.676 235.812 157.676 204.637C157.676 173.462 132.402 148.19 101.224 148.19C70.0466 148.19 44.7722 173.462 44.7722 204.637C44.7722 235.812 70.0466 261.084 101.224 261.084Z" fill="#708CF5"/>
<path opacity="0.6" d="M101.484 253.687C100.056 253.687 98.6287 253.687 97.0714 253.558C84.0939 252.39 72.4142 246.291 63.9789 236.299C55.6733 226.307 51.6503 213.72 52.8183 200.744C53.9863 187.768 60.0857 176.089 70.0783 167.654C80.0709 159.349 92.659 155.327 105.636 156.495C118.614 157.663 130.294 163.761 138.729 173.753C147.035 183.745 151.058 196.332 149.89 209.308C148.722 222.285 142.622 233.963 132.63 242.398C123.805 249.795 112.904 253.687 101.484 253.687ZM101.224 157.533C90.0636 157.533 79.422 161.426 70.8569 168.563C61.1238 176.738 55.1542 188.157 54.116 200.744C52.9481 213.331 56.8413 225.659 65.0171 235.391C73.1929 245.123 84.613 251.092 97.2011 252.13C109.789 253.298 122.118 249.405 131.851 241.23C141.584 233.055 147.554 221.636 148.592 209.049C149.76 196.462 145.867 184.134 137.691 174.402C129.515 164.67 118.095 158.701 105.507 157.663C104.079 157.533 102.652 157.533 101.224 157.533Z" fill="white"/>
<g opacity="0.6">
<g opacity="0.6">
<path opacity="0.6" d="M94.995 225.788C92.14 225.01 89.5445 223.972 87.2086 222.544C84.8726 221.117 83.0558 219.689 81.4985 218.262C80.5901 217.354 80.3305 216.316 80.4603 215.278C80.5901 214.369 81.1092 213.72 81.758 213.201C82.5367 212.682 83.3153 212.552 84.2237 212.682C85.0024 212.812 85.6513 213.201 86.3001 213.72C87.9872 215.148 89.804 216.445 91.6209 217.484C93.4377 218.522 95.6439 219.3 98.1096 219.819C99.018 219.949 99.9265 220.079 100.835 220.209C101.743 220.209 102.522 220.209 103.301 220.209C104.079 220.079 104.858 219.949 105.637 219.689C106.285 219.43 106.934 219.17 107.453 218.781C107.972 218.392 108.492 217.873 108.881 217.224C109.27 216.575 109.53 215.926 109.66 215.018C109.919 213.461 109.66 212.163 108.751 210.995C107.843 209.827 106.285 208.66 104.079 207.751L97.0714 204.507C95.6439 203.858 94.4759 203.339 93.5675 202.82C92.6591 202.301 91.7507 201.782 90.7125 201.133C89.6743 200.485 88.8956 199.965 88.2468 199.317C87.5979 198.798 87.0788 198.149 86.5597 197.37C86.0406 196.592 85.6513 195.813 85.3917 195.034C85.1322 194.256 85.0024 193.348 85.0024 192.309C85.0024 191.271 85.0024 190.233 85.2619 188.936C85.5215 187.768 85.781 186.859 86.3001 185.821C86.6895 184.913 87.3383 184.005 87.9872 183.356C88.6361 182.707 89.4147 182.058 90.1934 181.539C90.972 181.02 91.8804 180.501 92.9186 180.241C93.9568 179.852 94.995 179.593 96.0332 179.463C97.2012 179.333 98.2394 179.203 99.5371 179.203C100.705 179.203 102.003 179.203 103.301 179.463L104.988 170.25C105.117 169.341 105.507 168.692 106.156 168.303C106.805 167.914 107.453 167.784 108.232 167.914C109.011 168.044 109.66 168.433 110.179 169.082C110.698 169.731 110.828 170.509 110.698 171.418L109.011 180.631C110.568 181.02 111.995 181.669 113.423 182.318C114.851 182.966 116.018 183.615 116.927 184.134C117.835 184.653 118.614 185.302 119.522 185.951C120.82 186.859 121.339 188.027 121.08 189.455C121.08 189.714 120.95 190.103 120.82 190.363C120.69 190.622 120.431 190.882 120.301 191.142C120.041 191.401 119.782 191.531 119.522 191.661C119.263 191.79 119.003 191.92 118.614 191.92C118.225 191.92 117.965 191.92 117.576 191.92C117.446 191.92 117.186 191.79 117.057 191.79C116.927 191.79 116.667 191.661 116.538 191.531C116.408 191.401 116.148 191.401 116.018 191.271C116.018 191.271 115.629 191.012 114.98 190.622C114.331 190.233 113.812 189.844 113.423 189.714C113.163 189.584 112.515 189.195 111.736 188.806C110.957 188.417 110.308 188.157 109.66 187.897C109.011 187.638 108.362 187.378 107.453 187.119C106.545 186.859 105.766 186.6 104.988 186.47C103.301 186.211 101.743 186.081 100.316 186.081C98.8883 186.211 97.7203 186.6 96.6821 187.249C95.6439 187.897 94.995 188.936 94.7355 190.233C94.4759 191.79 94.7355 193.088 95.5141 193.996C96.2928 194.905 98.1096 195.943 100.705 197.111L107.583 200.225C111.995 202.301 115.11 204.507 116.797 206.973C118.484 209.438 119.003 212.423 118.354 215.797C117.576 219.949 115.629 222.804 112.515 224.62C109.4 226.437 105.507 227.216 100.965 226.826L99.2776 235.91C99.1478 236.818 98.6287 237.467 97.9798 237.856C97.331 238.246 96.5523 238.375 95.7737 238.246C95.2546 238.116 94.8653 237.986 94.4759 237.727C94.0866 237.467 93.8271 237.078 93.5675 236.559C93.308 236.04 93.308 235.521 93.4377 234.872L94.995 225.788Z" fill="white"/>
</g>
</g>
</g>
<g opacity="0.6">
<path opacity="0.6" d="M211.177 121.488C231.259 117.381 244.209 97.7725 240.101 77.692C235.993 57.6115 216.383 44.6628 196.301 48.7703C176.219 52.8778 163.269 72.4861 167.377 92.5666C171.485 112.647 191.095 125.596 211.177 121.488Z" fill="#5574D8"/>
<path opacity="0.6" d="M216.154 117.336C235.945 111.997 247.66 91.6261 242.32 71.8366C236.98 52.0472 216.608 40.3331 196.816 45.6724C177.025 51.0118 165.31 71.3827 170.65 91.1722C175.99 110.962 196.363 122.676 216.154 117.336Z" fill="#708CF5"/>
<path opacity="0.6" d="M206.601 113.932C206.471 113.932 206.341 113.932 206.341 113.932C197.776 113.803 189.6 110.429 183.631 104.2C177.531 98.1012 174.287 89.9261 174.417 81.232C174.547 72.6676 177.921 64.4925 184.15 58.5234C190.249 52.5543 198.295 49.3102 206.731 49.3102C206.86 49.3102 206.99 49.3102 206.99 49.3102C215.555 49.4399 223.731 52.8138 229.701 59.0424C235.8 65.1413 239.045 73.3164 238.915 82.0106C238.785 90.5749 235.411 98.75 229.182 104.719C223.082 110.688 215.036 113.932 206.601 113.932ZM206.601 50.6078C198.425 50.6078 190.768 53.7221 184.929 59.4317C178.959 65.2711 175.715 72.9271 175.585 81.232C175.455 89.5368 178.699 97.3226 184.409 103.292C190.249 109.261 197.906 112.505 206.212 112.635C214.517 112.764 222.304 109.52 228.273 103.811C234.243 97.9715 237.487 90.3154 237.617 82.0106C237.747 73.7057 234.502 65.9199 228.792 59.9508C222.953 53.9817 215.296 50.7376 206.99 50.6078C206.731 50.6078 206.601 50.6078 206.601 50.6078Z" fill="white"/>
<g opacity="0.6">
<g opacity="0.6">
<path opacity="0.6" d="M203.486 95.6357C201.54 95.2464 199.853 94.7273 198.166 93.9488C196.608 93.1702 195.311 92.2618 194.273 91.3535C193.624 90.8344 193.364 90.1856 193.494 89.407C193.494 88.888 193.753 88.3689 194.273 87.9796C194.662 87.5904 195.311 87.4606 195.83 87.4606C196.349 87.4606 196.738 87.7201 197.257 87.9796C198.425 88.888 199.723 89.5368 200.891 90.1856C202.189 90.8344 203.616 91.2237 205.303 91.3535C205.952 91.4833 206.471 91.4833 207.12 91.4833C207.639 91.4833 208.288 91.3535 208.807 91.3535C209.326 91.2237 209.845 91.094 210.235 90.8344C210.624 90.5749 211.013 90.4451 211.403 90.0559C211.792 89.7963 212.052 89.407 212.181 89.0177C212.441 88.6285 212.571 88.1094 212.571 87.5904C212.7 86.5522 212.441 85.7737 211.792 84.9951C211.143 84.2165 210.105 83.5677 208.548 83.0486L203.746 81.2319C202.838 80.8427 202.059 80.5831 201.41 80.3236C200.761 80.0641 200.112 79.8045 199.463 79.4153C198.815 79.026 198.166 78.7664 197.776 78.3772C197.387 77.9879 196.868 77.5986 196.479 77.2093C196.089 76.6902 195.83 76.3009 195.57 75.7819C195.311 75.2628 195.181 74.7438 195.181 73.9652C195.051 73.3164 195.051 72.5378 195.181 71.7592C195.311 70.9806 195.44 70.3318 195.7 69.683C195.96 69.0342 196.219 68.5151 196.608 67.9961C196.998 67.477 197.387 67.0877 197.906 66.6984C198.425 66.3092 198.944 65.9199 199.593 65.6603C200.242 65.4008 200.891 65.1413 201.67 65.0115C202.448 64.8818 203.097 64.752 203.876 64.6222C204.654 64.4925 205.433 64.4925 206.342 64.6222L206.99 58.5233C207.12 57.8745 207.25 57.4852 207.639 57.096C208.029 56.8364 208.548 56.7067 209.067 56.7067C209.586 56.7067 209.975 56.9662 210.365 57.3555C210.754 57.7448 210.884 58.2638 210.754 58.7829L210.105 65.0115C211.143 65.271 212.181 65.5306 213.09 65.9199C213.998 66.3092 214.907 66.5687 215.426 66.958C216.075 67.3473 216.594 67.6068 217.243 67.9961C218.151 68.5151 218.54 69.2937 218.411 70.2021C218.411 70.4616 218.281 70.5913 218.281 70.8509C218.151 70.9806 218.151 71.2402 217.891 71.3699C217.762 71.4997 217.632 71.6295 217.502 71.7592C217.372 71.889 217.113 71.889 216.983 72.0187C216.723 72.0187 216.464 72.0187 216.334 72.0187C216.204 72.0187 216.075 72.0187 215.945 71.889C215.815 71.889 215.685 71.7592 215.556 71.7592C215.426 71.7592 215.296 71.6295 215.166 71.6295C215.166 71.6295 214.907 71.4997 214.388 71.2402C213.868 70.9806 213.609 70.8509 213.349 70.7211C213.09 70.5913 212.7 70.4616 212.181 70.2021C211.662 69.9425 211.143 69.8128 210.754 69.683C210.365 69.5532 209.845 69.4235 209.326 69.2937C208.807 69.164 208.158 69.0342 207.639 69.0342C206.471 68.9044 205.433 68.9044 204.525 69.0342C203.616 69.1639 202.838 69.4235 202.189 69.9425C201.54 70.4616 201.151 71.1104 201.021 72.0187C200.891 73.0569 201.151 73.8354 201.67 74.4843C202.189 75.0033 203.486 75.6521 205.303 76.3009L209.975 77.9879C212.96 79.1557 215.166 80.4534 216.464 81.8808C217.762 83.4379 218.151 85.2546 218.021 87.5904C217.762 90.3154 216.594 92.3916 214.647 93.6892C212.7 94.9869 210.235 95.7654 207.12 95.6357L206.471 101.605C206.471 102.254 206.212 102.643 205.693 102.902C205.303 103.162 204.784 103.292 204.265 103.292C204.006 103.292 203.616 103.162 203.357 103.032C203.097 102.902 202.838 102.643 202.708 102.254C202.578 101.994 202.448 101.605 202.578 101.086L203.486 95.6357Z" fill="white"/>
</g>
</g>
</g>
<g opacity="0.4">
<path opacity="0.4" d="M134.257 322.483C136.18 306.762 124.993 292.459 109.271 290.536C93.5482 288.613 79.2438 299.799 77.3209 315.52C75.398 331.241 86.5846 345.544 102.307 347.467C118.029 349.389 132.334 338.204 134.257 322.483Z" fill="#5574D8"/>
<path opacity="0.4" d="M136.686 319.925C138.575 304.2 127.358 289.92 111.631 288.03C95.9035 286.141 81.6222 297.357 79.7326 313.083C77.8429 328.809 89.0604 343.089 104.788 344.978C120.515 346.868 134.796 335.651 136.686 319.925Z" fill="#708CF5"/>
<path opacity="0.4" d="M108.232 341.667C100.705 341.667 93.308 338.293 88.3766 331.935C84.2238 326.615 82.4069 320.126 83.3154 313.379C84.094 306.761 87.4682 300.792 92.7889 296.639C103.69 288.205 119.522 290.151 127.958 301.051C136.393 311.951 134.447 327.782 123.545 336.217C119.003 339.98 113.553 341.667 108.232 341.667ZM108.102 292.876C103.041 292.876 97.8501 294.563 93.5676 297.937C88.5063 301.83 85.3918 307.41 84.6131 313.768C83.8345 320.126 85.5215 326.355 89.4148 331.286C97.4608 341.667 112.385 343.484 122.767 335.438C133.149 327.393 134.966 312.47 126.92 302.089C122.248 295.99 115.24 292.876 108.102 292.876Z" fill="white"/>
<g opacity="0.4">
<g opacity="0.4">
<path opacity="0.4" d="M104.598 327.134C103.171 326.744 101.873 326.095 100.705 325.317C99.5372 324.538 98.6287 323.76 97.8501 322.981C97.4608 322.462 97.331 321.943 97.4608 321.424C97.5905 321.035 97.8501 320.645 98.2394 320.386C98.6287 320.126 99.0181 319.997 99.5372 320.126C99.9265 320.256 100.186 320.386 100.575 320.645C101.354 321.424 102.262 322.073 103.171 322.722C104.079 323.37 105.247 323.76 106.415 324.019C106.934 324.149 107.324 324.149 107.713 324.279C108.102 324.279 108.621 324.279 109.011 324.279C109.4 324.279 109.789 324.149 110.179 324.019C110.568 323.889 110.828 323.76 111.087 323.5C111.347 323.37 111.606 323.111 111.866 322.722C112.125 322.462 112.255 322.073 112.255 321.684C112.385 320.905 112.255 320.256 111.866 319.607C111.476 318.958 110.698 318.439 109.53 317.791L106.026 315.974C105.377 315.585 104.728 315.325 104.339 315.066C103.95 314.806 103.43 314.547 102.911 314.157C102.392 313.768 102.003 313.508 101.743 313.249C101.484 312.989 101.224 312.6 100.835 312.211C100.575 311.822 100.316 311.432 100.316 311.043C100.186 310.654 100.186 310.135 100.186 309.616C100.186 309.096 100.186 308.577 100.446 307.929C100.575 307.41 100.705 306.89 100.965 306.371C101.224 305.852 101.484 305.463 101.873 305.204C102.262 304.814 102.652 304.555 103.041 304.295C103.43 304.036 103.95 303.776 104.469 303.646C104.988 303.517 105.507 303.387 106.026 303.257C106.545 303.257 107.194 303.127 107.843 303.127C108.492 303.127 109.14 303.257 109.789 303.257L110.828 298.586C110.957 298.067 111.217 297.807 111.476 297.548C111.866 297.418 112.125 297.288 112.515 297.418C112.904 297.548 113.164 297.677 113.423 298.067C113.683 298.456 113.683 298.845 113.683 299.234L112.644 303.906C113.423 304.165 114.202 304.425 114.851 304.814C115.499 305.204 116.148 305.463 116.538 305.852C116.927 306.112 117.446 306.501 117.835 306.761C118.484 307.28 118.744 307.929 118.614 308.577C118.614 308.707 118.484 308.837 118.484 308.967C118.354 309.096 118.354 309.226 118.225 309.356C118.095 309.486 117.965 309.486 117.835 309.616C117.706 309.745 117.576 309.745 117.316 309.745C117.187 309.745 116.927 309.745 116.797 309.745C116.667 309.745 116.667 309.745 116.538 309.616C116.408 309.616 116.408 309.486 116.278 309.486C116.148 309.486 116.148 309.356 116.019 309.356C116.019 309.356 115.759 309.226 115.499 308.967C115.11 308.707 114.851 308.577 114.721 308.448C114.591 308.318 114.331 308.188 113.942 307.929C113.553 307.669 113.163 307.539 112.904 307.41C112.644 307.28 112.255 307.15 111.866 307.02C111.476 306.89 110.957 306.761 110.568 306.631C109.66 306.371 108.881 306.371 108.232 306.371C107.453 306.371 106.934 306.501 106.285 306.89C105.766 307.15 105.377 307.669 105.247 308.318C105.117 309.096 105.117 309.745 105.507 310.264C105.896 310.783 106.805 311.302 108.102 311.951L111.606 313.638C113.812 314.806 115.37 315.974 116.148 317.272C116.927 318.569 117.187 319.997 116.797 321.813C116.278 323.889 115.24 325.317 113.683 326.225C111.996 327.134 110.049 327.393 107.713 327.134L106.675 331.675C106.545 332.065 106.285 332.454 106.026 332.584C105.637 332.843 105.247 332.843 104.858 332.713C104.598 332.713 104.339 332.584 104.209 332.454C104.079 332.324 103.82 332.065 103.82 331.805C103.69 331.546 103.69 331.286 103.82 330.897L104.598 327.134Z" fill="white"/>
</g>
</g>
</g>
<g opacity="0.4">
<path opacity="0.4" d="M238.659 171.441C240.02 159.984 231.834 149.593 220.375 148.232C208.917 146.872 198.525 155.057 197.165 166.515C195.804 177.972 203.99 188.363 215.449 189.724C226.907 191.084 237.299 182.899 238.659 171.441Z" fill="#5574D8"/>
<path opacity="0.4" d="M240.493 168.072C241.11 156.55 232.268 146.71 220.745 146.094C209.222 145.477 199.381 154.318 198.764 165.84C198.148 177.363 206.99 187.203 218.513 187.819C230.036 188.435 239.877 179.594 240.493 168.072Z" fill="#708CF5"/>
<path opacity="0.4" d="M219.578 185.562C219.189 185.562 218.8 185.562 218.281 185.562C213.349 185.172 208.807 182.966 205.563 179.333C198.814 171.677 199.593 159.998 207.25 153.251C211.013 150.006 215.685 148.32 220.617 148.709C225.548 148.968 230.09 151.304 233.334 154.938C236.579 158.701 238.266 163.372 237.877 168.303C237.487 173.234 235.281 177.776 231.647 181.02C228.403 184.004 224.12 185.562 219.578 185.562ZM219.578 149.877C215.426 149.877 211.403 151.304 208.288 154.159C201.15 160.388 200.501 171.288 206.731 178.425C209.715 181.928 213.998 184.004 218.54 184.264C223.082 184.524 227.495 183.096 230.999 179.982C234.502 176.997 236.579 172.715 236.838 168.173C237.098 163.632 235.67 159.22 232.556 155.716C229.571 152.212 225.288 150.136 220.746 149.877C220.357 149.877 219.968 149.877 219.578 149.877Z" fill="white"/>
<g opacity="0.4">
<g opacity="0.4">
<path opacity="0.4" d="M217.372 174.921C216.334 174.662 215.296 174.272 214.517 173.753C213.609 173.234 212.96 172.715 212.311 172.196C212.052 171.807 211.922 171.547 211.922 171.158C211.922 170.898 212.181 170.509 212.441 170.379C212.701 170.12 212.96 170.12 213.349 170.12C213.609 170.12 213.868 170.25 214.128 170.509C214.777 171.028 215.426 171.547 216.075 171.937C216.724 172.326 217.632 172.585 218.54 172.715C218.93 172.715 219.189 172.845 219.579 172.845C219.838 172.845 220.227 172.845 220.487 172.845C220.747 172.845 221.006 172.715 221.266 172.585C221.525 172.456 221.785 172.326 221.915 172.196C222.174 172.066 222.304 171.807 222.434 171.677C222.563 171.418 222.693 171.158 222.693 170.898C222.823 170.379 222.693 169.86 222.304 169.471C221.915 169.082 221.395 168.692 220.487 168.303L217.891 167.135C217.372 166.876 216.983 166.746 216.594 166.487C216.204 166.357 215.945 166.097 215.556 165.967C215.166 165.708 214.907 165.578 214.647 165.319C214.388 165.059 214.258 164.929 213.998 164.67C213.739 164.41 213.609 164.151 213.479 163.761C213.349 163.502 213.349 163.113 213.349 162.723C213.349 162.334 213.349 161.945 213.479 161.555C213.609 161.166 213.609 160.777 213.868 160.388C213.998 159.998 214.258 159.739 214.517 159.479C214.777 159.22 215.036 158.96 215.296 158.83C215.556 158.571 215.945 158.441 216.334 158.311C216.724 158.182 217.113 158.052 217.502 158.052C217.892 157.922 218.281 157.922 218.8 157.922C219.189 157.922 219.708 157.922 220.227 157.922L220.747 154.548C220.747 154.159 221.006 153.899 221.136 153.77C221.395 153.64 221.655 153.51 221.915 153.64C222.174 153.64 222.434 153.77 222.693 154.029C222.953 154.289 222.953 154.548 222.953 154.938L222.434 158.441C222.953 158.571 223.602 158.83 224.121 158.96C224.64 159.22 225.029 159.479 225.418 159.609C225.808 159.739 226.067 159.998 226.327 160.258C226.846 160.647 226.976 161.036 226.976 161.555C226.976 161.685 226.976 161.815 226.846 161.945C226.846 162.075 226.716 162.204 226.586 162.204C226.457 162.334 226.457 162.334 226.327 162.464C226.197 162.464 226.067 162.594 225.938 162.594C225.808 162.594 225.678 162.594 225.548 162.594C225.418 162.594 225.418 162.594 225.418 162.594C225.418 162.594 225.289 162.594 225.289 162.464C225.159 162.464 225.159 162.464 225.029 162.334C225.029 162.334 224.899 162.204 224.64 162.075C224.38 161.945 224.25 161.815 224.121 161.815C223.991 161.815 223.861 161.685 223.472 161.555C223.212 161.426 222.953 161.296 222.693 161.166C222.434 161.036 222.174 161.036 221.915 160.907C221.655 160.777 221.266 160.777 221.006 160.647C220.357 160.517 219.838 160.517 219.319 160.517C218.8 160.517 218.281 160.777 218.021 160.907C217.632 161.166 217.372 161.556 217.372 161.945C217.243 162.594 217.372 162.983 217.632 163.372C217.892 163.632 218.54 164.021 219.579 164.54L222.174 165.708C223.861 166.487 225.029 167.265 225.678 168.173C226.327 169.082 226.586 170.12 226.327 171.418C226.067 172.975 225.418 174.013 224.25 174.791C223.082 175.44 221.655 175.829 219.968 175.7L219.449 179.074C219.449 179.463 219.189 179.593 218.93 179.852C218.67 179.982 218.411 180.112 218.151 179.982C218.021 179.982 217.762 179.852 217.632 179.722C217.502 179.593 217.372 179.463 217.243 179.333C217.113 179.203 217.113 178.944 217.243 178.684L217.372 174.921Z" fill="white"/>
</g>
</g>
</g>
<path d="M63.7192 289.372C64.1085 291.059 63.0703 292.746 61.3833 293.135C59.6962 293.525 58.0091 292.487 57.6198 290.8C57.2305 289.113 58.2687 287.426 59.9558 287.037C61.6428 286.647 63.3299 287.685 63.7192 289.372Z" fill="#9BABE8"/>
<path d="M267.725 209.957C268.114 211.644 267.076 213.331 265.389 213.72C263.702 214.11 262.015 213.071 261.626 211.385C261.236 209.698 262.275 208.011 263.962 207.621C265.519 207.232 267.206 208.27 267.725 209.957Z" fill="#9BABE8"/>
<path d="M138.729 276.007C138.988 276.915 138.34 277.694 137.561 277.953C136.652 278.213 135.874 277.564 135.614 276.785C135.355 275.877 136.004 275.098 136.782 274.839C137.691 274.709 138.469 275.228 138.729 276.007Z" fill="#9987F2"/>
<path d="M95.6439 104.589C95.9034 105.498 95.2546 106.276 94.4759 106.536C93.5675 106.795 92.7889 106.146 92.5293 105.368C92.2698 104.46 92.9186 103.681 93.6973 103.421C94.6057 103.162 95.3843 103.811 95.6439 104.589Z" fill="#9987F2"/>
<path d="M264.61 85.6439C264.87 86.5522 264.221 87.3308 263.442 87.5903C262.534 87.8499 261.755 87.201 261.496 86.4224C261.236 85.5141 261.885 84.7355 262.664 84.476C263.572 84.2165 264.351 84.7355 264.61 85.6439Z" fill="#9987F2"/>
<path d="M274.992 89.7963C275.252 90.7047 274.603 91.4832 273.824 91.7428C272.916 92.0023 272.137 91.3535 271.877 90.5749C271.618 89.6666 272.267 88.888 273.045 88.6285C273.954 88.3689 274.862 88.888 274.992 89.7963Z" fill="white"/>
<path d="M41.6576 259.527C41.9171 260.435 41.2682 261.214 40.4896 261.473C39.5812 261.733 38.8025 261.084 38.543 260.305C38.2834 259.397 38.9323 258.618 39.711 258.359C40.6194 258.099 41.398 258.748 41.6576 259.527Z" fill="white"/>
<path d="M264.61 105.887C264.87 106.795 264.221 107.574 263.442 107.833C262.534 108.093 261.755 107.444 261.496 106.665C261.236 105.757 261.885 104.979 262.664 104.719C263.572 104.46 264.48 104.979 264.61 105.887Z" fill="white"/>
<path d="M134.576 90.3153L131.591 97.063L129.775 89.7963L123.805 86.682L130.423 84.0867L133.408 77.339L135.485 84.6057L141.454 88.3689L134.576 90.3153Z" fill="#9987F2"/>
<path d="M12.069 210.476L8.82467 217.873L6.74827 209.827L0 206.324L7.39715 203.469L10.7713 195.813L12.9774 203.988L19.7257 208.27L12.069 210.476Z" fill="#9987F2"/>
<path d="M104.728 375.795L102.133 381.504L100.575 375.276L95.3843 372.551L101.094 370.345L103.69 364.376L105.377 370.734L110.698 374.108L104.728 375.795Z" fill="white"/>
<path d="M175.974 184.653L173.379 190.493L171.821 184.264L166.63 181.539L172.34 179.333L174.936 173.364L176.753 179.722L181.944 182.966L175.974 184.653Z" fill="white"/>
<path d="M39.8407 152.212C40.1002 153.121 39.4514 153.899 38.6727 154.159C37.7643 154.418 36.9856 153.77 36.7261 152.991C36.4665 152.083 37.1154 151.304 37.8941 151.045C38.8025 150.785 39.7109 151.304 39.8407 152.212Z" fill="#9BABE8"/>
<path d="M62.0321 339.331C62.1619 339.85 61.9024 340.24 61.3833 340.369C60.8642 340.499 60.4749 340.24 60.3451 339.721C60.2153 339.201 60.4749 338.812 60.994 338.682C61.3833 338.553 61.9024 338.942 62.0321 339.331Z" fill="#9BABE8"/>
<path d="M153.264 142.869C153.653 144.556 152.615 146.243 150.928 146.633C149.241 147.022 147.554 145.984 147.164 144.297C146.775 142.61 147.813 140.923 149.5 140.534C151.187 140.144 152.874 141.183 153.264 142.869Z" fill="#9BABE8"/>
<g opacity="0.6">
<path opacity="0.6" d="M760.743 185.449C763.493 154.396 740.546 126.994 709.49 124.245C678.434 121.495 651.029 144.44 648.28 175.494C645.531 206.547 668.478 233.949 699.533 236.698C730.589 239.448 757.994 216.503 760.743 185.449Z" fill="#5574D8"/>
<path opacity="0.6" d="M748.956 215.12C771.001 193.076 771.001 157.336 748.956 135.293C726.91 113.249 691.167 113.249 669.121 135.293C647.076 157.336 647.076 193.076 669.121 215.12C691.167 237.164 726.91 237.164 748.956 215.12Z" fill="#708CF5"/>
<path opacity="0.6" d="M709.218 224.231C695.332 224.231 681.446 218.262 671.843 206.843C654.583 186.211 657.308 155.457 677.943 138.198C698.577 120.94 729.333 123.665 746.593 144.297C754.899 154.289 758.922 166.876 757.754 179.852C756.586 192.828 750.486 204.507 740.494 212.942C731.41 220.598 720.249 224.231 709.218 224.231ZM709.088 128.077C698.317 128.077 687.546 131.71 678.721 139.106C658.606 155.846 656.011 185.821 672.752 205.935C689.492 226.048 719.47 228.643 739.585 211.904C749.318 203.729 755.288 192.309 756.326 179.722C757.494 167.135 753.601 154.808 745.425 145.076C736.211 133.916 722.715 128.077 709.088 128.077Z" fill="white"/>
<g opacity="0.6">
<g opacity="0.6">
<path opacity="0.6" d="M702.859 196.462C700.004 195.683 697.408 194.645 695.073 193.218C692.737 191.79 690.92 190.363 689.362 188.936C688.454 188.027 688.195 186.989 688.324 185.951C688.454 185.043 688.973 184.394 689.622 183.875C690.401 183.356 691.179 183.226 692.088 183.356C692.866 183.486 693.515 183.875 694.164 184.394C695.851 185.821 697.668 187.119 699.485 188.157C701.302 189.195 703.508 189.974 705.974 190.493C706.882 190.622 707.79 190.752 708.699 190.882C709.607 191.012 710.386 190.882 711.165 190.882C711.943 190.752 712.722 190.622 713.501 190.363C714.149 190.103 714.798 189.844 715.317 189.455C715.836 189.065 716.356 188.546 716.745 187.897C717.134 187.249 717.394 186.6 717.524 185.691C717.783 184.134 717.524 182.837 716.615 181.669C715.707 180.501 714.149 179.333 711.943 178.425L704.935 175.181C703.508 174.532 702.34 174.013 701.431 173.494C700.523 172.975 699.615 172.456 698.576 171.807C697.538 171.158 696.76 170.639 696.111 169.99C695.462 169.471 694.943 168.822 694.424 168.044C693.905 167.265 693.515 166.486 693.256 165.708C692.996 164.929 692.866 164.021 692.866 162.983C692.866 161.945 692.866 160.907 693.126 159.609C693.385 158.441 693.645 157.533 694.164 156.495C694.553 155.586 695.202 154.678 695.851 154.029C696.5 153.38 697.279 152.732 698.057 152.213C698.836 151.693 699.744 151.174 700.783 150.915C701.821 150.526 702.859 150.266 703.897 150.136C705.065 150.007 706.103 149.877 707.401 149.877C708.569 149.877 709.867 149.877 711.165 150.136L712.852 140.923C712.981 140.015 713.371 139.366 714.02 138.977C714.669 138.587 715.317 138.458 716.096 138.587C716.875 138.717 717.524 139.106 718.043 139.755C718.562 140.404 718.692 141.183 718.562 142.091L716.875 151.304C718.432 151.693 719.859 152.342 721.287 152.991C722.715 153.64 723.882 154.289 724.791 154.808C725.699 155.327 726.478 155.976 727.386 156.624C728.684 157.533 729.203 158.701 728.944 160.128C728.944 160.388 728.814 160.777 728.684 161.036C728.554 161.296 728.295 161.555 728.165 161.815C727.905 162.075 727.646 162.204 727.386 162.334C727.127 162.464 726.867 162.594 726.478 162.594C726.089 162.594 725.829 162.594 725.44 162.594C725.31 162.594 725.05 162.464 724.921 162.464C724.791 162.464 724.531 162.334 724.402 162.204C724.272 162.075 724.012 162.075 723.882 161.945C723.882 161.945 723.493 161.685 722.844 161.296C722.195 160.907 721.676 160.517 721.287 160.388C721.027 160.258 720.379 159.869 719.6 159.479C718.821 159.09 718.172 158.83 717.524 158.571C716.875 158.311 716.226 158.052 715.317 157.792C714.409 157.533 713.63 157.273 712.852 157.144C711.165 156.884 709.607 156.754 708.18 156.754C706.752 156.884 705.584 157.273 704.546 157.922C703.508 158.571 702.859 159.609 702.6 160.907C702.34 162.464 702.599 163.761 703.378 164.67C704.157 165.578 705.974 166.616 708.569 167.784L715.447 170.898C719.859 172.975 722.974 175.181 724.661 177.646C726.348 180.112 726.867 183.096 726.218 186.47C725.44 190.622 723.493 193.477 720.379 195.294C717.264 197.111 713.371 197.889 708.829 197.5L707.142 206.583C707.012 207.492 706.493 208.141 705.844 208.53C705.195 208.919 704.416 209.049 703.638 208.919C703.119 208.789 702.729 208.66 702.34 208.4C701.951 208.141 701.691 207.751 701.431 207.232C701.172 206.713 701.172 206.194 701.302 205.545L702.859 196.462Z" fill="white"/>
</g>
</g>
</g>
<g opacity="0.4">
<path opacity="0.4" d="M819.469 285.197C828.974 268.506 823.147 247.272 806.455 237.768C789.763 228.265 768.527 234.091 759.022 250.782C749.518 267.472 755.345 288.707 772.037 298.21C788.729 307.714 809.965 301.887 819.469 285.197Z" fill="#5574D8"/>
<path opacity="0.4" d="M795.412 298.763C814.495 296.581 828.197 279.344 826.015 260.262C823.833 241.18 806.593 227.48 787.51 229.662C768.427 231.844 754.725 249.081 756.908 268.163C759.09 287.245 776.329 300.945 795.412 298.763Z" fill="#708CF5"/>
<path opacity="0.4" d="M791.495 294.693C784.877 294.693 778.258 292.487 772.678 288.075C759.571 277.694 757.364 258.618 767.876 245.512C778.258 232.406 797.335 230.2 810.442 240.711C823.549 251.092 825.755 270.167 815.244 283.273C809.274 290.8 800.449 294.693 791.495 294.693ZM791.495 235.521C782.93 235.521 774.495 239.284 768.784 246.421C758.792 258.878 760.868 277.175 773.456 287.166C785.915 297.158 804.213 295.082 814.206 282.495C824.198 270.038 822.122 251.741 809.534 241.749C804.213 237.467 797.854 235.521 791.495 235.521Z" fill="white"/>
<g opacity="0.4">
<g opacity="0.4">
<path opacity="0.4" d="M790.327 277.823C788.51 277.694 786.823 277.434 785.266 276.785C783.708 276.266 782.411 275.617 781.243 274.839C780.594 274.45 780.334 273.801 780.334 273.152C780.334 272.633 780.464 272.114 780.853 271.724C781.243 271.335 781.762 271.076 782.281 271.076C782.67 271.076 783.189 271.205 783.708 271.465C784.876 272.114 786.174 272.633 787.342 273.152C788.51 273.671 790.067 273.801 791.625 273.801C792.144 273.801 792.792 273.801 793.312 273.671C793.831 273.541 794.35 273.541 794.869 273.282C795.388 273.152 795.777 272.892 796.167 272.633C796.556 272.373 796.945 272.114 797.205 271.854C797.464 271.595 797.724 271.205 797.854 270.816C797.983 270.427 798.113 269.908 798.113 269.389C798.113 268.48 797.724 267.702 797.075 267.053C796.426 266.404 795.258 266.015 793.831 265.626L789.159 264.587C788.25 264.328 787.472 264.198 786.823 263.939C786.174 263.809 785.525 263.549 784.876 263.29C784.227 263.03 783.579 262.771 783.189 262.511C782.8 262.252 782.281 261.992 781.891 261.603C781.502 261.214 781.113 260.824 780.853 260.305C780.594 259.786 780.464 259.267 780.204 258.748C780.075 258.099 779.945 257.451 779.945 256.672C779.945 256.023 779.945 255.374 780.204 254.725C780.334 254.077 780.594 253.558 780.853 253.039C781.113 252.52 781.502 252.13 781.891 251.611C782.281 251.222 782.8 250.833 783.319 250.443C783.838 250.054 784.487 249.794 785.136 249.535C785.785 249.275 786.434 249.146 787.212 249.016C787.991 248.886 788.64 248.756 789.548 248.627L789.418 242.917C789.418 242.398 789.548 241.879 789.937 241.619C790.327 241.36 790.716 241.1 791.235 241.1C791.754 241.1 792.144 241.23 792.533 241.619C792.922 241.879 793.052 242.398 793.182 242.917L793.312 248.756C794.35 248.886 795.258 249.016 796.167 249.275C797.075 249.535 797.854 249.794 798.503 249.924C799.151 250.184 799.671 250.443 800.319 250.703C801.228 251.092 801.747 251.741 801.747 252.649C801.747 252.779 801.747 253.039 801.617 253.168C801.617 253.298 801.487 253.558 801.358 253.687C801.228 253.817 801.098 253.947 800.968 254.077C800.839 254.206 800.709 254.336 800.449 254.336C800.19 254.466 800.06 254.466 799.8 254.466C799.671 254.466 799.541 254.466 799.541 254.466C799.411 254.466 799.281 254.466 799.151 254.466C799.022 254.466 798.892 254.466 798.762 254.336C798.762 254.336 798.503 254.206 797.984 254.077C797.464 253.947 797.205 253.817 796.945 253.687C796.686 253.558 796.426 253.558 795.907 253.428C795.388 253.298 794.869 253.168 794.48 253.168C794.09 253.039 793.571 253.039 793.052 253.039C792.533 253.039 792.014 252.909 791.495 252.909C790.457 252.909 789.418 253.039 788.64 253.298C787.861 253.558 787.082 253.947 786.563 254.466C786.044 254.985 785.785 255.634 785.785 256.412C785.785 257.451 786.044 258.099 786.693 258.618C787.342 259.008 788.51 259.527 790.197 259.916L794.739 260.954C797.724 261.603 799.8 262.641 801.228 263.939C802.526 265.236 803.304 266.923 803.304 269.129C803.304 271.724 802.526 273.671 800.839 275.228C799.151 276.656 796.945 277.564 794.09 277.953L794.22 283.663C794.22 284.182 794.09 284.701 793.701 284.96C793.312 285.35 792.922 285.479 792.403 285.479C792.144 285.479 791.884 285.479 791.495 285.35C791.235 285.22 790.976 284.96 790.846 284.701C790.716 284.441 790.586 284.052 790.586 283.663L790.327 277.823Z" fill="white"/>
</g>
</g>
</g>
<g opacity="0.6">
<path opacity="0.6" d="M718.325 321.879C720.288 306.163 709.137 291.831 693.419 289.869C677.702 287.906 663.369 299.056 661.407 314.772C659.444 330.489 670.595 344.82 686.312 346.783C702.03 348.745 716.363 337.595 718.325 321.879Z" fill="#5574D8"/>
<path opacity="0.6" d="M720.923 317.09C721.704 301.27 709.513 287.813 693.692 287.031C677.871 286.25 664.413 298.441 663.631 314.26C662.85 330.079 675.041 343.537 690.862 344.318C706.683 345.099 720.141 332.909 720.923 317.09Z" fill="#708CF5"/>
<path opacity="0.6" d="M692.347 340.888C691.309 340.888 690.271 340.759 689.233 340.629C682.614 339.85 676.645 336.476 672.492 331.156C664.056 320.256 666.003 304.425 676.904 295.99C687.805 287.556 703.638 289.502 712.073 300.402C720.508 311.302 718.562 327.134 707.661 335.568C703.248 339.072 697.798 340.888 692.347 340.888ZM692.217 292.097C687.156 292.097 681.965 293.784 677.683 297.158C667.301 305.203 665.484 320.126 673.53 330.507C677.423 335.568 683.003 338.682 689.362 339.461C695.721 340.24 701.951 338.553 706.882 334.66C717.264 326.614 719.081 311.692 711.035 301.311C706.363 295.212 699.355 292.097 692.217 292.097Z" fill="white"/>
<g opacity="0.6">
<g opacity="0.6">
<path opacity="0.6" d="M688.584 326.355C687.156 325.966 685.858 325.317 684.69 324.538C683.523 323.76 682.614 322.981 681.836 322.203C681.446 321.684 681.316 321.164 681.446 320.645C681.576 320.256 681.835 319.867 682.225 319.607C682.614 319.348 683.003 319.218 683.523 319.348C683.912 319.478 684.171 319.607 684.561 319.867C685.339 320.645 686.248 321.294 687.156 321.943C688.065 322.592 689.233 322.981 690.401 323.241C690.92 323.37 691.309 323.37 691.698 323.5C692.088 323.5 692.607 323.5 692.996 323.5C693.385 323.5 693.775 323.37 694.164 323.241C694.553 323.111 694.813 322.981 695.072 322.722C695.332 322.592 695.592 322.332 695.851 321.943C696.111 321.684 696.241 321.294 696.241 320.905C696.37 320.126 696.241 319.478 695.851 318.829C695.462 318.18 694.683 317.661 693.515 317.012L690.011 315.195C689.362 314.806 688.714 314.547 688.324 314.287C687.935 314.027 687.416 313.768 686.897 313.379C686.378 312.989 685.988 312.73 685.729 312.47C685.469 312.211 685.08 311.822 684.82 311.432C684.561 311.043 684.301 310.654 684.301 310.264C684.171 309.875 684.171 309.356 684.171 308.837C684.171 308.318 684.171 307.799 684.431 307.15C684.561 306.631 684.691 306.112 684.95 305.593C685.21 305.074 685.469 304.685 685.859 304.425C686.248 304.165 686.637 303.776 687.027 303.517C687.416 303.257 687.935 302.998 688.454 302.868C688.973 302.738 689.492 302.608 690.011 302.479C690.53 302.349 691.179 302.349 691.828 302.349C692.477 302.349 693.126 302.479 693.775 302.479L694.813 297.807C694.943 297.288 695.202 297.028 695.462 296.769C695.851 296.639 696.111 296.509 696.5 296.639C696.889 296.769 697.149 296.899 697.409 297.288C697.668 297.677 697.668 298.067 697.668 298.456L696.63 303.127C697.408 303.387 698.187 303.646 698.836 304.036C699.485 304.425 700.134 304.685 700.523 305.074C700.912 305.333 701.431 305.723 701.821 305.982C702.47 306.501 702.729 307.15 702.6 307.799C702.6 307.929 702.47 308.058 702.47 308.188C702.34 308.318 702.34 308.448 702.21 308.577C702.08 308.707 701.951 308.707 701.821 308.837C701.691 308.967 701.561 308.967 701.302 308.967C701.172 308.967 700.912 308.967 700.783 308.967C700.653 308.967 700.653 308.967 700.523 308.837C700.393 308.837 700.393 308.707 700.264 308.707C700.134 308.707 700.134 308.577 700.004 308.577C700.004 308.577 699.744 308.448 699.485 308.188C699.096 307.929 698.836 307.799 698.706 307.669C698.576 307.539 698.317 307.41 697.928 307.15C697.538 306.89 697.149 306.761 696.889 306.631C696.63 306.501 696.241 306.371 695.851 306.242C695.462 306.112 694.943 305.982 694.553 305.852C693.645 305.593 692.866 305.593 692.218 305.593C691.439 305.593 690.92 305.723 690.271 306.112C689.752 306.371 689.362 306.891 689.233 307.539C689.103 308.318 689.103 308.967 689.492 309.486C689.882 310.005 690.79 310.524 692.088 311.173L695.592 312.86C697.798 314.027 699.355 315.195 700.134 316.493C700.912 317.791 701.172 319.218 700.783 321.035C700.264 323.111 699.225 324.538 697.668 325.447C695.981 326.355 694.034 326.615 691.698 326.355L690.66 330.897C690.53 331.286 690.271 331.675 690.011 331.805C689.622 332.065 689.233 332.065 688.843 331.935C688.584 331.935 688.324 331.805 688.194 331.675C688.065 331.546 687.805 331.286 687.805 331.027C687.675 330.767 687.675 330.507 687.805 330.118L688.584 326.355Z" fill="white"/>
</g>
</g>
</g>
<g opacity="0.4">
<path opacity="0.4" d="M666.962 88.2153C667.075 75.602 656.941 65.2853 644.326 65.1724C631.712 65.0595 621.395 75.1931 621.282 87.8063C621.169 100.42 631.303 110.736 643.917 110.849C656.532 110.962 666.849 100.829 666.962 88.2153Z" fill="#5574D8"/>
<path opacity="0.4" d="M668.712 88.7939C670.275 76.2777 661.395 64.8644 648.878 63.3017C636.361 61.7389 624.947 70.6184 623.384 83.1345C621.821 95.6507 630.701 107.064 643.218 108.627C655.735 110.189 667.15 101.31 668.712 88.7939Z" fill="#708CF5"/>
<path opacity="0.4" d="M646.018 106.276C645.239 106.276 644.331 106.276 643.422 106.146C638.101 105.498 633.3 102.773 630.055 98.4905C623.307 89.7963 624.864 77.0795 633.559 70.3318C642.254 63.5841 654.972 65.1413 661.72 73.8354C664.965 78.1176 666.522 83.3081 665.744 88.6284C665.095 93.9487 662.369 98.75 658.087 101.994C654.842 104.719 650.56 106.276 646.018 106.276ZM646.018 67.3472C641.995 67.3472 637.972 68.6449 634.468 71.2401C626.292 77.5986 624.864 89.407 631.223 97.5821C637.582 105.757 649.392 107.185 657.568 100.826C661.591 97.7119 664.056 93.2999 664.705 88.3689C665.354 83.4379 663.927 78.5069 660.942 74.4842C657.178 69.8127 651.598 67.3472 646.018 67.3472Z" fill="white"/>
<g opacity="0.4">
<g opacity="0.4">
<path opacity="0.4" d="M643.163 94.4678C641.995 94.0785 640.957 93.6892 640.048 93.0404C639.14 92.3916 638.361 91.8725 637.842 91.2237C637.453 90.8344 637.453 90.4451 637.453 90.0558C637.582 89.6666 637.712 89.407 637.972 89.2773C638.231 89.0177 638.621 89.0177 639.01 89.1475C639.269 89.1475 639.529 89.407 639.789 89.5368C640.437 90.1856 641.086 90.7047 641.865 91.2237C642.644 91.7428 643.422 92.0023 644.46 92.2618C644.85 92.3916 645.239 92.3916 645.499 92.3916C645.888 92.3916 646.147 92.3916 646.537 92.3916C646.926 92.3916 647.186 92.2618 647.445 92.2618C647.705 92.1321 647.964 92.0023 648.224 91.8725C648.483 91.7428 648.613 91.4832 648.873 91.2237C649.132 90.9642 649.132 90.7047 649.262 90.3154C649.392 89.6666 649.262 89.1475 649.003 88.6285C648.613 88.1094 648.094 87.7201 647.186 87.201L644.331 85.7737C643.812 85.5141 643.292 85.2546 642.903 84.9951C642.514 84.7355 642.124 84.6058 641.735 84.3463C641.346 84.0867 640.957 83.8272 640.827 83.5677C640.567 83.3082 640.308 83.0486 640.178 82.7891C639.918 82.5296 639.789 82.1403 639.789 81.8807C639.659 81.4915 639.659 81.2319 639.659 80.7129C639.659 80.3236 639.659 79.8045 639.789 79.4152C639.918 79.026 640.048 78.5069 640.178 78.2474C640.437 77.8581 640.567 77.5986 640.827 77.339C641.086 77.0795 641.346 76.82 641.735 76.5605C642.124 76.3009 642.514 76.1712 642.903 76.0414C643.292 75.9116 643.682 75.7819 644.201 75.7819C644.59 75.7819 645.109 75.6521 645.628 75.7819C646.147 75.7819 646.667 75.7819 647.186 75.9116L647.964 72.2783C648.094 71.889 648.224 71.6294 648.483 71.4997C648.743 71.3699 649.002 71.2401 649.392 71.3699C649.651 71.4997 649.911 71.6294 650.17 71.889C650.3 72.1485 650.43 72.408 650.3 72.7973L649.522 76.5605C650.17 76.82 650.69 76.9497 651.338 77.339C651.858 77.5986 652.377 77.8581 652.766 78.1176C653.155 78.3771 653.415 78.6367 653.804 78.8962C654.323 79.2855 654.453 79.8045 654.323 80.3236C654.323 80.4534 654.193 80.5831 654.193 80.7129C654.193 80.8426 654.064 80.9724 653.934 80.9724C653.804 81.1022 653.804 81.1022 653.674 81.2319C653.545 81.2319 653.415 81.3617 653.285 81.3617C653.155 81.3617 653.026 81.3617 652.896 81.3617C652.766 81.3617 652.766 81.3617 652.636 81.3617C652.636 81.3617 652.506 81.3617 652.377 81.2319C652.247 81.2319 652.247 81.1022 652.117 81.1022C652.117 81.1022 651.987 80.9724 651.728 80.8426C651.468 80.7129 651.209 80.5831 651.079 80.4534C650.949 80.3236 650.69 80.1938 650.43 80.0641C650.17 79.9343 649.781 79.8045 649.651 79.6748C649.392 79.545 649.132 79.4152 648.743 79.2855C648.354 79.1557 648.094 79.026 647.705 79.026C647.056 78.8962 646.407 78.7664 645.758 78.7664C645.239 78.7664 644.72 78.8962 644.201 79.1557C643.812 79.4152 643.552 79.8045 643.422 80.3236C643.292 80.9724 643.422 81.4915 643.682 81.8807C643.941 82.27 644.72 82.6593 645.758 83.1784L648.483 84.6058C650.3 85.5141 651.468 86.4225 652.117 87.4606C652.766 88.4987 652.896 89.6666 652.636 91.094C652.247 92.7809 651.468 93.9488 650.17 94.5976C648.873 95.2464 647.315 95.5059 645.499 95.2464L644.72 98.8798C644.59 99.269 644.46 99.5286 644.201 99.6583C643.941 99.7881 643.552 99.9179 643.292 99.7881C643.163 99.7881 642.903 99.6583 642.773 99.5286C642.644 99.3988 642.514 99.2691 642.384 99.0095C642.254 98.75 642.254 98.6202 642.384 98.3607L643.163 94.4678Z" fill="white"/>
</g>
</g>
</g>
<path d="M659.644 267.442C659.903 268.351 659.254 269.259 658.346 269.519C657.438 269.778 656.529 269.129 656.27 268.221C656.01 267.313 656.659 266.404 657.567 266.145C658.476 265.885 659.384 266.534 659.644 267.442Z" fill="#9BABE8"/>
<path d="M603.321 94.2084C603.451 94.8572 603.062 95.506 602.413 95.6358C601.764 95.7655 601.115 95.3762 600.985 94.7274C600.856 94.0786 601.245 93.4298 601.894 93.3C602.543 93.1702 603.191 93.5595 603.321 94.2084Z" fill="#9BABE8"/>
<path d="M761.517 347.896C761.776 348.804 761.127 349.712 760.219 349.972C759.311 350.231 758.402 349.583 758.143 348.674C757.883 347.766 758.532 346.858 759.44 346.598C760.349 346.339 761.387 346.987 761.517 347.896Z" fill="#9BABE8"/>
<path d="M714.668 52.684C714.928 53.5924 714.279 54.5007 713.37 54.7603C712.462 55.0198 711.554 54.371 711.294 53.4626C711.034 52.5543 711.683 51.6459 712.592 51.3864C713.63 51.1269 714.538 51.7757 714.668 52.684Z" fill="#9BABE8"/>
<path d="M608.642 48.7911C608.902 49.6994 608.253 50.6078 607.344 50.8673C606.436 51.1268 605.528 50.478 605.268 49.5697C605.009 48.6613 605.657 47.753 606.566 47.4935C607.474 47.2339 608.383 47.8827 608.642 48.7911Z" fill="#9BABE8"/>
<path d="M821.213 318.31C821.602 319.997 820.564 321.684 818.877 322.073C817.19 322.462 815.503 321.424 815.113 319.737C814.724 318.05 815.762 316.363 817.449 315.974C819.137 315.455 820.824 316.493 821.213 318.31Z" fill="#9BABE8"/>
<path d="M836.396 213.72C836.786 215.407 835.748 217.094 834.061 217.484C832.373 217.873 830.686 216.835 830.297 215.148C829.908 213.461 830.946 211.774 832.633 211.385C834.32 210.995 836.007 212.034 836.396 213.72Z" fill="#9BABE8"/>
<path d="M723.882 265.626C724.141 266.534 723.492 267.313 722.714 267.572C721.805 267.832 721.027 267.183 720.767 266.404C720.508 265.496 721.156 264.717 721.935 264.458C722.843 264.198 723.622 264.717 723.882 265.626Z" fill="#9987F2"/>
<path d="M745.684 306.242C745.943 307.15 745.295 307.929 744.516 308.188C743.608 308.448 742.829 307.799 742.569 307.02C742.31 306.112 742.959 305.333 743.737 305.074C744.646 304.944 745.554 305.463 745.684 306.242Z" fill="white"/>
<path d="M641.994 133.267C642.254 134.175 641.605 134.954 640.826 135.214C639.918 135.473 639.139 134.824 638.879 134.046C638.62 133.137 639.269 132.359 640.047 132.099C640.826 131.84 641.734 132.359 641.994 133.267Z" fill="white"/>
<path d="M845.87 282.106C846.129 283.014 845.481 283.793 844.702 284.052C843.794 284.312 843.015 283.663 842.755 282.884C842.496 282.106 843.145 281.197 843.923 280.938C844.832 280.678 845.74 281.197 845.87 282.106Z" fill="white"/>
<path d="M792.922 199.187L788.509 209.049L785.784 198.408L776.959 193.867L786.693 190.103L791.235 179.982L794.09 190.882L802.914 196.462L792.922 199.187Z" fill="#9987F2"/>
<path d="M557.252 48.1423L555.045 53.2031L553.618 47.753L549.076 45.4173L554.007 43.4708L556.343 38.2803L557.9 43.8601L562.313 46.7149L557.252 48.1423Z" fill="#9987F2"/>
<path d="M705.843 366.971L703.378 372.681L701.691 366.452L696.5 363.727L702.21 361.521L704.935 355.552L706.622 361.91L711.813 365.284L705.843 366.971Z" fill="white"/>
<path d="M812.907 149.617L810.312 155.327L808.754 149.098L803.434 146.373L809.273 144.167L811.869 138.328L813.556 144.686L818.747 147.93L812.907 149.617Z" fill="white"/>
<path d="M529.35 86.2927C529.609 87.201 528.961 87.9796 528.182 88.2391C527.274 88.4986 526.495 87.8498 526.235 87.0712C525.976 86.1629 526.625 85.3843 527.403 85.1248C528.312 84.8653 529.22 85.3843 529.35 86.2927Z" fill="#9BABE8"/>
<path d="M740.233 100.826C740.623 102.513 739.584 104.2 737.897 104.589C736.21 104.979 734.523 103.941 734.134 102.254C733.745 100.567 734.783 98.8798 736.47 98.4905C738.027 98.1012 739.844 99.1393 740.233 100.826Z" fill="#9BABE8"/>
<path d="M503.914 109.52L501.838 107.963C488.212 97.7118 478.219 87.72 471.081 74.4841C469.784 42.6921 419.95 13.1061 403.339 26.2122C402.82 26.6015 386.339 16.8692 363.498 23.4871C362.849 21.2812 361.941 19.0752 360.773 16.999C353.376 3.24404 339.101 -3.50365 328.849 1.94641C323.658 4.80121 320.413 10.2513 319.505 16.7394C308.863 16.999 299.779 21.93 296.016 30.3646C290.176 43.4707 299.26 60.0804 316.26 67.6067C316.909 67.8662 317.688 68.1257 318.337 68.515C311.589 80.8426 302.115 90.5748 289.397 100.567L287.321 102.254C258.9 124.703 259.289 164.54 279.404 182.707L285.244 188.027C286.153 188.806 287.061 189.584 287.97 190.363C291.473 193.088 293.161 197.111 292.382 201.133C291.084 208.659 291.344 216.575 293.42 224.491C301.466 254.206 333.91 274.839 370.117 273.022C374.789 272.763 379.461 272.244 383.873 271.335C395.553 277.823 409.309 281.846 424.233 282.235C460.44 283.273 492.494 261.992 499.891 232.017C501.838 223.972 501.968 216.056 500.54 208.53C499.762 204.507 501.319 200.484 504.823 197.63C505.731 196.851 506.64 196.072 507.548 195.164L513.258 189.714C533.243 171.158 532.854 131.321 503.914 109.52Z" fill="#121936"/>
<path opacity="0.33" d="M503.914 109.52L502.876 108.742C517.54 131.71 513.517 161.166 496.517 175.829L490.547 181.02C489.639 181.799 488.73 182.577 487.692 183.356C484.188 185.951 482.372 189.844 482.891 193.996C483.929 201.523 483.54 209.438 481.204 217.354C474.455 239.932 453.562 256.672 427.866 262.122C417.614 260.435 408.011 257.061 399.575 252.39C395.163 253.298 390.491 253.817 385.819 254.077C379.331 254.336 372.972 253.947 366.872 252.909C365.704 252.26 364.407 251.481 363.239 250.833C361.941 250.962 360.643 251.222 359.345 251.352C334.688 244.864 314.962 227.735 308.993 205.545C306.787 197.5 306.657 189.714 307.955 182.188C308.604 178.165 306.916 174.142 303.542 171.417C302.634 170.639 301.596 169.86 300.817 169.082L294.977 163.761C279.794 150.006 275.771 124.184 286.801 102.643C258.9 125.092 259.419 164.54 279.404 182.707L285.244 188.027C286.153 188.806 287.061 189.584 287.969 190.363C291.473 193.088 293.16 197.111 292.382 201.133C291.084 208.66 291.344 216.575 293.42 224.491C296.145 234.353 301.466 243.306 308.863 250.703C309.382 251.222 310.031 251.871 310.68 252.39L310.81 252.52C311.329 253.039 311.978 253.558 312.627 254.077C312.756 254.206 312.756 254.206 312.886 254.336C313.535 254.855 314.054 255.374 314.703 255.893C314.833 255.893 314.833 256.023 314.962 256.023C318.207 258.618 321.841 260.954 325.604 263.03C325.734 263.16 325.993 263.29 326.123 263.29C326.642 263.549 327.291 263.939 327.94 264.198C328.199 264.328 328.459 264.458 328.719 264.588C329.238 264.847 329.887 265.107 330.406 265.366C330.795 265.496 331.054 265.626 331.444 265.755C331.963 266.015 332.482 266.274 333.001 266.404C333.39 266.534 333.78 266.664 334.169 266.923C334.688 267.183 335.207 267.313 335.726 267.572C336.116 267.702 336.505 267.832 336.894 267.961C337.413 268.091 337.933 268.351 338.452 268.48C338.841 268.61 339.36 268.74 339.749 268.87C340.268 269 340.788 269.129 341.177 269.389C341.696 269.519 342.345 269.778 342.864 269.908C343.513 270.038 344.162 270.297 344.811 270.427C345.459 270.557 346.108 270.816 346.757 270.946C347.147 271.076 347.536 271.076 348.055 271.205C348.574 271.335 349.223 271.465 349.872 271.595C350.261 271.725 350.78 271.725 351.17 271.854C351.689 271.984 352.338 271.984 352.857 272.114C353.246 272.244 353.765 272.244 354.154 272.244C354.803 272.373 355.322 272.373 355.971 272.503C356.361 272.503 356.88 272.633 357.269 272.633C357.918 272.633 358.437 272.763 359.086 272.763C359.475 272.763 359.994 272.892 360.384 272.892C361.032 272.892 361.681 272.892 362.33 273.022C362.719 273.022 363.109 273.022 363.628 273.022C364.277 273.022 365.055 273.022 365.704 273.022C366.094 273.022 366.353 273.022 366.742 273.022C367.781 273.022 368.819 273.022 369.987 272.892C374.659 272.633 379.331 272.114 383.743 271.205C395.423 277.694 409.179 281.716 424.103 282.106C425.141 282.106 426.179 282.106 427.217 282.106C427.607 282.106 427.866 282.106 428.256 282.106C428.904 282.106 429.683 282.106 430.332 282.106C430.721 282.106 431.111 282.106 431.5 282.106C432.149 282.106 432.798 281.976 433.447 281.976C433.836 281.976 434.225 281.846 434.615 281.846C435.263 281.846 435.912 281.716 436.561 281.587C436.95 281.587 437.34 281.457 437.729 281.457C438.378 281.327 439.157 281.327 439.806 281.197C440.065 281.197 440.454 281.068 440.714 281.068C441.752 280.938 442.661 280.678 443.699 280.548C443.958 280.548 444.218 280.419 444.477 280.419C445.256 280.289 445.905 280.159 446.554 279.9C446.943 279.77 447.332 279.64 447.722 279.64C448.241 279.51 448.89 279.381 449.409 279.251C449.798 279.121 450.317 278.991 450.707 278.862C451.226 278.732 451.745 278.602 452.264 278.342C452.653 278.213 453.172 278.083 453.562 277.953C454.081 277.823 454.6 277.564 455.119 277.434C455.508 277.304 456.027 277.175 456.417 276.915C456.936 276.785 457.455 276.526 457.844 276.396C458.233 276.266 458.753 276.007 459.142 275.877C459.921 275.488 460.829 275.228 461.608 274.839C462.127 274.579 462.516 274.45 463.035 274.19C463.424 274.06 463.814 273.801 464.203 273.671C464.722 273.411 465.112 273.152 465.631 272.892C466.02 272.763 466.409 272.503 466.669 272.373C467.188 272.114 467.577 271.854 468.096 271.595C468.486 271.465 468.745 271.205 469.135 271.076C469.654 270.816 470.173 270.557 470.562 270.167C470.822 270.038 471.081 269.778 471.341 269.648C471.86 269.259 472.379 268.999 472.898 268.61C473.028 268.48 473.158 268.48 473.287 268.351C475.104 267.053 476.921 265.755 478.738 264.328C478.868 264.198 478.997 264.068 479.257 263.939C479.776 263.549 480.295 263.03 480.684 262.641C480.814 262.511 481.074 262.382 481.204 262.122C481.723 261.733 482.112 261.214 482.631 260.824C482.761 260.695 482.891 260.565 483.15 260.435C483.669 259.916 484.059 259.527 484.578 259.008C484.708 258.878 484.708 258.878 484.837 258.748C487.043 256.412 488.99 254.077 490.807 251.481C490.937 251.352 490.937 251.222 491.066 251.222C491.456 250.703 491.845 250.054 492.234 249.535C492.364 249.405 492.364 249.275 492.494 249.146C492.883 248.627 493.273 247.978 493.532 247.459C493.662 247.329 493.662 247.199 493.792 247.069C494.181 246.421 494.441 245.772 494.83 245.123C496.906 241.1 498.593 236.818 499.761 232.406C501.708 224.361 501.838 216.445 500.41 208.919C499.632 204.896 501.189 200.874 504.693 198.019C505.601 197.24 506.51 196.462 507.418 195.553L513.128 190.103C533.243 171.158 532.854 131.321 503.914 109.52Z" fill="#363950"/>
<path d="M373.361 199.057L398.018 200.874L433.058 199.057L497.945 202.95C497.945 202.95 585.802 208.4 583.855 338.423C583.855 340.499 582.428 342.446 580.352 342.965L507.808 357.758C509.884 402.786 511.831 456.767 512.09 473.377L499.372 473.247L396.591 472.598L285.115 473.247C285.634 456.248 286.542 403.305 289.138 357.628L222.693 345.56C220.617 345.171 219.059 343.354 218.93 341.278C209.456 176.738 373.361 199.057 373.361 199.057Z" fill="#6432A4"/>
<path opacity="0.6" d="M373.361 217.483L398.019 218.651L433.058 217.354L497.945 220.079C497.945 220.079 545.961 222.155 570.229 260.046C545.961 205.805 497.945 202.82 497.945 202.82L433.058 198.927L398.019 200.744L373.361 198.927C373.361 198.927 271.359 185.043 232.945 259.916C271.359 207.751 373.361 217.483 373.361 217.483Z" fill="#5A289A"/>
<path d="M464.333 141.572L459.661 96.4141C451.745 84.2164 430.981 81.102 423.325 72.2781C417.225 65.2709 415.408 57.2256 415.019 51.1267L414.37 57.7446C411.385 87.8497 389.713 110.299 365.705 108.093V108.482L357.918 108.742C347.406 109.131 339.101 118.085 339.49 128.595V128.985C339.88 139.496 348.834 147.8 359.346 147.411L364.407 147.281L362.331 216.964C362.46 235.78 381.018 246.421 400.225 246.291H401.003C420.21 246.161 435.783 230.589 435.653 211.774L435.523 186.729C454.081 180.501 466.539 161.945 464.333 141.572Z" fill="#FF9C9C"/>
<path d="M356.75 134.824C356.361 134.824 355.972 134.565 355.712 134.175C355.323 133.526 355.452 132.748 356.101 132.359L361.033 129.115L355.323 122.756C354.804 122.237 354.933 121.458 355.452 120.939C355.972 120.42 356.75 120.55 357.269 121.069L364.018 128.466C364.277 128.725 364.407 129.115 364.277 129.504C364.277 129.893 364.017 130.153 363.758 130.412L357.529 134.435C357.139 134.694 357.01 134.824 356.75 134.824Z" fill="#FF6969"/>
<path d="M452.264 119.253C452.783 121.459 451.356 123.664 449.15 124.054C446.943 124.573 444.737 123.145 444.348 120.939C443.829 118.733 445.256 116.527 447.463 116.138C449.669 115.749 451.875 117.047 452.264 119.253Z" fill="#121936"/>
<path d="M415.668 118.733C415.538 120.939 413.721 122.756 411.385 122.626C409.179 122.497 407.362 120.68 407.492 118.344C407.622 116.138 409.439 114.321 411.774 114.451C413.981 114.581 415.797 116.398 415.668 118.733Z" fill="#121936"/>
<path d="M425.79 149.228C419.172 149.228 414.111 147.411 410.996 144.037C406.973 139.625 407.362 134.305 407.362 134.046C407.492 133.007 408.4 132.229 409.439 132.229C410.477 132.359 411.256 133.267 411.256 134.305C411.256 134.435 410.996 138.328 413.851 141.442C416.317 144.037 420.34 145.335 425.79 145.335C425.79 145.335 425.79 145.335 425.92 145.335C426.958 145.335 427.867 146.243 427.867 147.281C427.867 148.32 426.958 149.228 425.79 149.228Z" fill="#FF6969"/>
<path d="M435.134 169.082C435.004 169.082 434.745 169.082 434.615 169.082C434.485 168.952 430.332 167.395 427.348 170.639C427.088 170.898 426.569 171.028 426.309 170.639C426.05 170.379 425.92 169.86 426.18 169.601C429.813 165.448 435.134 167.654 435.134 167.654C435.523 167.784 435.653 168.303 435.523 168.692C435.523 168.822 435.264 168.952 435.134 169.082Z" fill="#FF6969"/>
<path d="M396.851 104.33C398.278 104.719 400.095 104.2 401.782 103.811C403.469 103.421 405.156 103.032 406.713 102.773C408.271 102.513 409.958 102.254 411.645 101.994C413.332 101.734 415.149 101.605 416.317 100.696C417.485 99.9178 417.744 98.2308 415.798 96.6737C413.981 95.1165 409.828 93.8189 404.897 94.7272C399.965 95.6356 396.591 98.3606 395.553 100.567C394.515 102.513 395.423 103.94 396.851 104.33Z" fill="#121936"/>
<path d="M455.12 104.07C454.081 104.459 452.913 104.07 451.745 103.811C450.577 103.551 449.409 103.292 448.371 103.162C447.333 103.032 446.165 102.902 444.867 102.773C443.699 102.643 442.402 102.643 441.623 101.994C440.844 101.475 440.585 100.177 441.883 98.7499C443.051 97.4523 445.906 96.1547 449.409 96.6737C452.913 97.1928 455.249 99.1392 455.898 100.826C456.677 102.643 456.028 103.811 455.12 104.07Z" fill="#121936"/>
<path d="M407.622 122.886C407.622 122.886 411.126 120.161 414.76 123.145L407.622 122.886Z" fill="#FF9C9C"/>
<path d="M414.76 124.443C414.5 124.443 414.111 124.313 413.981 124.184C411.256 121.978 408.66 123.664 408.401 123.924C407.882 124.313 406.973 124.184 406.584 123.664C406.194 123.145 406.324 122.237 406.843 121.848C408.401 120.68 412.164 119.253 415.668 122.107C416.187 122.626 416.317 123.405 415.798 123.924C415.408 124.313 415.149 124.443 414.76 124.443Z" fill="#FF6969"/>
<path d="M444.218 123.924C444.218 123.924 448.241 121.458 451.875 124.573L444.218 123.924Z" fill="#FF9C9C"/>
<path d="M451.875 125.87C451.615 125.87 451.226 125.741 450.966 125.611C448.111 123.145 444.997 124.962 444.867 125.092C444.218 125.481 443.439 125.222 443.05 124.703C442.661 124.054 442.791 123.275 443.439 122.886C445.126 121.848 449.149 120.68 452.653 123.664C453.172 124.184 453.302 124.962 452.783 125.481C452.524 125.741 452.134 125.87 451.875 125.87Z" fill="#FF6969"/>
<path d="M435.264 187.119C435.264 187.119 397.24 190.493 390.362 177.127C383.484 163.891 390.362 177.127 390.362 177.127C390.362 177.127 389.453 197.889 435.783 206.843L435.264 187.119Z" fill="#FF6969"/>
<path d="M430.592 138.068C430.462 138.068 430.202 138.068 430.072 138.068L426.569 137.938C425.53 137.938 424.622 137.03 424.752 135.862C424.752 134.824 425.66 133.916 426.828 134.046L430.332 134.175C434.615 134.305 438.118 131.061 438.378 126.779C438.378 126.26 437.989 125.741 437.34 125.741C432.927 125.611 429.553 121.848 429.813 117.436L430.202 108.871C430.202 107.833 431.111 106.925 432.279 107.055C433.317 107.055 434.225 107.963 434.095 109.131L433.706 117.695C433.576 119.901 435.393 121.848 437.599 121.848C440.325 121.978 442.401 124.313 442.271 127.038C441.882 133.137 436.691 138.068 430.592 138.068Z" fill="#FF6969"/>
<path d="M348.574 144.686C348.315 148.709 351.429 152.212 355.452 152.342C359.475 152.472 362.979 149.487 363.109 145.465C363.368 141.442 360.254 137.938 356.231 137.809C352.338 137.679 348.834 140.663 348.574 144.686Z" fill="white"/>
<path d="M315.612 224.491L264.61 211.125L264.87 210.736L225.678 201.263C202.319 197.111 178.44 206.064 163.776 224.75L154.821 236.169C150.279 242.009 148.851 249.535 150.928 256.672C151.187 257.58 151.577 258.489 151.966 259.397C151.577 259.267 145.996 351.399 160.012 405.9C178.829 478.957 291.474 454.302 291.474 454.302L295.497 357.758L253.19 347.896L229.312 302.608C234.762 302.349 239.953 300.921 243.976 297.158C260.068 282.495 228.793 261.863 228.793 261.863C241.9 265.107 246.831 280.289 246.831 280.289C246.831 280.289 251.633 283.922 258.122 271.854C264.61 259.786 242.419 242.917 242.419 242.917L248.908 247.848C254.488 252.13 258.381 258.229 259.938 265.107L260.198 266.274L262.534 264.588C268.893 259.916 271.748 251.611 269.282 244.085C267.725 239.413 264.74 235.391 261.885 232.406L289.657 240.192L300.558 242.787C309.253 244.864 318.207 240.971 321.322 233.704C323.139 229.811 320.284 225.399 315.612 224.491Z" fill="#FF9C9C"/>
<path d="M253.19 347.896C253.19 347.896 266.687 386.176 266.557 384.878C266.557 383.581 262.145 349.972 262.145 349.972L253.19 347.896Z" fill="#FF6969"/>
<path d="M221.655 258.878C224.77 259.137 227.625 260.046 230.35 261.214C233.075 262.511 235.671 264.198 237.877 266.145C238.915 267.183 240.083 268.221 241.121 269.389C241.641 269.908 242.16 270.557 242.549 271.076L243.847 272.892C244.366 273.541 244.755 274.06 245.015 274.709L246.183 276.655C246.832 277.953 247.48 279.381 248.129 280.678C248.389 281.327 248.129 282.106 247.48 282.365C246.832 282.625 246.053 282.365 245.793 281.716V281.587C245.144 280.289 244.625 278.991 243.977 277.694L242.938 275.877C242.549 275.228 242.289 274.709 241.77 274.06L240.602 272.373C240.213 271.854 239.694 271.335 239.305 270.686C238.396 269.519 237.358 268.61 236.45 267.702C234.373 265.885 232.037 264.198 229.442 263.03C226.976 261.862 224.121 260.954 221.526 260.695H221.396C220.877 260.695 220.487 260.176 220.487 259.657C220.617 259.137 221.006 258.748 221.655 258.878Z" fill="#FF6969"/>
<path d="M238.915 241.49C241.9 242.268 244.625 243.566 247.091 245.253C249.557 246.94 251.763 249.016 253.71 251.222C254.618 252.39 255.526 253.558 256.305 254.855C256.694 255.504 257.084 256.153 257.473 256.802L258.511 258.748C258.901 259.397 259.16 260.046 259.42 260.824L260.198 262.901C260.717 264.328 261.107 265.755 261.496 267.183C261.756 267.832 261.366 268.61 260.588 268.74C259.939 268.999 259.16 268.61 259.03 267.832V267.702C258.641 266.404 258.381 264.977 257.862 263.549L257.084 261.603C256.824 260.954 256.565 260.305 256.305 259.656L255.397 257.71C255.137 257.061 254.748 256.542 254.358 255.893C253.71 254.596 252.801 253.558 252.022 252.39C250.335 250.184 248.259 248.237 245.923 246.55C243.717 244.863 241.121 243.566 238.526 242.787H238.396C238.007 242.657 237.747 242.268 237.877 241.879C238.137 241.619 238.526 241.36 238.915 241.49Z" fill="#FF6969"/>
<path d="M303.413 224.361L303.673 227.864C303.802 230.07 305.619 232.017 307.696 232.276C310.551 232.666 314.184 232.276 316.001 228.384" fill="#FF9C9C"/>
<path d="M309.383 233.574C308.864 233.574 308.215 233.574 307.566 233.444C304.841 233.055 302.505 230.719 302.375 227.864L302.115 224.361C302.115 223.582 302.634 223.063 303.283 222.933C303.932 222.933 304.581 223.453 304.711 224.101L304.97 227.605C305.1 229.162 306.398 230.59 307.955 230.849C311.459 231.238 313.795 230.2 314.963 227.735C315.222 227.086 316.001 226.826 316.65 227.086C317.299 227.345 317.558 228.124 317.299 228.773C315.742 231.887 313.016 233.574 309.383 233.574Z" fill="#FF6969"/>
<path d="M229.052 302.349C229.052 302.349 216.724 308.058 200.502 300.272C200.502 300.272 213.869 319.088 233.984 311.821L229.052 302.349Z" fill="#FF6969"/>
<path d="M521.888 151.924C536.828 148.786 546.574 134.985 543.656 121.098C540.738 107.212 526.262 98.4993 511.322 101.638C496.383 104.776 486.637 118.577 489.555 132.464C492.473 146.35 506.949 155.063 521.888 151.924Z" fill="#5A289A"/>
<path d="M517.882 148.943C532.822 145.805 542.567 132.003 539.65 118.117C536.732 104.231 522.256 95.5179 507.316 98.6564C492.377 101.795 482.631 115.596 485.549 129.482C488.466 143.369 502.942 152.082 517.882 148.943Z" fill="#6432A4"/>
<path d="M513.518 144.556C506.769 144.556 500.281 141.702 496.128 136.252C492.883 131.969 491.586 126.649 492.364 121.329C493.273 115.619 496.517 110.688 501.449 107.314C511.311 100.567 525.068 102.513 532.075 111.597C535.32 115.879 536.618 121.199 535.839 126.519C534.93 132.229 531.686 137.16 526.755 140.534C522.602 143.259 518.06 144.556 513.518 144.556ZM514.686 104.589C510.403 104.589 505.991 105.887 502.227 108.352C497.555 111.597 494.441 116.268 493.662 121.588C492.883 126.519 494.051 131.45 497.166 135.473C503.655 144.037 516.632 145.854 525.976 139.496C530.648 136.252 533.762 131.58 534.541 126.26C535.32 121.329 534.152 116.398 531.037 112.375C527.144 107.314 520.915 104.589 514.686 104.589Z" fill="white"/>
<path d="M515.724 133.137C514.426 133.397 513.128 133.527 511.831 133.527C510.663 133.527 509.495 133.267 508.586 133.007C508.067 132.878 507.678 132.488 507.548 132.099C507.418 131.71 507.418 131.321 507.678 131.061C507.937 130.801 508.197 130.412 508.586 130.412C508.846 130.282 509.235 130.282 509.625 130.412C510.663 130.672 511.571 130.672 512.609 130.802C513.648 130.802 514.686 130.672 515.724 130.282C516.113 130.153 516.503 130.023 516.892 129.893C517.281 129.763 517.541 129.504 517.93 129.374C518.19 129.115 518.579 128.985 518.709 128.725C518.968 128.466 519.098 128.206 519.228 127.947C519.358 127.687 519.487 127.428 519.487 127.038C519.487 126.779 519.487 126.39 519.358 126C519.098 125.351 518.709 124.962 518.19 124.703C517.541 124.443 516.762 124.313 515.594 124.443L512.09 124.703C511.441 124.703 510.792 124.703 510.273 124.832C509.754 124.832 509.365 124.832 508.716 124.832C508.197 124.832 507.678 124.703 507.418 124.703C507.029 124.573 506.64 124.443 506.25 124.313C505.861 124.184 505.601 123.924 505.342 123.665C505.082 123.405 504.823 123.145 504.563 122.756C504.304 122.367 504.174 121.978 504.044 121.459C503.914 120.939 503.785 120.55 503.785 120.161C503.785 119.772 503.785 119.253 503.914 118.863C504.044 118.474 504.174 118.085 504.434 117.695C504.693 117.306 504.953 116.917 505.212 116.657C505.601 116.268 505.861 116.008 506.38 115.749C506.769 115.489 507.289 115.23 507.678 114.97C508.197 114.711 508.716 114.451 509.235 114.322L508.067 110.558C507.937 110.169 507.937 109.78 508.197 109.52C508.327 109.261 508.586 109.001 508.976 108.871C509.365 108.742 509.624 108.742 510.014 108.871C510.403 109.001 510.533 109.261 510.663 109.65L511.831 113.543C512.609 113.413 513.258 113.283 514.037 113.283C514.815 113.283 515.335 113.283 515.854 113.283C516.373 113.283 516.762 113.413 517.281 113.413C518.06 113.543 518.449 113.802 518.709 114.451C518.709 114.581 518.709 114.711 518.709 114.841C518.709 114.97 518.709 115.1 518.579 115.23C518.579 115.36 518.449 115.489 518.449 115.619C518.319 115.749 518.319 115.879 518.19 115.879C518.06 116.008 517.93 116.008 517.8 116.138C517.671 116.138 517.67 116.138 517.541 116.138C517.411 116.138 517.411 116.138 517.281 116.138C517.151 116.138 517.151 116.138 517.022 116.138C517.022 116.138 516.762 116.138 516.503 116.138C516.113 116.138 515.854 116.138 515.724 116.138C515.594 116.138 515.335 116.138 514.815 116.138C514.296 116.138 514.037 116.138 513.777 116.268C513.518 116.268 513.128 116.398 512.739 116.398C512.35 116.528 511.96 116.528 511.571 116.657C510.792 116.917 510.144 117.176 509.625 117.436C509.105 117.825 508.586 118.214 508.327 118.604C508.067 119.123 507.937 119.512 508.197 120.161C508.457 120.81 508.716 121.199 509.235 121.459C509.754 121.588 510.663 121.718 511.96 121.588L515.464 121.329C517.671 121.199 519.487 121.459 520.655 121.978C521.823 122.497 522.732 123.535 523.121 124.962C523.64 126.649 523.51 128.206 522.602 129.504C521.694 130.801 520.266 131.969 518.319 132.748L519.487 136.511C519.617 136.9 519.617 137.16 519.358 137.549C519.098 137.809 518.838 138.068 518.579 138.198C518.319 138.198 518.19 138.328 517.93 138.198C517.671 138.198 517.541 138.068 517.281 137.938C517.151 137.809 517.022 137.549 516.892 137.29L515.724 133.137Z" fill="white"/>
<path d="M639.139 196.851C637.582 186.989 635.636 177.257 633.3 167.525C629.666 152.083 626.292 135.603 618.505 121.718C617.208 116.008 613.314 110.948 607.994 107.963C601.764 105.498 584.504 90.9641 584.504 90.9641C582.168 88.8879 578.664 89.1474 577.237 91.7427C575.68 94.4677 575.68 97.8416 576.718 100.826C568.672 96.2844 561.405 91.7427 561.405 91.7427C558.03 89.5367 553.618 90.5748 552.45 93.8189C550.893 97.8416 551.671 102.513 554.137 106.276C548.946 103.551 545.183 101.215 545.183 101.215C541.679 99.0094 536.877 100.567 535.19 104.2C532.075 111.207 534.801 118.993 541.549 122.756L550.114 127.298C563.351 133.137 570.099 143.908 570.619 155.846C570.878 164.021 565.168 173.234 556.473 174.791L554.007 175.051C549.206 175.57 544.274 174.013 540.77 170.509C536.877 166.746 534.022 162.074 532.595 156.884L531.167 151.953C528.961 146.114 522.213 142.869 515.724 144.427C512.609 145.205 510.533 147.93 510.792 150.915L513.388 178.035C514.167 186.6 519.358 194.256 527.404 198.408L563.221 217.224C563.092 217.224 562.962 217.354 562.962 217.354L547.648 345.43L507.808 357.628L511.831 454.172C511.831 454.172 624.475 478.827 643.292 405.77C650.56 377.352 649.521 346.209 648.613 317.142C647.575 283.403 646.277 249.535 641.865 215.926C641.216 209.698 640.178 203.209 639.139 196.851Z" fill="#FF9C9C"/>
<path d="M551.931 108.482L549.725 110.429C548.297 111.726 546.091 111.856 544.663 110.688C542.717 109.261 540.64 106.795 541.938 103.421" fill="#FF9C9C"/>
<path d="M547 112.375C545.961 112.375 544.923 112.116 544.145 111.467C541.03 109.131 539.992 106.146 541.03 103.032C541.16 102.513 541.809 102.254 542.328 102.383C542.847 102.513 543.106 103.162 542.977 103.681C542.198 106.017 542.977 108.093 545.442 109.91C546.61 110.688 548.297 110.688 549.335 109.65L551.542 107.704C551.931 107.314 552.58 107.314 552.969 107.833C553.359 108.223 553.359 108.871 552.839 109.261L550.633 111.207C549.465 111.986 548.297 112.375 547 112.375Z" fill="#FF6969"/>
<path d="M569.191 98.6201L566.985 100.567C565.557 101.864 563.351 101.994 561.924 100.826C559.977 99.3987 557.901 96.9332 559.198 93.5593" fill="#FF9C9C"/>
<path d="M564.26 102.643C563.222 102.643 562.183 102.383 561.405 101.734C558.29 99.3987 557.252 96.4141 558.29 93.2998C558.42 92.7808 559.069 92.5212 559.588 92.651C560.107 92.7808 560.367 93.4296 560.237 93.9486C559.458 96.2844 560.237 98.3606 562.703 100.177C563.87 100.956 565.558 100.956 566.596 99.9177L568.802 97.9713C569.191 97.582 569.84 97.582 570.229 98.101C570.619 98.4903 570.619 99.1391 570.1 99.5284L567.893 101.475C566.726 102.124 565.558 102.643 564.26 102.643Z" fill="#FF6969"/>
<path d="M588.138 96.4142L586.451 97.3225C585.283 97.9713 583.855 97.7118 583.077 96.6737C582.039 95.3761 581.26 93.5594 582.558 91.4832" fill="#FF9C9C"/>
<path d="M585.024 98.6202C583.985 98.6202 582.947 98.2309 582.298 97.3225C580.611 95.2463 580.352 92.9106 581.779 90.9641C582.039 90.5748 582.688 90.4451 583.077 90.7046C583.466 90.9641 583.596 91.6129 583.336 92.0022C583.077 92.5213 582.039 93.8189 583.856 96.0249C584.375 96.5439 585.283 96.8035 585.932 96.4142L587.749 95.5058C588.268 95.2463 588.787 95.3761 589.047 95.8951C589.306 96.4142 589.176 96.9332 588.657 97.1928L586.97 98.1011C586.191 98.4904 585.672 98.6202 585.024 98.6202Z" fill="#FF6969"/>
<path d="M576.848 100.567C583.596 104.33 590.734 108.093 594.627 109.001C601.894 111.856 607.734 117.566 610.459 124.573" fill="#FF9C9C"/>
<path d="M610.459 125.481C610.07 125.481 609.681 125.222 609.551 124.832C606.826 118.085 601.245 112.635 594.238 109.91C590.863 109.131 584.894 106.276 576.329 101.345C575.81 101.086 575.68 100.437 575.939 100.047C576.199 99.5284 576.848 99.3987 577.237 99.6582C585.543 104.33 591.642 107.314 594.757 107.963H594.886C602.413 110.948 608.383 116.787 611.238 124.054C611.498 124.573 611.238 125.092 610.719 125.351C610.719 125.481 610.589 125.481 610.459 125.481Z" fill="#FF6969"/>
<path d="M554.526 106.017C554.526 106.017 570.618 115.749 579.573 117.176C587.1 119.772 592.94 125.351 595.405 132.618L599.558 145.205" fill="#FF9C9C"/>
<path d="M599.428 146.243C599.039 146.243 598.65 145.984 598.52 145.594L594.367 133.007C592.031 126 586.581 120.68 579.184 118.214C570.229 116.657 554.656 107.314 553.877 106.925C553.358 106.665 553.229 106.017 553.488 105.627C553.748 105.108 554.397 104.979 554.786 105.238C554.916 105.368 570.878 114.841 579.443 116.268H579.573C587.489 118.863 593.459 124.703 596.054 132.359L600.207 144.946C600.337 145.465 600.077 145.984 599.558 146.113C599.688 146.243 599.558 146.243 599.428 146.243Z" fill="#FF6969"/>
<path d="M513.647 164.799L517.281 163.891C519.617 163.372 521.174 161.166 520.915 158.96C520.525 155.976 519.098 152.342 514.426 151.174" fill="#FF9C9C"/>
<path d="M513.647 165.838C513.258 165.838 512.869 165.578 512.739 165.059C512.609 164.54 512.869 164.021 513.518 163.891L517.151 162.983C518.968 162.594 520.266 160.907 520.006 159.09C519.487 155.197 517.541 152.991 514.296 152.212C513.777 152.083 513.388 151.564 513.518 151.045C513.647 150.526 514.167 150.136 514.686 150.266C519.877 151.434 521.434 155.586 521.823 158.83C522.213 161.555 520.266 164.151 517.541 164.799L513.907 165.708C513.777 165.838 513.647 165.838 513.647 165.838Z" fill="#FF6969"/>
<path d="M563.092 217.094C563.092 217.094 575.55 228.124 591.772 220.338C591.772 220.338 581.52 238.765 561.405 231.498L563.092 217.094Z" fill="#FF6969"/>
<path d="M547.649 345.43C547.649 345.43 541.03 384.619 541.03 383.321C541.03 382.023 539.083 348.025 539.083 348.025L547.649 345.43Z" fill="#FF6969"/>
<path d="M524.678 291.968H287.97V276.655C287.97 268.999 294.199 262.771 301.856 262.771H514.296C520.007 262.771 524.678 267.442 524.678 273.152V291.968Z" fill="#F4F8FE"/>
<path d="M482.372 291.968H330.146V287.037C330.146 279.381 336.376 273.152 344.032 273.152H472.12C477.83 273.152 482.502 277.823 482.502 283.533V291.968H482.372Z" fill="#5574D8"/>
<path d="M415.149 239.803H396.851C372.064 239.803 351.949 259.916 351.949 284.701C351.949 288.334 354.804 291.189 358.437 291.189H453.562C457.196 291.189 460.051 288.334 460.051 284.701C460.051 259.916 439.936 239.803 415.149 239.803Z" fill="#3A0C74"/>
<path d="M408.66 250.184H403.209C380.888 250.184 362.72 268.351 362.72 290.67V291.189H449.02V290.67C449.15 268.351 431.111 250.184 408.66 250.184Z" fill="#F4F8FE"/>
<path d="M526.106 344.003H284.207V504.39H526.106V344.003Z" fill="#D8BDFB"/>
<g opacity="0.82">
<g opacity="0.82">
<path opacity="0.82" d="M299.909 402.915H284.596C284.077 402.915 283.688 402.526 283.688 402.007V396.168C283.688 395.649 284.077 395.259 284.596 395.259H299.909C300.428 395.259 300.818 395.649 300.818 396.168V402.007C300.818 402.526 300.428 402.915 299.909 402.915ZM284.726 402.007H299.78V396.427H284.726V402.007Z" fill="#5574D8"/>
<path opacity="0.82" d="M292.383 396.297H284.466C284.207 396.297 283.947 396.038 283.947 395.778C283.947 395.519 284.207 395.259 284.466 395.259H292.253V389.679H284.596C284.337 389.679 284.077 389.42 284.077 389.16C284.077 388.901 284.337 388.641 284.596 388.641H292.383C292.902 388.641 293.291 389.031 293.291 389.55V395.389C293.161 395.908 292.772 396.297 292.383 396.297Z" fill="#5574D8"/>
<path opacity="0.82" d="M292.383 409.533H284.466C284.207 409.533 283.947 409.274 283.947 409.014C283.947 408.755 284.207 408.495 284.466 408.495H292.253V402.915H284.596C284.337 402.915 284.077 402.656 284.077 402.396C284.077 402.137 284.337 401.877 284.596 401.877H292.383C292.902 401.877 293.291 402.266 293.291 402.786V408.625C293.161 409.144 292.772 409.533 292.383 409.533Z" fill="#5574D8"/>
</g>
<g opacity="0.82">
<path opacity="0.82" d="M525.457 489.208H510.144C509.625 489.208 509.235 488.819 509.235 488.3V482.46C509.235 481.941 509.625 481.552 510.144 481.552H525.457C525.976 481.552 526.366 481.941 526.366 482.46V488.3C526.236 488.819 525.846 489.208 525.457 489.208ZM510.274 488.17H525.327V482.59H510.274V488.17Z" fill="#5574D8"/>
<path opacity="0.82" d="M525.457 495.826H517.671C517.152 495.826 516.762 495.437 516.762 494.918V489.078C516.762 488.559 517.152 488.17 517.671 488.17H525.587C525.846 488.17 526.106 488.429 526.106 488.689C526.106 488.948 525.846 489.208 525.587 489.208H517.8V494.788H525.457C525.717 494.788 525.976 495.047 525.976 495.307C525.976 495.566 525.717 495.826 525.457 495.826Z" fill="#5574D8"/>
<path opacity="0.82" d="M525.457 482.59H517.671C517.152 482.59 516.762 482.201 516.762 481.682V475.842C516.762 475.323 517.152 474.934 517.671 474.934H525.587C525.846 474.934 526.106 475.194 526.106 475.453C526.106 475.713 525.846 475.972 525.587 475.972H517.8V481.552H525.457C525.717 481.552 525.976 481.812 525.976 482.071C525.976 482.331 525.717 482.59 525.457 482.59Z" fill="#5574D8"/>
</g>
<g opacity="0.82">
<path opacity="0.82" d="M429.554 491.154H414.24C413.721 491.154 413.332 490.765 413.332 490.246V484.407C413.332 483.888 413.721 483.498 414.24 483.498H429.554C430.073 483.498 430.462 483.888 430.462 484.407V490.246C430.333 490.765 429.943 491.154 429.554 491.154ZM414.37 490.246H429.424V484.666H414.37V490.246Z" fill="#5574D8"/>
</g>
<g opacity="0.82">
<path opacity="0.82" d="M437.211 484.407H421.897C421.378 484.407 420.989 484.017 420.989 483.498V477.659C420.989 477.14 421.378 476.751 421.897 476.751H437.211C437.73 476.751 438.119 477.14 438.119 477.659V483.498C438.119 484.017 437.73 484.407 437.211 484.407ZM422.027 483.498H437.081V477.919H422.027V483.498Z" fill="#5574D8"/>
</g>
<g opacity="0.82">
<path opacity="0.82" d="M437.081 497.772H421.768C421.249 497.772 420.859 497.383 420.859 496.864V491.025C420.859 490.505 421.249 490.116 421.768 490.116H437.081C437.6 490.116 437.99 490.505 437.99 491.025V496.864C437.99 497.383 437.6 497.772 437.081 497.772ZM421.898 496.864H436.951V491.284H421.898V496.864Z" fill="#5574D8"/>
</g>
<g opacity="0.82">
<path opacity="0.82" d="M515.594 367.879H500.281C499.762 367.879 499.373 367.49 499.373 366.971V361.131C499.373 360.612 499.762 360.223 500.281 360.223H515.594C516.113 360.223 516.503 360.612 516.503 361.131V366.971C516.503 367.49 516.113 367.879 515.594 367.879ZM500.411 366.841H515.465V361.261H500.411V366.841Z" fill="#5574D8"/>
</g>
<g opacity="0.82">
<path opacity="0.82" d="M507.938 374.627H492.624C492.105 374.627 491.716 374.238 491.716 373.719V367.879C491.716 367.36 492.105 366.971 492.624 366.971H507.938C508.457 366.971 508.846 367.36 508.846 367.879V373.719C508.716 374.238 508.327 374.627 507.938 374.627ZM492.754 373.589H507.808V368.009H492.754V373.589Z" fill="#5574D8"/>
</g>
<g opacity="0.82">
<path opacity="0.82" d="M508.067 361.261H492.754C492.235 361.261 491.846 360.872 491.846 360.353V354.514C491.846 353.995 492.235 353.605 492.754 353.605H508.067C508.587 353.605 508.976 353.995 508.976 354.514V360.353C508.846 360.872 508.457 361.261 508.067 361.261ZM492.884 360.223H507.938V354.643H492.884V360.223Z" fill="#5574D8"/>
</g>
</g>
<path d="M529.87 521H280.443C278.367 521 276.68 519.313 276.68 517.237V507.375C276.68 505.299 278.367 503.612 280.443 503.612H529.87C531.946 503.612 533.633 505.299 533.633 507.375V517.237C533.633 519.313 531.946 521 529.87 521Z" fill="#5A289A"/>
<path d="M532.465 521H277.848C277.199 521 276.68 520.481 276.68 519.832V516.069C276.68 515.42 277.199 514.901 277.848 514.901H532.465C533.114 514.901 533.633 515.42 533.633 516.069V519.832C533.633 520.481 533.114 521 532.465 521Z" fill="#3A0C74"/>
<path d="M426.829 300.662H383.744V346.209H426.829V300.662Z" fill="#F4F8FE"/>
<path d="M383.743 346.209H340.658L345.46 300.662H383.743V346.209Z" fill="#5A289A"/>
<path d="M340.009 346.209H296.924L301.726 300.662H344.811L340.009 346.209Z" fill="#F4F8FE"/>
<path d="M297.703 346.209H254.618L268.374 300.662H302.504L297.703 346.209Z" fill="#5A289A"/>
<path d="M297.054 346.468C297.054 353.605 287.451 359.315 275.641 359.315C263.832 359.315 254.229 353.475 254.229 346.468" fill="#6432A4"/>
<path d="M340.01 346.468C340.01 353.605 330.406 359.315 318.597 359.315C306.787 359.315 297.184 353.605 297.184 346.468" fill="white"/>
<path d="M383.095 346.468C383.095 353.605 373.491 359.315 361.682 359.315C349.872 359.315 340.269 353.475 340.269 346.468" fill="#6432A4"/>
<path d="M426.569 346.209H469.654L464.852 300.662H426.569V346.209Z" fill="#5A289A"/>
<path d="M470.303 346.209H513.388L508.586 300.662H465.372L470.303 346.209Z" fill="#F4F8FE"/>
<path d="M512.609 346.209H555.694L541.938 300.662H507.808L512.609 346.209Z" fill="#5A289A"/>
<path d="M513.258 346.468C513.258 353.605 522.862 359.315 534.671 359.315C546.481 359.315 556.084 353.475 556.084 346.468" fill="#6432A4"/>
<path d="M470.303 346.468C470.303 353.605 479.907 359.315 491.716 359.315C503.525 359.315 513.129 353.475 513.129 346.468" fill="white"/>
<path d="M427.218 346.468C427.218 353.605 436.821 359.315 448.631 359.315C460.44 359.315 470.043 353.475 470.043 346.468" fill="#6432A4"/>
<path d="M425.92 346.468C425.92 353.605 416.317 359.315 404.508 359.315C392.698 359.315 383.095 353.475 383.095 346.468" fill="white"/>
<path d="M539.084 302.997H272.527C268.893 302.997 266.038 300.143 266.038 296.509V295.731C266.038 292.097 268.893 289.243 272.527 289.243H539.084C542.717 289.243 545.572 292.097 545.572 295.731V296.509C545.572 300.143 542.717 302.997 539.084 302.997Z" fill="#8C5ACB"/>
<path d="M393.606 490.246H310.551C309.253 490.246 308.085 489.208 308.085 487.781V368.658C308.085 367.36 309.123 366.192 310.551 366.192H393.606C394.904 366.192 396.072 367.23 396.072 368.658V487.781C396.072 489.078 394.904 490.246 393.606 490.246Z" fill="#6432A4"/>
<path d="M387.637 373.978H317.299V414.205H387.637V373.978Z" fill="#F4F8FE"/>
<path opacity="0.35" d="M336.505 413.686C336.246 413.686 336.116 413.556 335.986 413.426C335.727 413.167 335.856 412.777 336.116 412.518L387.247 373.459C387.507 373.199 387.896 373.329 388.156 373.589C388.415 373.848 388.285 374.238 388.026 374.497L336.895 413.556C336.765 413.556 336.635 413.686 336.505 413.686Z" fill="#BBC7F9"/>
<path opacity="0.35" d="M316.78 413.686C316.65 413.686 316.39 413.556 316.261 413.426C316.001 413.167 316.131 412.777 316.39 412.518L364.147 373.459C364.407 373.199 364.796 373.329 365.056 373.589C365.315 373.848 365.186 374.238 364.926 374.497L317.169 413.556C317.169 413.556 317.039 413.686 316.78 413.686Z" fill="#BBC7F9"/>
<path d="M387.637 426.013H317.299V482.201H387.637V426.013Z" fill="#F4F8FE"/>
<path opacity="0.35" d="M336.505 481.292C336.376 481.292 336.246 481.292 336.116 481.163C335.856 480.903 335.856 480.514 336.116 480.254L387.247 425.624C387.507 425.364 387.896 425.364 388.156 425.624C388.415 425.883 388.415 426.273 388.156 426.532L337.024 481.163C336.765 481.292 336.635 481.292 336.505 481.292Z" fill="#BBC7F9"/>
<path opacity="0.35" d="M316.78 481.292C316.65 481.292 316.52 481.292 316.39 481.163C316.131 480.903 316.131 480.514 316.39 480.254L364.147 425.624C364.407 425.364 364.796 425.364 365.056 425.624C365.315 425.883 365.315 426.273 365.056 426.532L317.299 481.163C317.169 481.292 317.039 481.292 316.78 481.292Z" fill="#BBC7F9"/>
<path d="M403.469 503.352H300.558C299.13 503.352 297.962 502.184 297.962 500.757V492.582C297.962 491.154 299.13 489.987 300.558 489.987H403.469C404.897 489.987 406.065 491.154 406.065 492.582V500.757C406.065 502.184 404.897 503.352 403.469 503.352Z" fill="#3A0C74"/>
<path d="M369.598 400.19H334.818C334.169 400.19 333.65 399.671 333.65 399.022V389.679C333.65 389.031 334.169 388.511 334.818 388.511H369.468C370.117 388.511 370.636 389.031 370.636 389.679V399.022C370.636 399.671 370.117 400.19 369.598 400.19Z" fill="#BBC7F9"/>
<path d="M505.083 465.851H416.447C414.63 465.851 413.202 464.423 413.202 462.606V381.764C413.202 379.947 414.63 378.52 416.447 378.52H505.083C506.899 378.52 508.327 379.947 508.327 381.764V462.606C508.327 464.423 506.899 465.851 505.083 465.851Z" fill="#6432A4"/>
<path d="M511.831 470.781H411.775C410.607 470.781 409.698 469.873 409.698 468.705V462.996C409.698 461.828 410.607 460.919 411.775 460.919H511.831C512.999 460.919 513.907 461.828 513.907 462.996V468.705C513.777 469.873 512.869 470.781 511.831 470.781Z" fill="#3A0C74"/>
<path d="M501.838 387.473H419.691V453.523H501.838V387.473Z" fill="#F4F8FE"/>
<path opacity="0.35" d="M431.111 453.263C431.111 453.263 430.981 453.263 430.852 453.263C430.462 453.134 430.332 452.744 430.462 452.485L451.226 387.344C451.356 386.954 451.745 386.825 452.005 386.954C452.394 387.084 452.524 387.473 452.394 387.733L431.63 452.874C431.63 453.134 431.371 453.263 431.111 453.263Z" fill="#BBC7F9"/>
<path opacity="0.35" d="M446.295 453.263C446.295 453.263 446.165 453.263 446.035 453.263C445.646 453.134 445.516 452.744 445.646 452.485L466.41 387.344C466.54 386.954 466.929 386.825 467.188 386.954C467.578 387.084 467.707 387.473 467.578 387.733L446.814 452.874C446.814 453.134 446.684 453.263 446.295 453.263Z" fill="#BBC7F9"/>
<path d="M247.74 414.335C246.961 414.335 246.442 413.815 246.442 413.037V391.366C246.442 380.596 236.709 371.902 224.64 371.902C212.571 371.902 202.838 380.596 202.838 391.366V412.388C202.838 413.167 202.319 413.686 201.54 413.686C200.761 413.686 200.242 413.167 200.242 412.388V391.366C200.242 379.169 211.143 369.307 224.64 369.307C238.136 369.307 249.037 379.169 249.037 391.366V413.037C249.037 413.815 248.518 414.335 247.74 414.335Z" fill="#5A289A"/>
<path d="M182.333 404.992L171.562 521H279.275L263.313 404.343L182.333 404.992Z" fill="#5A289A"/>
<path d="M150.149 404.992L139.118 521H247.22L231.128 404.343L150.149 404.992Z" fill="#6432A4"/>
<path d="M216.204 414.335C215.425 414.335 214.906 413.815 214.906 413.037V391.366C214.906 380.596 205.173 371.902 193.104 371.902C181.035 371.902 171.302 380.596 171.302 391.366V412.388C171.302 413.167 170.783 413.686 170.004 413.686C169.226 413.686 168.707 413.167 168.707 412.388V391.366C168.707 379.169 179.608 369.307 193.104 369.307C206.601 369.307 217.502 379.169 217.502 391.366V413.037C217.502 413.815 216.983 414.335 216.204 414.335Z" fill="#5A289A"/>
<path d="M215.945 447.294H172.73C170.783 447.294 169.096 445.607 169.096 443.661V431.204C169.096 429.257 170.783 427.57 172.73 427.57H215.945C217.891 427.57 219.578 429.257 219.578 431.204V443.661C219.578 445.607 217.891 447.294 215.945 447.294ZM172.73 430.166C172.211 430.166 171.692 430.685 171.692 431.204V443.661C171.692 444.18 172.211 444.699 172.73 444.699H215.945C216.464 444.699 216.983 444.18 216.983 443.661V431.204C216.983 430.685 216.464 430.166 215.945 430.166H172.73Z" fill="#5A289A"/>
<path d="M143.531 428.998C142.752 428.998 142.233 428.479 142.233 427.7V409.274C142.233 400.19 133.927 392.794 123.805 392.794C113.683 392.794 105.377 400.19 105.377 409.274V427.181C105.377 427.96 104.858 428.479 104.079 428.479C103.301 428.479 102.781 427.96 102.781 427.181V409.274C102.781 398.763 112.125 390.198 123.805 390.198C135.355 390.198 144.828 398.763 144.828 409.274V427.7C144.828 428.349 144.309 428.998 143.531 428.998Z" fill="#3A0C74"/>
<path d="M87.7278 422.12L78.6436 521H170.524L156.768 421.601L87.7278 422.12Z" fill="#3A0C74"/>
<path d="M60.3452 422.12L51.0015 521H143.012L129.385 421.601L60.3452 422.12Z" fill="#3A0C74"/>
<path d="M116.667 428.998C115.889 428.998 115.37 428.479 115.37 427.7V409.274C115.37 400.19 107.064 392.794 96.9417 392.794C86.8193 392.794 78.5137 400.19 78.5137 409.274V427.181C78.5137 427.96 77.9946 428.479 77.216 428.479C76.4373 428.479 75.9182 427.96 75.9182 427.181V409.274C75.9182 398.763 85.262 390.198 96.9417 390.198C108.492 390.198 117.965 398.763 117.965 409.274V427.7C117.965 428.349 117.446 428.998 116.667 428.998Z" fill="#3A0C74"/>
<path d="M116.018 458.324H79.9411C77.9944 458.324 76.3074 456.637 76.3074 454.691V444.699C76.3074 442.753 77.9944 441.066 79.9411 441.066H116.148C118.095 441.066 119.782 442.753 119.782 444.699V454.691C119.652 456.637 118.095 458.324 116.018 458.324ZM79.9411 443.661C79.422 443.661 78.9029 444.18 78.9029 444.699V454.691C78.9029 455.21 79.422 455.729 79.9411 455.729H116.148C116.667 455.729 117.186 455.21 117.186 454.691V444.699C117.186 444.18 116.667 443.661 116.148 443.661H79.9411Z" fill="#3A0C74"/>
<path d="M639.529 414.335C638.751 414.335 638.231 413.815 638.231 413.037V391.366C638.231 380.596 628.498 371.902 616.429 371.902C604.36 371.902 594.627 380.596 594.627 391.366V412.388C594.627 413.167 594.108 413.686 593.329 413.686C592.551 413.686 592.032 413.167 592.032 412.388V391.366C592.032 379.169 602.933 369.307 616.429 369.307C629.926 369.307 640.827 379.169 640.827 391.366V413.037C640.827 413.815 640.308 414.335 639.529 414.335Z" fill="#5A289A"/>
<path d="M574.123 404.992L563.352 521H671.064L655.102 404.343L574.123 404.992Z" fill="#5A289A"/>
<path d="M541.939 404.992L530.908 521H639.01L622.918 404.343L541.939 404.992Z" fill="#6432A4"/>
<path d="M607.994 414.335C607.215 414.335 606.696 413.815 606.696 413.037V391.366C606.696 380.596 596.963 371.902 584.894 371.902C572.825 371.902 563.092 380.596 563.092 391.366V412.388C563.092 413.167 562.573 413.686 561.794 413.686C561.016 413.686 560.497 413.167 560.497 412.388V391.366C560.497 379.169 571.398 369.307 584.894 369.307C598.391 369.307 609.292 379.169 609.292 391.366V413.037C609.292 413.815 608.773 414.335 607.994 414.335Z" fill="#5A289A"/>
<path d="M607.734 447.294H564.519C562.573 447.294 560.886 445.607 560.886 443.661V431.204C560.886 429.257 562.573 427.57 564.519 427.57H607.734C609.681 427.57 611.368 429.257 611.368 431.204V443.661C611.368 445.607 609.681 447.294 607.734 447.294ZM564.519 430.166C564 430.166 563.481 430.685 563.481 431.204V443.661C563.481 444.18 564 444.699 564.519 444.699H607.734C608.253 444.699 608.773 444.18 608.773 443.661V431.204C608.773 430.685 608.253 430.166 607.734 430.166H564.519Z" fill="#5A289A"/>
<path d="M732.447 428.998C731.669 428.998 731.15 428.479 731.15 427.7V409.274C731.15 400.19 722.844 392.794 712.722 392.794C702.599 392.794 694.294 400.19 694.294 409.274V427.181C694.294 427.96 693.775 428.479 692.996 428.479C692.217 428.479 691.698 427.96 691.698 427.181V409.274C691.698 398.763 701.042 390.198 712.722 390.198C724.272 390.198 733.745 398.763 733.745 409.274V427.7C733.745 428.349 733.096 428.998 732.447 428.998Z" fill="#3A0C74"/>
<path d="M676.515 422.12L667.431 521H759.311L745.555 421.601L676.515 422.12Z" fill="#3A0C74"/>
<path d="M649.132 422.12L639.789 521H731.929L718.172 421.601L649.132 422.12Z" fill="#3A0C74"/>
<path d="M705.455 428.998C704.676 428.998 704.157 428.479 704.157 427.7V409.274C704.157 400.19 695.851 392.794 685.729 392.794C675.607 392.794 667.301 400.19 667.301 409.274V427.181C667.301 427.96 666.782 428.479 666.003 428.479C665.225 428.479 664.706 427.96 664.706 427.181V409.274C664.706 398.763 674.049 390.198 685.729 390.198C697.279 390.198 706.752 398.763 706.752 409.274V427.7C706.752 428.349 706.233 428.998 705.455 428.998Z" fill="#3A0C74"/>
<path d="M704.935 458.324H668.728C666.782 458.324 665.095 456.637 665.095 454.691V444.699C665.095 442.753 666.782 441.066 668.728 441.066H704.935C706.882 441.066 708.569 442.753 708.569 444.699V454.691C708.569 456.637 706.882 458.324 704.935 458.324ZM668.728 443.661C668.209 443.661 667.69 444.18 667.69 444.699V454.691C667.69 455.21 668.209 455.729 668.728 455.729H704.935C705.455 455.729 705.974 455.21 705.974 454.691V444.699C705.974 444.18 705.455 443.661 704.935 443.661H668.728Z" fill="#3A0C74"/>
</svg>
