<svg width="64" height="65" viewBox="0 0 64 65" fill="none" xmlns="http://www.w3.org/2000/svg">
<path d="M48.5188 39.9637C48.5188 44.5677 44.7412 48.3453 40.1372 48.3453H24.0823C19.4783 48.3453 15.7007 44.5677 15.7007 39.9637V23.9088C15.7007 19.3049 19.4783 15.5272 24.0823 15.5272H40.1372C44.7412 15.5272 48.5188 19.3049 48.5188 23.9088V39.9637ZM52.2964 23.9088C52.2964 17.1799 46.8661 11.7496 40.1372 11.7496H24.0823C17.3534 11.7496 11.9231 17.1799 11.9231 23.9088V39.9637C11.9231 46.6926 17.3534 52.1229 24.0823 52.1229H40.1372C46.8661 52.1229 52.2964 46.6926 52.2964 39.9637V23.9088ZM32.2278 38.5471C28.6863 38.5471 25.8531 35.7139 25.8531 32.1724C25.8531 28.6309 28.6863 25.7976 32.2278 25.7976C35.7693 25.7976 38.6025 28.6309 38.6025 32.1724C38.6025 35.7139 35.7693 38.5471 32.2278 38.5471ZM32.2278 22.2561C26.7975 22.2561 22.3116 26.742 22.3116 32.1724C22.3116 37.6027 26.7975 42.0886 32.2278 42.0886C37.6581 42.0886 42.144 37.6027 42.144 32.1724C42.144 26.742 37.7762 22.2561 32.2278 22.2561ZM42.7343 19.1868C41.4357 19.1868 40.3733 20.2493 40.3733 21.5478C40.3733 22.8464 41.4357 23.9088 42.7343 23.9088C44.0329 23.9088 45.0953 22.8464 45.0953 21.5478C45.0953 20.2493 44.0329 19.1868 42.7343 19.1868ZM31.9917 3.24999C16.0549 3.24999 3.06931 16.2355 3.06931 32.1724C3.06931 48.1092 16.0549 61.0947 31.9917 61.0947C47.9285 61.0947 60.9141 48.1092 60.9141 32.1724C60.9141 16.2355 47.9285 3.24999 31.9917 3.24999ZM31.9917 64.1641C14.2841 64.1641 0 49.7619 0 32.1724C0 14.4648 14.4022 0.180664 31.9917 0.180664C49.5812 0.180664 63.9834 14.5828 63.9834 32.1724C63.9834 49.7619 49.5812 64.1641 31.9917 64.1641Z" fill="#BF6575"/>
</svg>
