<svg width="64" height="64" viewBox="0 0 64 64" fill="none" xmlns="http://www.w3.org/2000/svg">
<path d="M32 3.41176C16.2353 3.41176 3.41176 16.2353 3.41176 32C3.41176 47.7647 16.2353 60.5882 32 60.5882C47.7647 60.5882 60.5882 47.7647 60.5882 32C60.5882 16.2353 47.7647 3.41176 32 3.41176ZM32 64C14.3529 64 0 49.6471 0 32C0 14.3529 14.3529 0 32 0C49.6471 0 64 14.3529 64 32C64 49.6471 49.6471 64 32 64Z" fill="#BF6576"/>
<path d="M15.9998 46.9411H22.1175C22.4704 46.9411 22.7057 46.7058 22.7057 46.3529V25.647C22.7057 25.294 22.4704 25.0587 22.1175 25.0587H15.8822C15.5292 25.0587 15.2939 25.294 15.2939 25.647V46.3529C15.4116 46.7058 15.5292 46.9411 15.9998 46.9411ZM48.8234 34.4705V46.4705C48.8234 46.8234 48.5881 47.0587 48.2351 47.0587H42.1175C41.7645 47.0587 41.5292 46.8234 41.5292 46.4705V35.294C41.5292 32.3528 40.4704 30.3528 37.8822 30.3528C35.8822 30.3528 34.7057 31.647 34.1175 33.0587C33.8822 33.5293 33.8822 34.1176 33.8822 34.8234V46.4705C33.8822 46.8234 33.6469 47.0587 33.2939 47.0587H27.0587C26.7057 47.0587 26.4704 46.8234 26.4704 46.4705C26.4704 43.5293 26.5881 29.1764 26.4704 25.7646C26.4704 25.4117 26.7057 25.1764 27.0587 25.1764H33.1763C33.5292 25.1764 33.7645 25.4117 33.7645 25.7646V28.3528C33.7645 28.3528 33.7645 28.3528 33.7645 28.4705V28.3528C34.7057 26.8234 36.4704 24.7058 40.3528 24.7058C45.2939 24.5881 48.8234 27.7646 48.8234 34.4705Z" fill="#BF6576"/>
<path d="M18.9409 22.3531C21.0851 22.3531 22.8233 20.6149 22.8233 18.4707C22.8233 16.3266 21.0851 14.5884 18.9409 14.5884C16.7968 14.5884 15.0586 16.3266 15.0586 18.4707C15.0586 20.6149 16.7968 22.3531 18.9409 22.3531Z" fill="#BF6576"/>
</svg>
