<svg width="65" height="65" viewBox="0 0 65 65" fill="none" xmlns="http://www.w3.org/2000/svg">
<path d="M32.2686 3.60413C16.4498 3.60413 3.58228 16.4716 3.58228 32.2904C3.58228 48.1092 16.4498 60.9767 32.2686 60.9767C48.0873 60.9767 60.9548 48.1092 60.9548 32.2904C60.9548 16.4716 48.0873 3.60413 32.2686 3.60413ZM32.2686 64.4002C14.561 64.4002 0.158813 49.998 0.158813 32.2904C0.158813 14.5828 14.561 0.180664 32.2686 0.180664C49.9761 0.180664 64.3783 14.5828 64.3783 32.2904C64.3783 49.998 49.9761 64.4002 32.2686 64.4002Z" fill="#BF6575"/>
<path d="M51.9722 27.6752C51.9722 27.2092 51.9386 26.7432 51.905 26.2772C51.7371 24.2801 51.5356 22.0167 50.1921 20.419C49.0502 19.0543 47.3038 18.7547 45.6245 18.555C43.5086 18.322 41.3927 18.1889 39.2768 18.089C34.9779 17.9226 30.6789 18.0224 26.38 18.1223C24.1633 18.1556 21.9803 18.2222 19.7636 18.3886C17.0768 18.5883 14.2892 18.9877 13.0129 21.6838C11.871 24.0804 12.039 27.1426 12.0054 29.7056C12.0054 32.0355 11.9718 34.3322 12.0725 36.6622C12.2069 39.6579 12.3748 43.5855 15.6326 44.8837C17.3791 45.5827 19.495 45.7491 21.3422 45.8489C23.3237 45.9821 25.3053 45.9488 27.2868 45.9821C31.4514 46.0487 35.5824 45.9155 39.747 45.8157C42.6354 45.7491 45.5909 45.7158 48.3449 44.7838C50.7295 43.985 51.3341 41.422 51.6699 39.1919C52.0058 36.9951 51.905 34.7649 51.905 32.5348C51.9722 30.9704 52.0393 29.3062 51.9722 27.6752ZM27.9585 38.0269C27.9585 33.9994 27.9585 30.0384 27.9585 25.9776C31.4178 27.9747 34.81 29.9719 38.3029 32.0023C34.8435 33.9994 31.4178 35.9965 27.9585 38.0269Z" fill="#BF6575"/>
</svg>
