<svg width="936" height="604" viewBox="0 0 936 604" fill="none" xmlns="http://www.w3.org/2000/svg">
<g clip-path="url(#clip0)">
<path d="M505.733 112.359L437.869 102.119L436.487 96.5845L512.782 103.918L505.733 112.359Z" fill="#F7EAB5"/>
<path d="M127.574 244.782L124.809 336.662L117.622 339.43L115.411 236.757L127.574 244.782Z" fill="#F7EAB5"/>
<path d="M149.274 193.308L280.441 140.587L286.937 145.707L142.363 209.774L149.274 193.308Z" fill="#F7EAB5"/>
<path d="M676.707 118.171L744.018 155.67L743.327 162.174L665.926 124.121L676.707 118.171Z" fill="#F7EAB5"/>
<path d="M790.735 348.424L796.955 271.35L803.174 269.413L800.686 355.758L790.735 348.424Z" fill="#F7EAB5"/>
<path d="M710.984 408.617C698.821 453.035 723.7 536.197 810.914 538.826C898.129 541.455 929.227 482.785 908.91 424.115C888.592 365.444 827.224 337.77 788.662 343.581C750.099 349.531 718.033 383.156 710.984 408.617Z" fill="#F7EAB5"/>
<path opacity="0.35" d="M738.074 387.169L756.18 471.3L819.76 462.167L803.589 374.438L738.074 387.169Z" fill="#8777C8"/>
<path d="M741.115 383.848L759.222 467.841L822.801 458.846L806.63 371.118L741.115 383.848Z" fill="#BCB3E0"/>
<path opacity="0.6" d="M741.115 383.848L759.222 467.841L822.801 458.846L806.63 371.118L741.115 383.848Z" fill="white"/>
<path opacity="0.5" d="M741.115 383.848L741.806 387.446L803.865 375.407L819.346 459.262L822.801 458.846L806.63 371.118L741.115 383.848Z" fill="white"/>
<path opacity="0.35" d="M777.881 360.048L774.011 440.996L829.712 451.789L835.932 368.073L777.881 360.048Z" fill="#8777C8"/>
<path d="M781.198 357.972L777.328 438.921L832.891 449.714L839.249 365.998L781.198 357.972Z" fill="#BCB3E0"/>
<path opacity="0.6" d="M781.198 357.972L777.328 438.921L832.891 449.714L839.249 365.998L781.198 357.972Z" fill="white"/>
<path opacity="0.5" d="M781.198 357.972L781.06 361.432L836.07 369.042L829.988 449.022L832.891 449.714L839.249 365.998L781.198 357.972Z" fill="white"/>
<path opacity="0.35" d="M803.866 393.672L775.531 466.457L828.192 491.502L859.981 416.919L803.866 393.672Z" fill="#8777C8"/>
<path d="M807.874 392.565L779.54 465.488L832.2 490.534L863.99 415.951L807.874 392.565Z" fill="#BCB3E0"/>
<path opacity="0.6" d="M807.874 392.565L779.54 465.488L832.2 490.534L863.99 415.951L807.874 392.565Z" fill="white"/>
<path opacity="0.5" d="M807.874 392.565L806.63 395.748L859.843 417.888L829.436 489.15L832.2 490.534L863.99 415.951L807.874 392.565Z" fill="white"/>
<path d="M877.811 365.167C872.697 357.28 836.069 356.45 815.337 365.167C794.605 373.885 782.856 383.571 785.206 394.364C787.556 405.296 793.775 411.107 788.385 418.164C794.052 422.315 796.816 423.561 796.816 423.561C796.816 423.561 800.824 419.271 798.475 406.126C796.125 392.98 790.32 385.37 823.215 375.96C856.111 366.551 878.916 369.457 881.957 381.219C884.307 377.898 877.811 365.167 877.811 365.167Z" fill="#4F37AD"/>
<path opacity="0.4" d="M881.958 381.357C883.893 378.451 879.608 369.042 878.226 366.136C869.103 361.016 852.379 361.57 821.695 376.514C822.248 376.376 822.663 376.237 823.216 376.099C856.249 366.551 879.055 369.595 881.958 381.357Z" fill="#1D262D"/>
<path d="M871.591 473.099C871.591 473.099 872.697 491.364 867.169 510.183C861.64 529.002 847.542 565.256 836.485 568.992C825.427 572.728 749.27 532.046 737.383 519.454C725.497 506.724 785.345 422.731 785.345 422.731L871.591 473.099Z" fill="#8777C8"/>
<path opacity="0.35" d="M870.209 475.866L868.965 471.576L785.206 422.592C785.206 422.592 725.497 506.723 737.245 519.315C741.53 523.882 754.108 532.046 769.035 540.486C772.076 530.524 778.71 525.542 778.71 525.542C778.71 525.542 806.215 539.379 825.565 547.682C844.916 555.984 870.209 475.866 870.209 475.866Z" fill="#8777C8"/>
<path opacity="0.35" d="M825.289 539.933C836.761 516.686 835.24 493.855 835.24 493.855L764.888 453.035C750.79 475.174 734.895 503.403 735.863 515.303C738.489 506.724 743.05 497.176 748.717 500.773C758.116 506.585 763.644 510.46 763.644 510.46C763.644 510.46 760.465 525.819 774.149 516.271C779.677 519.454 808.426 538.273 825.289 539.933Z" fill="#8777C8"/>
<path d="M871.591 473.099C871.591 473.099 845.054 522.913 838.143 533.706C831.232 544.5 826.809 540.902 810.5 533.706C794.19 526.511 748.579 496.346 740.7 490.119C732.822 483.892 740.7 474.898 746.506 464.935C752.311 454.972 785.206 422.731 785.206 422.731L871.591 473.099Z" fill="#9E91D2"/>
<path d="M785.206 422.592C785.206 422.592 752.311 454.695 746.505 464.796C740.7 474.897 732.684 483.892 740.7 489.98C742.221 491.226 745.4 493.439 749.408 496.207C756.595 472.545 784.653 444.732 799.857 431.033L785.206 422.592Z" fill="#9E91D2"/>
<path d="M856.94 464.52C845.33 482.093 828.053 509.768 816.305 536.335C828.053 541.593 832.2 543.116 838.281 533.706C845.192 522.913 871.729 473.099 871.729 473.099L856.94 464.52Z" fill="#9E91D2"/>
<path opacity="0.2" d="M785.206 422.592C785.206 422.592 752.311 454.695 746.505 464.796C740.7 474.897 732.684 483.892 740.7 489.98C742.221 491.226 745.4 493.439 749.408 496.207C756.595 472.545 784.653 444.732 799.857 431.033L785.206 422.592Z" fill="#E4E8EE"/>
<path opacity="0.2" d="M856.94 464.52C845.33 482.093 828.053 509.768 816.305 536.335C828.053 541.593 832.2 543.116 838.281 533.706C845.192 522.913 871.729 473.099 871.729 473.099L856.94 464.52Z" fill="#E4E8EE"/>
<path d="M861.502 492.194C867.307 481.54 871.73 473.237 871.73 473.237L785.345 422.731C785.345 422.731 778.849 429.096 771.108 437.122L861.502 492.194Z" fill="#BCB3E0"/>
<path d="M776.222 496.622C776.222 496.622 770.002 505.616 767.238 513.919C764.474 522.221 775.808 522.221 789.076 505.34C785.621 498.698 776.222 496.622 776.222 496.622Z" fill="#BCB3E0"/>
<path d="M874.217 422.593C867.03 416.089 867.583 407.095 874.217 394.918C880.852 382.741 882.787 373.193 877.949 365.167C883.754 370.426 886.242 375.269 885.966 382.741C885.689 390.075 870.347 412.353 883.893 422.454C885.689 425.222 874.217 422.593 874.217 422.593Z" fill="#4F37AD"/>
<path opacity="0.3" d="M874.217 422.593C867.03 416.089 867.583 407.095 874.217 394.918C880.852 382.741 882.787 373.193 877.949 365.167C883.754 370.426 886.242 375.269 885.966 382.741C885.689 390.075 870.347 412.353 883.893 422.454C885.689 425.222 874.217 422.593 874.217 422.593Z" fill="#E4E8EE"/>
<path d="M866.754 464.52C866.754 464.52 869.242 453.311 897.438 450.544C925.634 447.777 930.195 433.939 926.463 426.329C922.731 418.718 884.998 434.908 874.218 422.593C882.925 423.7 891.495 420.794 906.284 417.058C921.073 413.322 936.691 411.799 936 429.235C935.309 446.808 927.984 452.066 910.707 455.11C893.43 458.155 880.852 460.369 874.909 469.363C870.486 468.809 866.754 464.52 866.754 464.52Z" fill="#4F37AD"/>
<path d="M871.591 473.099C871.591 473.099 877.811 467.979 877.811 459.4C875.323 447.638 862.469 467.702 862.469 467.702L871.591 473.099Z" fill="#9E91D2"/>
<path opacity="0.5" d="M861.501 492.194C867.306 481.54 871.729 473.237 871.729 473.237L785.344 422.731C785.344 422.731 784.929 423.146 784.1 423.976C796.54 431.587 860.948 471.023 864.127 473.237C866.477 474.898 862.192 484.446 859.013 490.672L861.501 492.194Z" fill="#E4E8EE"/>
<path opacity="0.15" d="M909.186 416.366C919.967 416.228 929.504 416.919 931.439 423.285C935.032 435.185 933.097 451.651 903.381 456.356C905.592 455.941 907.942 455.526 910.43 455.11C927.707 452.066 935.032 446.808 935.723 429.235C936.553 413.045 923.008 413.322 909.186 416.366Z" fill="#E4E8EE"/>
<g opacity="0.4">
<path opacity="0.4" d="M904.763 422.592C894.95 423.838 889.006 423.284 885.413 422.177C881.404 422.869 877.811 423.146 874.079 422.592C884.86 434.769 922.731 418.718 926.325 426.328C927.292 428.404 927.707 430.895 927.154 433.524C930.886 422.454 926.463 419.686 904.763 422.592Z" fill="#1D262D"/>
</g>
<path opacity="0.4" d="M785.206 394.503C787.556 405.434 793.776 411.246 788.385 418.303C791.702 420.655 793.914 422.177 795.296 422.869C796.54 418.857 796.816 414.013 794.605 408.755C789.767 397.27 785.483 386.477 796.125 375.407C787.832 381.357 783.824 387.722 785.206 394.503Z" fill="#1D262D"/>
<path d="M785.206 422.592L789.353 414.982C789.353 414.982 807.044 407.51 795.019 428.266" fill="#9E91D2"/>
<path d="M776.222 496.622C776.222 496.622 775.945 497.037 775.393 497.867C779.124 499.528 784.515 502.295 784.93 505.201C785.206 507.83 780.645 513.089 776.775 516.963C780.368 514.749 784.515 511.013 788.938 505.34C785.621 498.698 776.222 496.622 776.222 496.622Z" fill="#E4E8EE"/>
<path d="M723.7 281.175C753.554 308.85 827.915 323.379 863.574 255.714C899.234 188.05 865.509 139.619 812.02 131.593C758.53 123.568 713.333 160.513 702.967 193.308C692.739 226.241 706.561 265.262 723.7 281.175Z" fill="#F7EAB5"/>
<path d="M842.289 272.319L793.361 249.626C792.393 247.689 791.288 244.229 790.458 238.556C790.32 237.864 790.32 237.172 790.182 236.48C787.97 220.983 784.239 195.107 740.286 182.1C717.757 175.458 702.276 182.93 695.089 188.05C685.829 194.692 679.747 204.239 679.194 213.095C678.503 227.486 689.699 262.495 727.985 272.319C734.066 273.841 739.595 274.533 744.571 274.533C757.978 274.533 767.791 269.967 776.222 266.092C781.06 263.878 785.206 261.941 789.076 261.388L836.899 283.666L842.289 272.319ZM772.352 257.652C761.571 262.633 749.408 268.168 730.196 263.325C699.236 255.438 687.764 227.071 688.455 213.649C688.731 208.806 692.463 201.334 700.341 195.799C704.488 192.893 712.09 188.88 722.871 188.88C727.294 188.88 732.131 189.572 737.521 191.094C775.669 202.441 778.71 222.92 780.783 237.864C780.921 238.556 781.06 239.248 781.06 239.94C781.889 245.475 783.133 249.626 784.377 252.808C780.507 253.915 776.498 255.714 772.352 257.652Z" fill="#9E91D2"/>
<path opacity="0.5" d="M789.214 261.388L837.037 283.666L842.289 272.458L832.614 268.03C818.378 275.502 789.767 256.821 789.767 256.821C789.767 256.821 784.239 259.035 761.156 266.369C738.074 273.703 703.797 269.413 687.764 234.82C678.503 214.756 683.479 201.057 689.284 193.031C683.341 198.981 679.609 206.315 679.194 213.095C678.503 227.486 689.699 262.495 727.985 272.319C734.066 273.841 739.595 274.533 744.571 274.533C757.978 274.533 767.791 269.967 776.222 266.092C781.198 263.878 785.344 261.941 789.214 261.388Z" fill="#9E91D2"/>
<path d="M696.609 198.428C689.146 203.963 685.552 211.158 685.276 215.863C684.584 229.285 696.195 257.652 727.017 265.539C746.229 270.382 761.156 262.633 771.799 257.652C761.018 262.633 748.855 268.168 729.643 263.325C698.683 255.438 687.211 227.071 687.902 213.649C688.316 209.498 690.942 203.548 696.609 198.428Z" fill="#BCB3E0"/>
<path d="M691.772 190.264C698.959 185.144 714.439 177.533 736.968 184.314C780.783 197.321 784.653 223.197 786.864 238.694C787.003 239.386 787.003 240.078 787.141 240.77C787.97 246.443 789.076 249.903 790.043 251.84L840.354 275.363L841.736 272.319L792.946 249.626C791.979 247.689 790.873 244.229 790.043 238.556C789.905 237.864 789.905 237.172 789.767 236.48C787.556 220.983 783.824 195.107 739.871 182.1C717.342 175.458 701.862 182.93 694.674 188.05C693.292 189.018 691.91 190.125 690.804 191.232C691.081 190.956 691.357 190.679 691.772 190.264Z" fill="#BCB3E0"/>
<path d="M829.159 266.646C826.533 271.489 821.142 281.729 825.565 284.911C829.988 287.955 869.518 306.359 876.843 309.265C884.169 312.171 890.25 300.271 887.071 293.352C883.754 286.433 871.591 282.282 858.184 275.779C844.639 269.137 831.785 261.803 829.159 266.646Z" fill="#8777C8"/>
<path d="M709.187 200.088H709.326C709.464 200.088 709.602 199.95 709.74 199.811L713.61 192.339C713.749 192.063 713.61 191.924 713.472 191.786C713.334 191.647 713.057 191.786 712.919 191.924L709.049 199.396C708.911 199.811 708.911 199.95 709.187 200.088Z" fill="#8777C8"/>
<path d="M697.992 221.536C697.716 221.397 697.577 221.536 697.439 221.674L690.943 233.989C690.805 234.266 690.943 234.405 691.081 234.543H691.219C691.358 234.543 691.496 234.405 691.634 234.266L698.13 221.951C698.269 221.951 698.13 221.674 697.992 221.536Z" fill="#8777C8"/>
<path d="M753.969 255.299C753.693 255.161 753.555 255.299 753.416 255.437L748.026 265.677C747.888 265.954 748.026 266.092 748.164 266.23H748.302C748.441 266.23 748.579 266.092 748.717 265.954L754.107 255.714C754.384 255.714 754.246 255.437 753.969 255.299Z" fill="#8777C8"/>
<path d="M770.693 223.473C770.417 223.335 770.279 223.473 770.141 223.612L758.254 246.305L744.018 238.694L748.302 230.807L754.522 234.128L750.929 240.77C750.79 241.047 750.929 241.185 751.067 241.323H751.205C751.343 241.323 751.481 241.185 751.62 241.047L755.351 233.99L759.083 226.932C759.222 226.656 759.083 226.517 758.945 226.379C758.807 226.241 758.53 226.379 758.392 226.517L754.799 233.159L748.579 229.838L761.018 207.007C761.157 206.73 761.018 206.592 760.88 206.453C760.604 206.315 760.465 206.453 760.327 206.592L747.888 229.423L741.53 226.102L748.855 212.542C748.855 212.403 748.855 212.265 748.855 212.265C748.855 212.127 748.717 212.127 748.579 211.988L741.53 208.529L746.92 198.566C747.059 198.289 746.92 198.151 746.782 198.012C746.506 197.874 746.367 198.012 746.229 198.151L740.839 208.252L734.343 205.069L739.318 195.522C739.457 195.245 739.318 195.107 739.18 194.968C738.904 194.83 738.766 194.968 738.627 195.107L733.652 204.654L727.294 201.61L731.578 193.446C731.716 193.169 731.578 193.031 731.44 192.893C731.302 192.754 731.025 192.893 730.887 193.031L726.464 201.195L719.968 198.012L723.424 191.786C723.562 191.509 723.424 191.37 723.285 191.232C723.009 191.094 722.871 191.232 722.732 191.371L712.366 210.328L706.008 207.007L707.943 203.409C708.082 203.132 707.943 202.994 707.805 202.856C707.667 202.717 707.39 202.855 707.252 202.994L705.317 206.592L699.374 203.409L702.415 197.597C702.553 197.321 702.415 197.182 702.276 197.044C702 196.905 701.862 197.044 701.724 197.182L698.683 202.994L694.536 200.78C694.26 200.642 694.122 200.78 693.983 200.918C693.845 201.195 693.983 201.333 694.122 201.472L698.268 203.686L696.333 207.283C696.195 207.56 696.333 207.699 696.471 207.837H696.61C696.748 207.837 696.886 207.699 697.024 207.56L698.959 203.962L704.903 207.145L702.415 211.85C702.276 212.127 702.415 212.265 702.553 212.403H702.691C702.829 212.403 702.968 212.265 703.106 212.127L705.594 207.422L711.952 210.743L707.667 218.63L694.398 211.573C694.26 211.573 694.122 211.573 694.122 211.573C693.983 211.573 693.983 211.711 693.845 211.85L687.902 223.196C687.764 223.473 687.902 223.612 688.04 223.75C688.317 223.888 688.455 223.75 688.593 223.612L694.26 212.68L707.114 219.599L705.732 222.089C705.594 222.366 705.732 222.505 705.87 222.643C705.87 222.643 706.008 222.643 706.146 222.643C706.285 222.643 706.423 222.505 706.561 222.366L707.943 219.875L714.44 223.335L710.846 230.115L707.529 228.455C707.252 228.316 707.114 228.455 706.976 228.593C706.838 228.87 706.976 229.008 707.114 229.146L710.431 230.807L701.447 247.55C701.309 247.827 701.447 247.965 701.585 248.104H701.724C701.862 248.104 702 247.965 702.138 247.827L711.122 231.084L715.407 233.298H715.545C715.683 233.298 715.822 233.159 715.96 233.021C716.098 232.744 715.96 232.606 715.822 232.467L711.537 230.253L715.131 223.473L721.488 226.794L713.887 241.185C713.887 241.323 713.887 241.462 713.887 241.462C713.887 241.6 714.025 241.6 714.163 241.738L720.797 245.059L714.578 256.683C714.439 256.96 714.578 257.098 714.716 257.236H714.854C714.992 257.236 715.131 257.098 715.269 256.96L721.488 245.198L726.188 247.55H726.326C726.464 247.55 726.602 247.412 726.741 247.273C726.879 246.997 726.741 246.858 726.603 246.72L721.903 244.368L725.359 237.864L731.993 241.323L728.261 248.242C728.123 248.519 728.261 248.657 728.399 248.796H728.537C728.676 248.796 728.814 248.657 728.952 248.519L732.684 241.6L738.904 244.783L735.448 251.009L732.96 249.764C732.684 249.626 732.546 249.764 732.408 249.903C732.269 250.179 732.408 250.318 732.546 250.456L735.034 251.701L728.537 263.463C728.399 263.74 728.538 263.878 728.676 264.017C728.676 264.017 728.814 264.017 728.952 264.017C729.09 264.017 729.229 263.878 729.367 263.74L735.863 251.84L742.221 255.022H742.359L737.383 264.432C737.245 264.708 737.383 264.847 737.522 264.985H737.66C737.798 264.985 737.936 264.847 738.074 264.708L748.717 244.644C748.855 244.368 748.717 244.229 748.579 244.091C748.441 243.952 748.164 244.091 748.026 244.229L742.774 254.192L742.636 254.054L736.278 250.871L739.871 244.229C739.871 244.091 740.009 243.952 739.871 243.952C739.871 243.814 739.733 243.814 739.595 243.676L732.96 240.216L736.416 233.713L758.116 245.336H758.254H758.392C758.53 245.336 758.53 245.198 758.669 245.059L770.693 221.951C770.97 223.888 770.832 223.612 770.693 223.473ZM719.553 199.119L726.05 202.302L719.553 214.617L713.057 211.158L719.553 199.119ZM708.358 219.737L712.643 211.85L719.139 215.309L714.992 223.196L708.358 219.737ZM732.408 241.738L725.773 238.279L727.017 236.065C727.155 235.788 727.017 235.65 726.879 235.512C726.741 235.373 726.464 235.512 726.326 235.65L725.082 237.864L721.074 235.788C720.797 235.65 720.659 235.788 720.521 235.927C720.383 236.204 720.521 236.342 720.659 236.48L724.667 238.556L721.212 245.059L714.992 242.015L722.318 227.901L735.863 235.097L732.408 241.738ZM739.733 228.87C739.595 228.731 739.318 228.87 739.18 229.008L736.278 234.405L722.732 227.209L727.432 218.353C727.57 218.077 727.432 217.938 727.294 217.8C727.017 217.661 726.879 217.8 726.741 217.938L722.041 226.794L715.683 223.473L719.83 215.586L723.976 217.8H724.115C724.253 217.8 724.391 217.661 724.529 217.523C724.667 217.246 724.529 217.108 724.391 216.97L720.245 214.756L726.879 202.44L733.237 205.485L728.814 213.925C728.676 214.202 728.814 214.341 728.952 214.479H729.09C729.229 214.479 729.367 214.341 729.505 214.202L733.928 205.761L740.424 208.944L736.139 216.831C736.001 217.108 736.139 217.246 736.278 217.385H736.416C736.554 217.385 736.692 217.246 736.83 217.108L741.115 209.221L747.75 212.403L740.701 225.549L734.204 222.089L735.448 219.875C735.587 219.599 735.448 219.46 735.31 219.322C735.172 219.184 734.895 219.322 734.757 219.46L733.513 221.674L731.302 220.567C731.025 220.429 730.887 220.567 730.749 220.706C730.611 220.982 730.749 221.121 730.887 221.259L733.099 222.366L729.229 229.7C729.09 229.977 729.229 230.115 729.367 230.253H729.505C729.643 230.253 729.781 230.115 729.92 229.977L733.79 222.643L747.473 229.838L743.188 237.726L736.969 234.405L739.871 229.008C740.009 229.285 739.871 229.008 739.733 228.87Z" fill="#8777C8"/>
<path d="M774.702 236.203C774.563 236.065 774.287 236.203 774.149 236.342L768.758 246.72C768.62 246.996 768.758 247.135 768.897 247.273H769.035C769.173 247.273 769.311 247.135 769.45 246.996L774.84 236.618C774.978 236.48 774.84 236.342 774.702 236.203Z" fill="#8777C8"/>
<path d="M767.238 250.456C766.962 250.317 766.823 250.456 766.685 250.594L760.465 262.494C760.327 262.771 760.465 262.909 760.604 263.048H760.742C760.88 263.048 761.018 262.909 761.157 262.771L767.376 250.871C767.515 250.733 767.376 250.456 767.238 250.456Z" fill="#8777C8"/>
<path d="M704.764 225.272C704.488 225.134 704.349 225.272 704.211 225.411L695.504 241.462C695.365 241.739 695.504 241.877 695.642 242.015C695.642 242.015 695.78 242.015 695.918 242.015C696.056 242.015 696.195 241.877 696.333 241.739L705.041 225.687C705.041 225.687 705.041 225.411 704.764 225.272Z" fill="#8777C8"/>
<path d="M761.295 222.366H761.433C761.571 222.366 761.709 222.228 761.847 222.09L766.547 213.372C766.685 213.095 766.547 212.957 766.409 212.819C766.27 212.68 765.994 212.819 765.856 212.957L761.156 221.674C761.018 221.951 761.156 222.228 761.295 222.366Z" fill="#8777C8"/>
<path d="M711.537 247.55C711.261 247.412 711.122 247.55 710.984 247.688L707.943 253.5C707.805 253.777 707.943 253.915 708.082 254.054H708.22C708.358 254.054 708.496 253.915 708.635 253.777L711.675 247.965C711.813 247.965 711.813 247.688 711.537 247.55Z" fill="#8777C8"/>
<path d="M751.067 207.698H751.205C751.343 207.698 751.481 207.56 751.619 207.422L753.969 202.994C754.107 202.717 753.969 202.579 753.831 202.44C753.693 202.302 753.416 202.44 753.278 202.578L750.928 207.006C750.79 207.283 750.928 207.56 751.067 207.698Z" fill="#8777C8"/>
<path d="M726.741 253.362C726.464 253.224 726.326 253.362 726.188 253.5L721.627 262.08C721.488 262.356 721.627 262.495 721.765 262.633H721.903C722.041 262.633 722.179 262.495 722.318 262.356L726.879 253.777C727.017 253.639 726.879 253.362 726.741 253.362Z" fill="#8777C8"/>
<path opacity="0.5" d="M766.685 202.441C754.937 192.893 720.244 174.628 696.609 198.428C695.78 199.258 695.089 200.227 694.536 201.057C696.195 199.12 698.13 197.321 700.479 195.66C704.626 192.754 712.228 188.742 723.009 188.742C727.432 188.742 732.269 189.434 737.66 190.956C775.807 202.302 778.848 222.782 780.921 237.726C781.059 238.418 781.198 239.11 781.198 239.801C782.027 245.336 783.271 249.488 784.515 252.67C784.515 252.67 783.686 247.135 782.856 235.927C782.165 224.857 778.433 211.988 766.685 202.441Z" fill="#9E91D2"/>
<path opacity="0.5" d="M825.565 284.911C829.988 287.955 869.518 306.359 876.844 309.265C878.226 309.818 879.47 309.818 880.714 309.542C876.153 308.988 878.088 299.717 878.088 299.717C878.088 299.717 838.42 281.175 832.615 277.301C828.606 274.672 830.127 268.722 831.509 265.262C830.541 265.401 829.712 265.954 829.297 266.784C826.671 271.627 821.143 281.729 825.565 284.911Z" fill="#9E91D2"/>
<path d="M879.331 296.119C879.331 296.119 883.339 293.767 885.413 297.503C886.657 299.855 885.275 304.56 883.063 308.158C887.071 305.113 889.283 298.056 887.071 293.213C883.754 286.295 871.591 282.143 858.184 275.64C846.712 270.105 835.655 263.878 830.956 265.262L831.923 266.369C831.923 266.369 876.843 287.402 881.957 290.446C880.713 292.66 879.331 296.119 879.331 296.119Z" fill="#9E91D2"/>
<path d="M789.076 156.086C791.011 164.111 795.572 169.923 800.271 170.2C803.865 170.338 807.32 167.155 810.085 161.205C808.426 153.733 802.345 147.23 789.076 146.123C787.141 145.984 785.482 146.123 783.824 146.399C786.173 148.752 788.108 151.934 789.076 156.086Z" fill="#9E91D2"/>
<path d="M800.548 173.936C800.41 173.936 800.133 173.936 799.995 173.936C793.637 173.52 787.832 166.74 785.482 157.054C784.515 152.764 782.442 149.859 779.954 147.921C771.799 152.073 769.311 163.281 773.319 172.137C778.572 183.76 789.767 187.635 800.686 184.175C805.524 182.653 809.809 175.596 810.5 167.986C806.906 172.829 803.174 173.936 800.548 173.936Z" fill="#9E91D2"/>
<path opacity="0.3" d="M779.539 163.696C779.539 159.96 781.198 156.224 784.1 153.18C782.995 150.827 781.474 149.029 779.816 147.783C771.661 151.934 769.173 163.143 773.181 171.999C778.433 183.622 789.629 187.496 800.548 184.037C802.898 183.345 805.109 181.27 806.768 178.502C790.735 188.188 779.539 171.999 779.539 163.696Z" fill="#8777C8"/>
<path opacity="0.3" d="M783.824 146.4C785.068 147.645 786.173 149.029 787.003 150.828C789.214 149.305 791.84 147.922 794.881 147.23C793.084 146.815 791.149 146.4 788.938 146.261C787.279 145.984 785.482 146.123 783.824 146.4Z" fill="#8777C8"/>
<path d="M816.168 216.831C818.379 217.108 820.452 216.416 822.249 214.756C824.184 213.095 824.046 211.02 823.908 207.975C823.493 203.548 823.078 198.151 832.615 194.138C838.282 191.786 844.087 195.245 847.819 203.271C849.892 207.699 851.136 213.234 851.136 218.769C858.185 206.038 848.51 183.622 829.16 186.251C816.859 186.113 807.46 203.686 813.68 215.863C814.371 216.416 815.2 216.693 816.168 216.831Z" fill="#9E91D2"/>
<path d="M845.192 204.516C844.086 202.026 839.801 194.138 833.581 196.767C825.979 199.95 826.256 203.548 826.532 207.837C826.809 210.743 827.085 214.064 824.045 216.831C821.557 219.045 818.792 219.876 815.752 219.599C815.752 219.599 815.751 219.599 815.613 219.599C818.378 222.781 822.662 225.411 828.744 226.794C837.59 228.316 843.809 226.518 847.679 222.92C848.785 216.555 847.403 209.498 845.192 204.516Z" fill="#9E91D2"/>
<path opacity="0.6" d="M816.166 216.831C817.687 216.97 819.069 216.693 820.313 216.14C819.76 215.171 819.345 214.064 818.931 212.819C814.508 198.566 819.622 190.402 826.947 186.666C815.614 188.326 807.597 204.655 813.54 216.14C814.37 216.416 815.199 216.693 816.166 216.831Z" fill="#8777C8"/>
<path opacity="0.6" d="M821.833 218.354C820.037 219.322 817.963 219.737 815.89 219.461C815.89 219.461 815.89 219.461 815.752 219.461C818.516 222.643 822.801 225.272 828.882 226.656C836.208 227.901 841.737 226.933 845.607 224.442C837.314 225.687 827.362 225.134 821.833 218.354Z" fill="#8777C8"/>
<path d="M504.213 42.2039C479.887 78.8728 476.708 157.331 553.556 177.256C630.542 197.182 676.015 151.657 675.877 95.7544C675.739 39.8515 629.436 3.0442 593.224 0.415107C557.149 -2.21399 518.311 21.0327 504.213 42.2039Z" fill="#F7EAB5"/>
<path d="M607.46 260.142C607.46 260.142 558.117 193.723 544.848 176.15C569.312 153.041 644.364 78.873 644.364 78.873L680.715 161.897C680.715 161.897 618.932 237.034 607.46 260.142Z" fill="#8777C8"/>
<path opacity="0.5" d="M644.226 78.873C644.226 78.873 599.167 123.429 567.516 154.287C568.068 175.873 573.735 212.68 600.688 251.148C604.834 256.683 607.46 260.142 607.46 260.142C618.932 237.034 680.715 161.897 680.715 161.897L644.226 78.873Z" fill="#8777C8"/>
<path d="M607.598 233.021L551.482 130.071L645.608 48.4307L665.925 146.122L607.598 233.021Z" fill="#E4E8EE"/>
<path opacity="0.3" d="M648.925 64.6206L635.38 66.8346L560.19 134.361L607.598 233.021L665.925 146.123L648.925 64.6206Z" fill="#8777C8"/>
<path d="M607.599 233.021L570.557 132.977L662.747 52.7202L665.926 146.122L607.599 233.021Z" fill="#E4E8EE"/>
<path opacity="0.3" d="M665.926 146.122L663.161 62.96H659.291L579.817 132.977L607.045 231.637L607.737 232.744L665.926 146.122Z" fill="#8777C8"/>
<path d="M607.598 233.021L590.598 129.518L680.162 47.3237L665.926 146.122L607.598 233.021Z" fill="#E4E8EE"/>
<path opacity="0.3" d="M665.926 146.122L675.463 79.2879C675.463 69.1867 662.885 74.0297 658.877 81.7787C651.551 96.0311 600.549 140.034 600.549 140.034L605.249 219.46L607.46 232.882L665.926 146.122Z" fill="#8777C8"/>
<path d="M670.487 88.9743L607.322 145.707C607.322 145.707 606.355 221.398 607.322 260.142C640.494 208.944 680.577 161.897 680.577 161.897C680.577 161.897 687.073 93.679 689.837 78.873C692.601 64.0671 691.219 64.0671 685.691 66.8345C680.162 69.602 670.072 70.5706 670.487 88.9743Z" fill="#BCB3E0"/>
<path opacity="0.3" d="M680.715 161.897C680.715 161.897 684.447 121.769 687.487 96.4463L641.876 211.02C663.299 182.376 680.715 161.897 680.715 161.897Z" fill="white"/>
<path opacity="0.5" d="M691.081 66.9728C690.666 64.6204 688.87 65.3123 685.691 66.8344C680.162 69.6019 670.072 70.5705 670.487 88.9742L607.322 145.707C607.322 145.707 606.355 221.398 607.322 260.142C607.737 259.45 608.29 258.758 608.704 258.066L610.225 147.783C610.225 147.783 642.291 117.617 673.804 90.3579C671.04 75.2752 682.373 69.3251 691.081 66.9728Z" fill="#8777C8"/>
<path d="M530.612 42.2041H512.505V60.331H530.612V42.2041Z" fill="#9E91D2"/>
<path d="M581.06 45.8018H541.945V48.7076H581.06V45.8018Z" fill="#9E91D2"/>
<path d="M570.003 54.3809H541.945V57.2867H570.003V54.3809Z" fill="#9E91D2"/>
<path d="M530.612 96.8613H512.505V114.988H530.612V96.8613Z" fill="#9E91D2"/>
<path d="M564.06 100.459H541.945V103.365H564.06V100.459Z" fill="#9E91D2"/>
<path d="M557.84 109.039H541.945V111.944H557.84V109.039Z" fill="#9E91D2"/>
<path d="M530.612 68.7715H512.505V86.8984H530.612V68.7715Z" fill="#9E91D2"/>
<path d="M575.532 72.231H541.945V75.1368H575.532V72.231Z" fill="#9E91D2"/>
<path d="M556.182 80.9487H541.945V83.8546H556.182V80.9487Z" fill="#9E91D2"/>
<path d="M580.093 80.9487H560.328V83.8546H580.093V80.9487Z" fill="#9E91D2"/>
<path d="M517.758 49.5378L515.408 53.1356L523.563 61.5763L537.246 36.5307L534.758 35.8389L523.701 52.7204L517.758 49.5378Z" fill="#4F37AD"/>
<path d="M12.4396 488.596C32.2045 543.254 112.785 608.151 194.194 542.285C275.741 476.281 263.302 392.289 204.007 348.701C144.712 305.113 69.3847 325.177 38.286 361.57C7.04915 397.823 1.10585 457.186 12.4396 488.596Z" fill="#F7EAB5"/>
<path d="M72.1487 530.662C71.5959 533.568 69.3844 535.505 67.3112 535.09C65.2379 534.675 64.1322 532.046 64.6851 529.14C65.2379 526.234 67.4494 524.297 69.5226 524.712C71.4576 525.127 72.7016 527.894 72.1487 530.662Z" fill="#4F37AD"/>
<path d="M32.0569 515.411C32.7678 511.968 31.3441 508.765 28.8771 508.255C26.4101 507.746 23.8339 510.124 23.123 513.566C22.4122 517.009 23.8358 520.212 26.3029 520.722C28.7699 521.231 31.3461 518.853 32.0569 515.411Z" fill="#4F37AD"/>
<path d="M96.5696 524.33C97.0795 521.86 96.0989 519.57 94.3793 519.215C92.6597 518.86 90.8523 520.575 90.3423 523.045C89.8323 525.514 90.813 527.804 92.5326 528.159C94.2522 528.514 96.0596 526.8 96.5696 524.33Z" fill="#4F37AD"/>
<path d="M68.6373 503.288C69.24 500.37 68.0317 497.653 65.9385 497.221C63.8452 496.789 61.6597 498.805 61.0571 501.723C60.4544 504.642 61.6627 507.358 63.756 507.79C65.8492 508.222 68.0347 506.207 68.6373 503.288Z" fill="#4F37AD"/>
<path d="M98.2717 486.936C98.2717 486.798 98.2717 486.798 98.2717 486.659V486.521V486.382V486.244C98.2717 486.106 98.1334 485.967 98.1334 485.967C98.1334 485.829 97.9952 485.829 97.9952 485.691L62.8883 451.236L60.5386 434.907C60.4004 433.801 59.4329 433.109 58.3272 433.247C57.2214 433.385 56.5304 434.354 56.6686 435.461L58.88 450.682L19.3502 459.4L11.8865 443.902C11.4719 442.933 10.2279 442.518 9.26043 442.933C8.29292 443.348 7.87827 444.594 8.29292 445.562L16.3095 462.305L25.2935 505.201C25.4317 505.893 25.9846 506.447 26.5375 506.585L70.4902 521.944C70.6284 521.944 70.7666 522.083 71.0431 522.083C71.0431 522.083 71.0431 522.083 71.1813 522.083C71.3195 522.083 71.4577 522.083 71.5959 522.083L95.922 516.271C96.7513 516.133 97.4424 515.303 97.4424 514.472L98.2717 486.936ZM72.8399 517.655L69.108 495.654L92.3284 512.95L72.8399 517.655ZM67.173 490.395L62.3354 456.217L92.3284 485.691L67.173 490.395ZM60.124 454.003L65.0998 489.288L23.0821 462.305L60.124 454.003ZM64.8233 494.131L68.8316 517.101L31.7897 504.094L64.8233 494.131ZM69.9373 493.855L94.4016 489.15L93.7105 511.428L69.9373 493.855ZM20.8706 465.626L62.8883 492.609L28.7489 502.987L20.8706 465.626Z" fill="#8777C8"/>
<path d="M61.6445 436.015L4.6994 445.562C2.62616 445.977 0.552919 444.455 0.13827 442.38C-0.276379 440.304 1.244 438.229 3.31724 437.813C3.45546 437.813 3.45546 437.813 3.59367 437.813L61.0916 431.725C62.3356 431.587 63.3031 432.417 63.4413 433.662C63.4413 434.769 62.7502 435.876 61.6445 436.015Z" fill="#4F37AD"/>
<path d="M124.395 417.611C124.395 417.611 120.939 429.234 124.395 434.078C128.679 435.184 151.761 434.631 159.64 436.291C167.38 437.952 189.633 435.461 189.633 435.461C189.633 435.461 214.512 432.971 215.617 427.159C216.723 421.347 211.885 420.932 217.276 416.781C222.805 412.63 214.65 406.68 206.91 407.233C215.894 400.038 215.756 397.547 210.227 393.396C204.698 389.244 198.479 394.779 199.999 388.414C201.519 382.049 195.438 379.005 189.633 379.005C183.828 379.005 182.307 369.042 173.461 373.47C164.616 377.898 160.745 387.999 171.112 398.792C176.087 404.05 167.38 407.925 168.209 411.799C167.103 416.227 158.119 418.995 148.03 418.441C138.078 418.165 124.395 417.611 124.395 417.611Z" fill="#8777C8"/>
<g opacity="0.35">
<path opacity="0.35" d="M199.999 391.182C198.479 395.886 196.958 402.113 201.519 397.27C204.284 394.364 207.877 393.811 210.918 394.087C210.78 393.949 210.503 393.811 210.227 393.534C205.804 390.351 200.966 393.257 199.999 391.182Z" fill="#8777C8"/>
<path opacity="0.35" d="M171.112 422.177C173.324 421.901 174.982 413.183 174.982 413.183C174.982 413.183 174.982 404.604 180.096 403.497C185.21 402.39 186.731 403.22 188.251 400.038C189.771 396.993 174.015 388.968 174.982 382.741C175.95 376.514 182.169 381.634 188.251 381.634C190.186 381.634 192.674 380.942 195.162 380.25C193.503 379.697 191.706 379.282 189.91 379.282C184.104 379.282 182.584 369.319 173.738 373.747C164.892 378.175 161.022 388.276 171.389 399.069C176.364 404.327 167.657 408.202 168.486 412.076C167.38 416.504 158.396 419.272 148.306 418.718C138.217 418.165 124.671 417.611 124.671 417.611C124.671 417.611 121.216 429.235 124.671 434.078L128.127 422.039C127.85 422.177 168.762 422.454 171.112 422.177Z" fill="#8777C8"/>
</g>
<path d="M177.608 415.259C164.201 416.227 150.241 431.863 159.64 447.361C169.038 462.859 190.185 462.859 198.064 452.481C205.804 442.241 209.397 412.768 177.608 415.259Z" fill="#BCB3E0"/>
<path opacity="0.35" d="M198.064 452.619C200.966 448.745 203.316 442.241 203.454 435.599C188.803 453.45 164.892 441.273 164.892 432.97C164.892 427.02 169.868 419.133 176.779 415.397C163.648 417.057 150.517 432.279 159.64 447.5C169.038 462.997 190.324 462.859 198.064 452.619Z" fill="#BCB3E0"/>
<path opacity="0.4" d="M193.779 421.485C187.974 417.334 182.446 422.039 188.112 426.467C193.917 431.033 202.487 427.712 193.779 421.485Z" fill="white"/>
<path opacity="0.4" d="M180.096 417.888C175.949 418.164 177.193 422.039 179.267 422.177C181.34 422.316 185.21 417.472 180.096 417.888Z" fill="white"/>
<path d="M213.267 444.594C213.267 444.594 218.658 435.046 207.324 428.404C195.99 421.762 199.308 432.832 202.072 438.367C204.836 443.902 213.267 444.594 213.267 444.594Z" fill="#9E91D2"/>
<path d="M209.536 458.708C209.259 457.186 209.259 455.94 209.259 454.418C209.259 453.035 209.397 451.651 209.674 450.405C210.227 447.776 211.056 445.147 212.3 442.795C212.576 442.241 212.991 441.688 213.268 440.996C213.406 440.719 213.544 440.443 213.82 440.166L214.373 439.336C214.788 438.782 215.203 438.229 215.617 437.675L216.999 436.153C217.276 435.876 217.414 435.6 217.69 435.461L218.382 434.769L219.764 433.386C220.731 432.555 221.837 431.725 222.804 431.033C223.081 430.756 223.634 430.895 223.772 431.172C224.048 431.448 223.91 431.863 223.634 432.14C222.666 432.97 221.699 433.801 220.869 434.631L219.625 436.015L218.934 436.706C218.796 436.983 218.52 437.26 218.382 437.398L217.276 438.92C216.861 439.474 216.585 439.889 216.308 440.443L215.755 441.273C215.617 441.55 215.479 441.826 215.341 442.103C215.064 442.657 214.788 443.21 214.511 443.764C213.544 445.978 212.853 448.33 212.576 450.682C212.438 451.928 212.438 453.035 212.438 454.28C212.438 455.387 212.715 456.771 212.853 457.739V457.878C213.129 458.846 212.576 459.815 211.609 459.953C210.78 460.368 209.812 459.815 209.536 458.708C209.674 458.846 209.536 458.708 209.536 458.708Z" fill="#4F37AD"/>
<path d="M211.886 450.544C211.886 450.544 208.015 442.103 195.576 444.732C183.137 447.361 185.624 478.495 207.324 480.294C229.024 482.093 236.35 465.35 235.244 454.28C234.138 443.21 217 440.443 211.886 450.544Z" fill="#8777C8"/>
<path opacity="0.5" d="M197.373 461.337C199.031 450.405 211.886 450.544 211.886 450.544C211.886 450.544 208.015 442.103 195.576 444.732C183.137 447.361 185.624 478.495 207.324 480.294C214.512 480.848 220.04 479.464 224.325 476.835C208.568 480.709 195.991 470.331 197.373 461.337Z" fill="#9E91D2"/>
<path opacity="0.6" d="M227.919 449.022C223.357 444.87 219.073 449.575 223.496 454.003C228.057 458.431 234.691 455.11 227.919 449.022Z" fill="white"/>
<path d="M117.207 365.029C97.1659 363.645 89.1494 396.855 108.914 401.559C128.679 406.126 131.029 365.997 117.207 365.029Z" fill="#BCB3E0"/>
<path opacity="0.3" d="M113.337 390.905C99.3774 387.86 104.077 366.274 117.346 365.029C117.207 365.029 117.207 365.029 117.069 365.029C97.0277 363.645 89.0112 396.855 108.776 401.559C121.077 404.465 126.606 389.936 125.777 378.313C125.224 385.508 121.077 392.704 113.337 390.905Z" fill="#BCB3E0"/>
<path d="M94.4014 339.568C78.6448 337.078 71.0429 370.149 86.9378 374.438C102.971 378.728 114.028 342.613 94.4014 339.568Z" fill="#BCB3E0"/>
<path opacity="0.45" d="M104.906 351.884C104.353 360.324 98.1334 369.457 90.5315 367.381C78.645 364.199 83.2061 340.952 93.9869 339.292C78.645 337.493 71.1813 370.011 86.9379 374.162C97.3041 377.206 105.597 363.092 104.906 351.884Z" fill="#BCB3E0"/>
<path d="M137.11 355.62C126.053 360.74 128.679 387.169 146.647 382.464C164.616 377.76 148.168 350.638 137.11 355.62Z" fill="#BCB3E0"/>
<path d="M31.5132 354.097C31.5132 354.097 25.4317 356.588 25.1552 371.256C24.8788 385.923 44.3673 425.775 82.2385 421.9C120.11 418.026 79.336 410.277 69.3844 398.377C59.2946 386.477 38.0093 354.236 38.0093 354.236L35.6597 336.662C35.6597 336.662 32.2043 333.203 28.8871 335.14C25.5699 337.077 31.5132 354.097 31.5132 354.097Z" fill="#9E91D2"/>
<path opacity="0.5" d="M97.857 417.889C94.1251 418.165 72.4252 419.964 63.1647 415.398C53.0749 410.278 40.0826 396.302 35.6597 383.434C31.2368 370.703 35.6597 357.143 35.6597 357.143L30.9603 334.726C30.2692 334.726 29.5782 334.864 28.8871 335.28C25.5699 337.217 31.5132 354.098 31.5132 354.098C31.5132 354.098 25.4317 356.589 25.1552 371.257C24.8788 385.924 44.3673 425.776 82.2385 421.901C92.6047 420.794 97.0277 419.549 97.857 417.889Z" fill="#9E91D2"/>
<path opacity="0.5" d="M40.0826 369.042C40.0826 369.042 59.4329 400.591 65.0998 404.742C70.7666 408.893 62.1972 410.277 51.0017 396.439C39.8062 382.602 40.0826 369.042 40.0826 369.042Z" fill="#9E91D2"/>
<path d="M119.557 482.923C119.557 482.923 111.679 528.587 112.231 538.273C112.646 547.959 114.028 549.343 132.549 550.726C150.932 552.11 157.843 553.079 164.754 552.525C171.664 552.11 178.99 547.959 185.348 543.808C191.568 539.656 173.738 485.691 173.738 485.691L119.557 482.923Z" fill="#9E91D2"/>
<path opacity="0.5" d="M165.997 528.31C167.794 517.932 173.461 485.691 173.461 485.691L119.557 482.923C119.557 482.923 111.679 528.587 112.231 538.273C112.646 547.959 114.028 549.343 132.549 550.726C150.932 552.11 157.843 553.079 164.754 552.525C165.721 552.525 166.689 552.387 167.656 552.11C163.233 545.745 164.477 536.889 165.997 528.31Z" fill="#9E91D2"/>
<path d="M173.461 485.691C173.461 485.691 176.087 478.08 174.567 474.898C172.908 471.715 168.071 470.193 163.095 472.407C157.981 474.621 154.94 468.948 149.274 471.3C143.745 473.652 141.672 474.067 133.102 472.407C124.533 470.746 119.972 465.765 117.207 470.746C114.443 475.728 119.557 482.923 119.557 482.923L173.461 485.691Z" fill="#9E91D2"/>
<path d="M141.395 507.969C132.549 507.969 121.354 526.649 134.761 531.354C148.167 535.92 151.208 529.278 152.59 522.498C153.834 515.579 148.72 507.969 141.395 507.969Z" fill="#9E91D2"/>
<path d="M130.061 501.05C130.752 501.881 159.501 503.679 159.501 503.679V499.528L130.061 498.145V501.05Z" fill="#9E91D2"/>
<path opacity="0.6" d="M164.615 552.525C165.03 552.525 165.583 552.387 165.997 552.387C165.583 552.387 165.03 552.525 164.615 552.525Z" fill="#E4E8EE"/>
<path opacity="0.6" d="M167.518 552.11C167.103 552.249 166.55 552.249 166.136 552.387C166.55 552.249 166.965 552.249 167.518 552.11Z" fill="#E4E8EE"/>
<path opacity="0.3" d="M173.462 485.691C173.462 485.691 179.405 515.441 180.234 525.542C181.202 535.644 183.828 542.839 176.779 545.883C172.633 547.682 168.071 547.267 165.169 546.714C165.584 548.651 166.413 550.45 167.519 552.11C173.6 550.865 179.682 547.267 185.072 543.808C191.292 539.657 173.462 485.691 173.462 485.691Z" fill="#E4E8EE"/>
<path opacity="0.5" d="M124.809 542.562C118.866 534.675 118.313 521.806 119.557 507.969C120.663 494.131 125.362 489.15 133.793 487.904C142.363 486.798 173.461 485.552 173.461 485.552L119.557 482.785C119.557 482.785 111.679 528.448 112.231 538.134C112.646 547.82 114.028 549.204 132.549 550.588C150.932 551.971 157.843 552.94 164.754 552.386C165.721 552.386 166.689 552.248 167.656 551.971C167.656 551.971 157.428 550.311 146.371 549.342C135.175 548.65 130.752 550.588 124.809 542.562Z" fill="#9E91D2"/>
<path d="M279.058 66.6961C253.35 105.579 249.895 188.465 331.304 209.497C412.714 230.53 460.813 182.376 460.675 123.291C460.398 64.2054 411.608 25.3224 373.322 22.555C334.898 19.7875 293.848 44.418 279.058 66.6961Z" fill="#F7EAB5"/>
<path d="M346.093 26.291C346.093 30.8573 342.361 34.455 337.938 34.455C333.377 34.455 329.784 30.7189 329.784 26.291C329.784 21.7247 333.516 18.127 337.938 18.127C342.361 18.127 346.093 21.863 346.093 26.291Z" fill="#BCB3E0"/>
<path d="M333.239 28.228C333.239 28.228 317.483 37.7758 323.288 46.2166C329.231 54.7957 338.906 46.6317 338.906 30.8571C336.004 28.228 333.239 28.228 333.239 28.228Z" fill="#BCB3E0"/>
<path d="M334.76 29.6119L333.93 22.2781C333.93 22.2781 319.003 16.0513 313.889 25.1839C308.775 34.3166 318.312 38.8829 334.76 29.6119Z" fill="#BCB3E0"/>
<path d="M330.475 24.0769L338.906 20.2025C338.906 20.2025 340.703 -0.553546 327.157 1.66043C313.612 3.8744 323.011 18.1269 330.475 24.0769Z" fill="#BCB3E0"/>
<path d="M342.223 22.6933C342.223 22.6933 355.768 17.9886 353.419 6.22685C350.931 -5.53489 338.353 -0.691824 337.938 20.2026C340.426 21.7247 342.223 22.6933 342.223 22.6933Z" fill="#BCB3E0"/>
<path d="M343.605 22.1396V28.2281C343.605 28.2281 361.85 34.1781 363.509 25.1839C365.167 16.1896 353.972 16.0512 343.605 22.1396Z" fill="#BCB3E0"/>
<path d="M343.605 22.1396V28.2281C343.605 28.2281 361.85 34.1781 363.509 25.1839C365.167 16.1896 353.972 16.0512 343.605 22.1396Z" fill="#BCB3E0"/>
<path d="M337.8 28.2283C337.8 28.2283 335.727 40.5435 343.605 46.4936C351.484 52.4437 357.151 46.3552 353.557 35.7005C349.963 25.1841 341.256 26.4295 341.256 26.4295L337.8 28.2283Z" fill="#BCB3E0"/>
<path opacity="0.3" d="M334.76 29.6119L333.93 22.2781C333.93 22.2781 319.003 16.0513 313.889 25.1839C308.775 34.3166 318.312 38.8829 334.76 29.6119Z" fill="#BCB3E0"/>
<path opacity="0.3" d="M342.223 22.6933C342.223 22.6933 355.768 17.9886 353.419 6.22685C350.931 -5.53489 338.353 -0.691824 337.938 20.2026C340.426 21.7247 342.223 22.6933 342.223 22.6933Z" fill="#BCB3E0"/>
<path opacity="0.3" d="M337.8 28.2283C337.8 28.2283 335.727 40.5435 343.605 46.4936C351.484 52.4437 357.151 46.3552 353.557 35.7005C349.963 25.1841 341.256 26.4295 341.256 26.4295L337.8 28.2283Z" fill="#BCB3E0"/>
<path d="M346.093 26.291C346.093 30.8573 342.361 34.455 337.938 34.455C333.377 34.455 329.784 30.7189 329.784 26.291C329.784 21.7247 333.516 18.127 337.938 18.127C342.361 18.127 346.093 21.863 346.093 26.291Z" fill="#E4E8EE"/>
<path opacity="0.6" d="M337.8 18.127C335.589 18.127 333.654 18.9572 332.271 20.3409C333.101 20.0642 333.792 19.9258 334.759 19.9258C339.321 19.9258 342.914 23.6619 342.914 28.0898C342.914 30.4422 341.947 32.6562 340.288 34.1783C343.605 33.2097 346.093 30.0271 346.093 26.291C346.093 21.863 342.361 18.127 337.8 18.127Z" fill="white"/>
<path d="M421.145 157.054C421.145 157.054 403.038 136.851 369.59 142.248C382.72 157.469 406.079 162.865 421.145 157.054Z" fill="#4F37AD"/>
<path opacity="0.3" d="M421.145 157.054C421.145 157.054 403.038 136.851 369.59 142.248C371.11 143.908 372.631 145.569 374.427 146.953C393.363 144.047 407.046 152.626 414.234 158.714C416.583 158.576 419.071 157.884 421.145 157.054Z" fill="#9B355F"/>
<path d="M403.453 143.632C403.315 142.94 420.868 99.3521 409.811 79.1496C398.615 58.9471 386.176 73.6146 394.331 95.4776C402.485 117.479 393.363 142.248 393.363 142.248L403.453 143.632Z" fill="#BCB3E0"/>
<g opacity="0.5">
<path opacity="0.5" d="M400.274 134.084C399.997 133.946 399.997 133.807 399.997 133.669C400.136 133.254 413.266 95.2012 398.892 73.3382C398.754 73.1998 398.892 73.0614 399.03 72.923C399.168 72.7847 399.306 72.923 399.445 73.0614C414.095 95.0628 400.827 133.531 400.689 133.807C400.55 134.084 400.412 134.084 400.274 134.084Z" fill="white"/>
</g>
<path d="M394.192 161.067C394.192 161.067 401.656 146.261 401.518 128.964C401.38 111.667 390.599 106.686 383.964 109.592C377.33 112.359 383.55 123.706 387.696 132.7C391.843 141.694 389.631 160.098 389.631 160.098L394.192 161.067Z" fill="#9E91D2"/>
<g opacity="0.5">
<path opacity="0.5" d="M392.948 157.33C392.672 157.192 392.672 157.054 392.672 156.915C392.81 156.639 403.038 127.027 387.005 113.189C386.867 113.051 386.867 112.913 387.005 112.774C387.143 112.636 387.281 112.636 387.42 112.774C403.729 126.75 393.363 156.777 393.225 157.054C393.225 157.33 393.087 157.33 392.948 157.33Z" fill="white"/>
</g>
<path d="M399.306 150.966C399.306 150.966 405.388 131.455 427.917 125.505C450.446 119.555 451.414 106.963 447.267 99.9058C443.121 92.8488 407.738 106.963 396.127 150.551C399.306 150.966 399.306 150.966 399.306 150.966Z" fill="#9E91D2"/>
<g opacity="0.5">
<path opacity="0.5" d="M400.274 142.802C400.136 142.802 400.136 142.802 399.998 142.802C399.721 142.663 399.721 142.387 399.859 142.11C419.762 107.655 444.918 106.271 445.056 106.133C445.332 106.133 445.609 106.271 445.609 106.548C445.609 106.825 445.471 107.101 445.194 107.101C444.918 107.101 420.315 108.624 400.689 142.525C400.55 142.802 400.412 142.802 400.274 142.802Z" fill="white"/>
</g>
<path d="M412.575 123.429C412.575 123.429 429.161 108.623 435.243 80.1184C441.324 51.6134 423.356 47.4622 416.998 49.6762C410.64 51.7518 417.413 68.495 416.307 82.6091C415.063 96.7232 403.868 130.625 403.868 130.625L412.575 123.429Z" fill="#8979C8"/>
<g opacity="0.5">
<path opacity="0.5" d="M411.055 127.58C410.917 127.58 410.917 127.58 410.778 127.58C410.502 127.442 410.364 127.165 410.502 126.888C438.974 66.1425 422.527 53.6889 422.25 53.5505C421.974 53.4122 421.974 53.1354 422.112 52.8587C422.25 52.5819 422.527 52.5819 422.803 52.7203C423.494 53.2738 440.357 65.589 411.331 127.304C411.331 127.442 411.193 127.58 411.055 127.58Z" fill="white"/>
</g>
<path d="M394.193 161.067C394.193 161.067 419.763 134.361 419.763 119.278C419.763 104.057 404.006 111.806 399.307 128.687C394.745 145.569 391.566 160.79 391.566 160.79L394.193 161.067Z" fill="#BCB3E0"/>
<g opacity="0.5">
<path opacity="0.5" d="M394.193 159.406H394.054C393.778 159.268 393.64 158.991 393.778 158.714L412.852 116.649C412.99 116.372 413.266 116.234 413.543 116.372C413.819 116.511 413.957 116.787 413.819 117.064L394.607 159.13C394.469 159.268 394.331 159.406 394.193 159.406Z" fill="white"/>
</g>
<path d="M370.143 153.871C370.143 153.871 368.208 173.105 364.752 185.42C368.208 199.534 393.363 201.887 401.242 196.767C404.42 186.666 414.234 166.601 414.234 166.601L370.143 153.871Z" fill="#9E91D2"/>
<path opacity="0.25" d="M389.217 199.258C373.598 189.433 377.33 171.583 383.273 171.029C390.461 170.199 405.664 169.092 405.664 169.092L401.933 163.004L370.143 153.871C370.143 153.871 368.208 173.105 364.752 185.42C367.102 194.968 379.127 199.119 389.217 199.258Z" fill="#8777C8"/>
<path d="M369.59 142.386L369.452 143.355L367.102 156.777C367.102 156.777 392.257 173.659 415.478 170.614C419.21 163.696 421.145 157.054 421.145 157.054C406.079 162.866 382.72 157.469 369.59 142.386Z" fill="#8777C8"/>
<path opacity="0.4" d="M382.306 159.406L383.135 153.041C378.021 150.274 373.322 146.814 369.59 142.386L369.452 143.355L367.102 156.777C367.102 156.777 392.257 173.659 415.478 170.614C415.616 170.476 415.616 170.338 415.754 170.199C395.436 170.753 382.306 159.406 382.306 159.406Z" fill="#8777C8"/>
<path d="M367.102 64.3436C352.728 49.676 342.638 56.1795 344.573 70.9855C346.646 85.7914 346.093 87.8671 346.093 87.8671L331.857 106.132C331.857 106.132 323.149 85.0996 317.621 69.8785C312.092 54.6574 284.587 46.4934 269.245 59.7772C253.903 72.9227 256.253 96.3078 269.245 117.756C282.237 139.204 299.238 163.419 299.238 163.419C299.238 163.419 334.345 161.343 347.199 138.927C354.663 106.824 356.874 92.4334 356.874 92.4334L372.216 85.0996C372.354 84.9612 381.477 78.8728 367.102 64.3436ZM272.148 112.359C252.936 76.382 272.286 58.947 287.075 57.9784C302.002 57.0098 313.198 66.9727 317.483 85.238C286.246 85.3763 272.148 112.359 272.148 112.359Z" fill="#8777C8"/>
<path opacity="0.2" d="M347.337 138.65C354.801 106.548 357.012 92.1567 357.012 92.1567L372.354 84.8229C372.354 84.8229 381.477 78.7345 367.102 64.0669C352.728 49.3993 342.638 55.9028 344.573 70.7088C346.646 85.5147 346.093 87.5904 346.093 87.5904L331.857 105.856C331.857 105.856 330.06 101.566 327.711 95.4776L328.816 104.195C328.816 104.195 317.483 115.542 330.475 135.606C338.491 148.06 306.702 160.513 298.132 161.482C298.823 162.45 299.238 163.004 299.238 163.004C299.238 163.004 334.345 161.205 347.337 138.65Z" fill="#8777C8"/>
<path d="M273.944 118.171C273.944 118.171 290.668 86.0681 320.247 90.9112C320.247 101.843 297.441 121.077 273.944 118.171Z" fill="#4F37AD"/>
<path d="M372.354 84.9611C372.354 84.9611 381.477 78.8726 367.102 64.2051C352.728 49.5375 342.638 56.041 344.573 70.847C346.646 85.6529 346.093 87.7285 346.093 87.7285L332.272 105.44C332.272 105.44 321.767 127.303 347.199 138.65C354.663 106.547 356.874 92.1565 356.874 92.1565L372.354 84.9611Z" fill="#9E91D2"/>
<path opacity="0.4" d="M334.76 118.447C333.516 106.132 350.516 87.0366 350.516 87.0366L346.784 58.9468C344.711 61.5759 343.882 65.7271 344.711 70.9853C346.784 85.7912 346.232 87.8668 346.232 87.8668L332.41 105.579C332.41 105.579 322.044 127.303 347.199 138.788C344.02 136.159 335.727 128.549 334.76 118.447Z" fill="#9E91D2"/>
<path d="M346.37 59.362C346.37 62.5446 347.061 65.7272 347.89 68.4947C349.549 74.7215 358.256 88.2821 372.907 84.546C374.566 82.8855 379.265 76.6587 367.102 64.3435C357.565 54.519 349.825 54.2422 346.37 59.362Z" fill="#BCB3E0"/>
<path d="M363.094 70.2935C363.785 71.2621 364.061 72.2307 363.509 72.6458C363.094 73.0609 362.126 72.5074 361.297 71.6772C360.606 70.7086 360.33 69.74 360.882 69.3248C361.435 68.9097 362.403 69.3248 363.094 70.2935Z" fill="#222221"/>
<path d="M357.151 69.4633C357.704 70.2936 357.98 71.1238 357.565 71.4005C357.151 71.6773 356.321 71.2622 355.769 70.5703C355.216 69.7401 354.939 68.9098 355.354 68.6331C355.63 68.3563 356.46 68.7714 357.151 69.4633Z" fill="#222221"/>
<path d="M362.955 75.4135C363.508 76.2437 363.785 77.074 363.37 77.3507C362.955 77.6275 362.126 77.2123 361.573 76.5205C361.02 75.6902 360.744 74.86 361.159 74.5833C361.573 74.3065 362.403 74.7216 362.955 75.4135Z" fill="#222221"/>
<path d="M367.655 70.7087C368.208 71.4005 368.346 72.0924 367.931 72.3692C367.655 72.6459 366.964 72.3692 366.411 71.6773C365.858 70.9854 365.72 70.2935 366.135 70.0168C366.411 69.7401 367.102 70.1552 367.655 70.7087Z" fill="#222221"/>
<path d="M368.76 75.5518C369.313 76.2437 369.452 76.9355 369.037 77.2123C368.76 77.489 368.069 77.2123 367.517 76.5204C366.964 75.8286 366.825 75.1367 367.24 74.86C367.517 74.5832 368.208 74.86 368.76 75.5518Z" fill="#222221"/>
<path d="M362.403 65.0357C362.956 65.7276 363.094 66.4194 362.679 66.6962C362.403 66.9729 361.712 66.6962 361.159 66.0043C360.606 65.3125 360.468 64.6206 360.883 64.3438C361.159 64.0671 361.85 64.3438 362.403 65.0357Z" fill="#222221"/>
<path d="M357.012 64.482C357.565 65.1739 357.704 65.8657 357.289 66.1425C357.012 66.4192 356.321 66.1425 355.768 65.4506C355.216 64.7588 355.077 64.0669 355.492 63.7901C355.769 63.5134 356.46 63.7901 357.012 64.482Z" fill="#222221"/>
<path opacity="0.2" d="M301.311 116.925C301.311 116.925 289.563 122.599 274.912 121.907C289.287 143.77 299.238 159.268 299.238 159.268C299.238 159.268 290.116 136.159 301.311 116.925Z" fill="#8777C8"/>
<path opacity="0.4" d="M287.075 57.9783C302.003 57.0097 313.198 66.9726 317.483 85.2379H320.247C320.247 85.2379 316.515 54.7957 287.075 57.9783Z" fill="#8777C8"/>
<path opacity="0.4" d="M274.912 121.908C267.034 109.87 255.7 89.252 263.993 70.9867C270.351 57.011 280.441 53.9668 284.864 53.2749C279.197 53.8284 273.668 55.904 269.245 59.6401C253.903 72.7856 256.253 96.1707 269.245 117.619C282.237 139.066 299.238 163.282 299.238 163.282C299.238 163.282 303.523 163.005 309.742 161.76C302.141 161.621 299.238 159.269 299.238 159.269C299.238 159.269 282.79 133.947 274.912 121.908Z" fill="#8777C8"/>
<path opacity="0.5" d="M320.247 90.911C309.743 89.2506 300.897 92.1564 293.848 96.5844C301.035 96.9995 308.637 99.4902 305.872 109.73C314.58 104.057 320.247 96.446 320.247 90.911Z" fill="#8777C8"/>
<path d="M68.5549 197.736L65.5142 221.536C65.5142 221.536 70.0753 251.84 108.776 258.897C147.338 265.954 160.883 235.373 160.883 235.373L165.444 216.416L68.5549 197.736Z" fill="#8777C8"/>
<path opacity="0.35" d="M65.5142 221.536C65.5142 221.536 70.0753 251.84 108.776 258.897C115.963 260.142 122.183 260.281 127.711 259.45C123.15 259.035 117.898 258.205 112.231 256.683C85.2791 249.764 82.1001 223.75 82.1001 223.75L75.7422 199.12L68.5549 197.736L65.5142 221.536Z" fill="#8777C8"/>
<path d="M165.958 214.032C168.527 192.788 148.615 172.9 121.484 169.612C94.3533 166.323 70.2766 180.879 67.7075 202.123C65.1383 223.367 85.0497 243.254 112.181 246.543C139.312 249.831 163.389 235.276 165.958 214.032Z" fill="#BCB3E0"/>
<path d="M160.77 213.535C163.082 194.418 145.422 176.552 121.325 173.631C97.2277 170.71 75.8187 183.84 73.5064 202.957C71.1942 222.075 88.8545 239.941 112.952 242.862C137.049 245.783 158.458 232.653 160.77 213.535Z" fill="#E4E8EE"/>
<path opacity="0.5" d="M92.7428 178.087C82.1001 183.207 74.6365 192.063 73.3925 202.994C71.0429 222.09 88.7345 239.94 112.922 242.846C127.711 244.645 141.533 240.355 150.517 232.468C97.7186 219.184 91.2224 193.585 92.7428 178.087Z" fill="white"/>
<path d="M112.231 207.422C112.231 207.422 99.7917 217.247 102.418 223.335C103.385 225.411 109.605 219.876 115.548 210.051C136.557 204.931 137.525 206.177 137.525 200.227C137.525 194.138 112.231 207.422 112.231 207.422Z" fill="#8777C8"/>
<path d="M117.898 236.065C117.898 237.587 116.654 238.971 114.996 238.971C113.475 238.971 112.093 237.726 112.093 236.065C112.093 234.543 113.337 233.159 114.996 233.159C116.654 233.159 117.898 234.405 117.898 236.065Z" fill="#8777C8"/>
<path d="M155.078 209.775C155.078 211.02 154.111 211.988 152.867 211.988C151.623 211.988 150.655 211.02 150.655 209.775C150.655 208.529 151.623 207.561 152.867 207.561C153.972 207.561 155.078 208.529 155.078 209.775Z" fill="#8777C8"/>
<path d="M119.28 182.515C120.502 182.515 121.492 181.524 121.492 180.301C121.492 179.078 120.502 178.087 119.28 178.087C118.059 178.087 117.069 179.078 117.069 180.301C117.069 181.524 118.059 182.515 119.28 182.515Z" fill="#8777C8"/>
<path d="M79.7505 207.422C80.9719 207.422 81.962 206.431 81.962 205.208C81.962 203.985 80.9719 202.994 79.7505 202.994C78.5292 202.994 77.5391 203.985 77.5391 205.208C77.5391 206.431 78.5292 207.422 79.7505 207.422Z" fill="#8777C8"/>
<path d="M218.934 206.176C223.772 203.824 235.935 196.213 238.837 194.414C241.74 192.754 240.634 187.496 240.634 185.005C240.634 182.514 224.325 147.506 218.796 141.002C213.267 134.499 211.056 133.53 204.283 137.128C197.511 140.725 185.348 147.367 182.86 148.889C180.234 150.412 181.478 156.777 182.445 161.62C183.413 166.463 202.072 193.584 205.804 199.119C209.535 204.931 213.958 208.667 218.934 206.176Z" fill="#9E91D2"/>
<path d="M199.307 143.216C191.014 147.644 181.063 150.689 187.006 158.437C192.95 166.186 208.291 193.308 212.023 197.874C215.755 202.44 223.91 197.182 228.056 195.383C232.203 193.584 238.561 190.125 238.837 185.697C239.114 181.269 222.113 151.38 217.69 143.078C213.129 134.914 209.121 137.958 199.307 143.216Z" fill="#E4E8EE"/>
<path d="M200.828 180.3C208.43 171.583 218.243 160.928 224.048 154.701C221.422 149.858 218.934 145.569 217.69 143.078C217.414 142.663 217.276 142.248 216.999 141.833L191.015 164.249C193.779 168.954 197.373 174.765 200.828 180.3Z" fill="white"/>
<path d="M227.642 161.481L204.007 185.558C204.698 186.665 205.389 187.772 206.08 188.879L232.618 170.891C231.097 167.847 229.3 164.664 227.642 161.481Z" fill="white"/>
<path d="M225.707 190.678C223.081 192.339 219.487 191.093 222.528 188.879C225.569 186.527 229.853 188.188 225.707 190.678Z" fill="#BCB3E0"/>
<path d="M185.21 61.576C163.371 65.5888 138.907 111.529 181.339 117.479C223.772 123.429 226.813 98.7985 224.325 85.0995C221.975 71.2621 205.527 57.9783 185.21 61.576Z" fill="#BCB3E0"/>
<path d="M185.209 110.422C185.209 110.422 195.99 131.593 195.99 130.209C195.99 128.826 206.218 104.61 206.218 104.61L185.209 110.422Z" fill="#BCB3E0"/>
<path d="M191.567 85.0994C186.73 88.6971 187.006 76.3819 178.299 81.6401C169.591 87.0366 183.827 102.396 191.014 105.302C198.202 108.208 207.324 95.2007 207.6 89.6657C207.739 84.2692 201.242 78.0424 191.567 85.0994Z" fill="white"/>
<path d="M191.567 233.021C175.673 239.524 167.794 266.369 195.714 269.275C223.634 272.319 221.699 220.706 191.567 233.021Z" fill="#F7EAB5"/>
<path d="M240.772 220.429C227.78 225.272 220.04 237.449 238.699 238.279C257.497 239.11 249.48 217.247 240.772 220.429Z" fill="#F7EAB5"/>
<path opacity="0.25" d="M663.299 539.518C663.299 539.518 676.015 425.499 597.37 391.32C518.725 357.142 393.502 371.395 336.418 411.523C279.335 451.651 266.896 539.518 266.896 539.518H663.299Z" fill="#629E9F"/>
<path d="M442.292 236.756C442.292 236.756 419.625 284.91 410.088 297.364C400.551 309.817 400.551 309.402 385.347 321.717C370.143 334.033 357.98 360.6 377.054 375.13C396.128 389.659 374.981 405.572 385.762 437.121C396.543 468.67 431.926 506.307 493.709 492.47C555.491 478.633 571.386 451.65 575.809 424.667C580.232 397.684 553.971 383.017 560.882 351.053C567.792 319.088 570.557 301.1 554.247 291.552C537.938 282.004 516.929 278.268 504.766 256.405C492.603 234.542 468 206.452 442.292 236.756Z" fill="#F7DA5F"/>
<path opacity="0.4" d="M442.292 236.756C442.292 236.756 419.625 284.91 410.088 297.364C400.551 309.817 400.551 309.402 385.347 321.717C370.143 334.033 357.98 360.6 377.054 375.13C396.128 389.659 374.981 405.572 385.762 437.121C396.543 468.67 431.926 506.307 493.709 492.47C555.491 478.633 571.386 451.65 575.809 424.667C580.232 397.684 553.971 383.017 560.882 351.053C567.792 319.088 570.557 301.1 554.247 291.552C537.938 282.004 516.929 278.268 504.766 256.405C492.603 234.542 468 206.452 442.292 236.756Z" fill="#2B1A16"/>
<path opacity="0.4" d="M517.62 360.878C516.929 334.864 531.442 314.108 513.473 302.069C495.505 289.892 499.099 284.357 496.058 269.552C487.903 230.807 460.122 224.165 460.122 224.165C454.317 225.687 448.374 229.562 442.43 236.619C442.43 236.619 419.763 284.773 410.226 297.226C400.689 309.68 400.689 309.265 385.485 321.58C370.281 333.895 358.118 360.463 377.192 374.992C396.266 389.521 375.119 405.434 385.9 436.983C395.99 466.734 428.471 502.157 484.172 494.132C537.108 467.702 518.311 384.54 517.62 360.878Z" fill="#51403C"/>
<path opacity="0.3" d="M500.343 303.176C500.343 303.176 499.099 311.756 491.359 320.335C483.619 328.914 478.643 351.607 493.709 363.369C508.774 375.131 518.311 393.534 518.311 393.534C518.311 393.534 515.823 457.186 484.034 484.584C452.244 511.982 439.113 484.584 439.113 484.584C439.113 484.584 397.234 470.055 397.925 423.976C398.616 377.898 396.819 376.929 388.526 359.494C380.233 342.059 415.893 300.547 420.73 295.012C425.568 289.339 432.894 283.804 432.894 283.804L484.586 305.667L500.343 303.176Z" fill="#F47F5B"/>
<path opacity="0.5" d="M484.172 309.818C484.172 309.818 465.927 346.072 482.513 375.961C499.099 405.988 465.513 480.986 465.513 480.986C465.513 480.986 430.682 482.37 423.08 448.053C415.478 413.737 421.698 394.365 412.023 369.181C402.348 343.997 425.153 311.617 425.153 311.617L484.172 309.818Z" fill="#33221E"/>
<path d="M560.882 351.054C567.792 319.089 570.557 301.101 554.247 291.553C537.938 282.005 516.929 278.269 504.766 256.406C495.505 239.663 478.781 219.184 459.984 224.165C471.179 226.241 488.456 233.713 497.164 258.482C510.571 296.95 550.654 297.503 554.109 313.139C557.565 328.775 530.612 355.343 549.272 384.263C566.549 410.969 569.036 458.985 517.758 485.414C559.5 470.608 571.663 447.5 575.533 424.53C580.232 397.547 553.971 383.018 560.882 351.054Z" fill="#42370B"/>
<path d="M302.832 335.417C303.523 334.172 314.58 337.078 314.58 337.078C314.58 337.078 312.231 330.297 307.393 326.7C302.556 323.102 302.556 312.586 298.962 313.139C295.368 313.693 298.962 335.417 298.962 335.417H302.832Z" fill="#E5BFAC"/>
<path opacity="0.2" d="M302.832 335.417C303.523 334.172 314.58 337.078 314.58 337.078C314.58 337.078 312.231 330.297 307.393 326.7C302.556 323.102 302.556 312.586 298.962 313.139C295.368 313.693 298.962 335.417 298.962 335.417H302.832Z" fill="#99857A"/>
<path d="M669.796 338.6C685.276 326.838 674.081 327.945 668.828 331.404C664.405 334.449 657.771 338.046 655.56 338.185C654.039 338.323 642.567 339.984 645.055 336.524C647.543 333.065 655.698 324.071 649.893 325.178C644.226 326.285 637.591 334.587 629.713 337.216C621.835 339.845 615.2 349.255 615.2 349.255L607.737 361.155C607.737 361.155 577.329 413.045 573.183 417.196C569.036 421.347 528.262 393.396 518.173 386.754C508.083 380.112 502.278 370.426 487.489 367.382C472.561 364.337 468.829 365.306 467.586 342.889C466.342 320.473 447.13 332.65 450.723 338.462C450.723 338.462 454.04 354.651 450.723 364.061C447.406 373.47 438.422 366.828 421.421 383.156C404.421 399.484 373.599 419.272 373.599 419.272L333.516 355.62C331.995 351.745 327.711 341.782 324.255 336.109C319.971 329.052 313.06 329.191 302.97 327.945C292.88 326.7 296.889 316.045 288.734 303.868C283.758 296.396 286.246 311.755 288.734 320.473C291.498 330.297 277.815 299.855 275.603 299.44C268.831 298.056 284.864 328.914 284.864 328.914C284.864 328.914 272.839 309.403 268.969 307.604C261.229 304.007 278.229 333.757 284.864 339.707C291.36 345.657 309.052 346.764 309.052 346.764L318.312 363.23H318.174C318.174 363.23 358.671 434.078 365.72 443.487C372.769 452.896 416.998 415.12 422.942 415.812C428.747 416.504 436.072 469.501 436.072 469.501H485.554C485.554 469.501 504.213 412.768 506.562 407.233C508.912 401.698 534.897 425.222 553.832 435.185C572.768 445.147 578.711 443.764 584.24 436.845C589.769 429.926 621.835 370.149 621.835 370.149L631.51 358.249C631.51 358.249 640.494 358.941 646.023 359.771C647.543 359.909 661.226 359.356 669.934 357.28C680.715 353.267 658.186 353.544 658.186 353.544C658.186 353.544 658.186 353.544 671.869 349.947C694.122 343.443 667.584 345.657 667.584 345.657C667.584 345.657 674.495 343.72 680.853 341.229C689.423 337.355 680.438 336.248 669.796 338.6Z" fill="#E5BFAC"/>
<path opacity="0.2" d="M648.096 351.884L658.738 352.991C659.706 352.714 662.747 351.884 672.007 349.532C675.186 348.563 677.398 347.871 678.78 347.179C669.243 349.116 648.096 351.884 648.096 351.884Z" fill="#99857A"/>
<path opacity="0.2" d="M657.771 346.21L667.723 345.242C667.723 345.242 674.633 343.305 680.991 340.814C682.65 340.122 683.617 339.568 684.032 339.153C671.316 342.198 657.771 346.21 657.771 346.21Z" fill="#99857A"/>
<path opacity="0.2" d="M669.796 338.6C673.528 335.694 675.739 333.618 676.845 332.096C670.072 336.109 659.844 340.814 659.844 340.814L669.796 338.6Z" fill="#99857A"/>
<path opacity="0.2" d="M364.614 428.404C357.704 419.41 314.58 344.688 312.783 343.305C310.987 341.921 304.214 343.028 293.157 341.367C284.587 340.122 273.53 317.429 269.107 307.466C261.367 303.868 278.368 333.618 285.002 339.568C291.498 345.518 309.19 346.625 309.19 346.625L318.45 363.092H318.312C318.312 363.092 358.809 433.939 365.858 443.348C368.07 446.254 373.875 444.594 381.062 440.858C372.078 440.443 371.111 436.845 364.614 428.404Z" fill="#99857A"/>
<path opacity="0.2" d="M424.324 386.338C445.747 369.042 457.081 373.193 458.463 364.475C459.846 355.758 467.862 344.135 467.862 344.135V343.858C467.862 343.581 467.862 343.304 467.862 342.889C466.618 320.473 447.406 332.65 451 338.461C451 338.461 454.317 354.651 451 364.06C447.683 373.47 438.698 366.828 421.698 383.156C404.697 399.484 373.599 419.271 373.599 419.271C381.892 421.07 402.9 403.635 424.324 386.338Z" fill="#99857A"/>
<path opacity="0.2" d="M670.073 356.865C671.731 356.174 672.699 355.758 672.837 355.343C672.837 355.343 652.934 358.664 642.291 357.281C631.648 355.897 631.51 357.972 631.51 357.972C631.51 357.972 640.494 358.664 646.023 359.494C647.82 359.633 661.503 359.079 670.073 356.865Z" fill="#99857A"/>
<path opacity="0.2" d="M573.321 417.334C583.963 417.473 603.314 379.697 611.745 362.123C616.997 351.33 622.802 343.305 626.534 338.738C620.038 342.336 615.2 349.255 615.2 349.255L607.737 361.155C607.875 361.293 577.467 413.183 573.321 417.334Z" fill="#99857A"/>
<path opacity="0.2" d="M561.158 433.524C550.377 427.851 527.986 410.693 518.726 404.051C509.465 397.409 506.562 406.956 506.562 406.956C509.05 401.421 534.897 424.945 553.832 434.908C572.768 444.871 578.711 443.487 584.24 436.568C584.378 436.292 584.655 436.015 584.931 435.6C577.191 441.135 571.939 439.197 561.158 433.524Z" fill="#99857A"/>
<path opacity="0.4" d="M518.311 386.892C509.741 381.219 504.213 373.331 493.432 369.18C500.757 375.822 512.505 386.062 518.034 390.075C526.327 396.025 562.402 421.9 572.491 417.611C565.995 419.271 527.986 393.257 518.311 386.892Z" fill="white"/>
<path d="M439.943 370.979L433.308 373.47C433.308 373.47 446.853 382.188 426.121 419.41C422.942 425.083 431.65 443.625 432.617 457.186C434.137 478.911 410.226 527.48 401.933 555.431C519.693 555.708 517.758 552.664 517.758 552.664C517.758 552.664 506.01 507 489.839 468.948C501.587 433.662 504.904 429.511 502.002 417.473C498.408 403.082 482.375 402.944 487.904 366.966C483.481 365.306 481.684 365.583 481.684 365.583C481.684 365.583 470.35 393.257 464.821 404.604C455.423 391.043 439.943 370.979 439.943 370.979Z" fill="#629E9F"/>
<path opacity="0.3" d="M489.7 468.809C501.449 433.524 504.766 429.373 501.864 417.334C498.27 402.943 482.237 402.805 487.765 366.828C486.522 366.275 485.416 365.998 484.587 365.859C483.066 371.948 480.993 383.156 483.066 390.213C486.107 400.176 500.067 418.856 497.441 429.926C492.327 452.066 485.416 459.123 485.278 467.287C485.278 483.477 513.059 523.19 497.441 554.601C518.449 553.771 517.758 552.802 517.758 552.802C517.758 552.802 505.872 506.862 489.7 468.809Z" fill="white"/>
<path opacity="0.5" d="M441.187 460.369C434.829 436.43 441.325 409.724 442.292 397.27C443.26 384.817 439.943 370.979 439.943 370.979L433.308 373.47C433.308 373.47 446.853 382.188 426.121 419.41C422.942 425.083 431.65 443.626 432.617 457.186C434.137 478.911 410.226 527.48 401.933 555.431C519.693 555.708 517.758 552.664 517.758 552.664C517.758 552.664 516.514 548.097 514.441 540.625C390.876 541.456 450.862 496.623 441.187 460.369Z" fill="#629E9F"/>
<path d="M427.503 280.622C427.503 280.622 428.885 304.56 429.576 308.02C425.844 299.717 420.869 297.088 419.21 301.516C417.551 306.082 424.186 319.643 430.82 323.241C433.446 333.204 445.886 353.129 462.195 354.513C475.326 355.62 488.042 316.46 488.042 316.46C488.042 316.46 497.578 313.831 500.066 303.177C502.554 292.522 494.123 293.214 490.529 301.516C493.156 279.376 484.31 242.154 457.358 243.814C430.682 245.337 426.95 271.074 427.503 280.622Z" fill="#E5BFAC"/>
<path opacity="0.2" d="M430.958 323.241C433.584 333.204 446.024 353.129 462.333 354.513C464.821 354.79 467.309 353.406 469.797 351.33C452.52 357.696 436.487 329.744 434.828 314.8C432.893 296.811 436.763 282.144 442.983 278.823C449.202 275.502 455.146 266.369 455.146 266.369C455.146 266.369 461.918 262.633 476.984 270.382C492.049 278.269 490.806 301.654 490.806 301.654C493.432 279.515 484.586 242.292 457.634 243.953C430.682 245.613 426.95 271.351 427.503 280.76C427.503 280.76 428.885 304.699 429.576 308.158C425.844 299.856 420.868 297.226 419.21 301.654C417.551 305.944 424.324 319.643 430.958 323.241Z" fill="#99857A"/>
<path d="M447.682 300.409C447.544 301.931 446.3 302.9 444.779 302.9C443.259 302.762 442.292 301.516 442.292 299.994C442.43 298.472 443.674 297.503 445.194 297.503C446.714 297.642 447.82 298.887 447.682 300.409Z" fill="#99857A"/>
<path d="M476.431 299.579C476.293 301.101 474.911 302.208 473.528 302.07C472.008 301.931 470.902 300.548 471.04 299.164C471.179 297.642 472.561 296.535 473.943 296.673C475.463 296.812 476.569 298.057 476.431 299.579Z" fill="#99857A"/>
<path d="M447.682 300.409C447.544 301.931 446.3 302.9 444.779 302.9C443.259 302.762 442.292 301.516 442.292 299.994C442.43 298.472 443.674 297.503 445.194 297.503C446.714 297.642 447.82 298.887 447.682 300.409Z" fill="#99857A"/>
<path d="M476.431 299.579C476.293 301.101 474.911 302.208 473.528 302.07C472.008 301.931 470.902 300.548 471.04 299.164C471.179 297.642 472.561 296.535 473.943 296.673C475.463 296.812 476.569 298.057 476.431 299.579Z" fill="#99857A"/>
<path opacity="0.5" d="M429.3 318.259C429.3 318.259 427.226 309.127 423.771 304.422C424.877 309.818 424.877 309.818 424.877 309.818C424.877 309.818 418.519 302.346 429.3 318.259Z" fill="#99857A"/>
<path opacity="0.3" d="M489.976 311.756C489.976 311.756 492.879 305.114 497.163 301.378C498.131 297.227 493.57 298.472 489.976 311.756Z" fill="#99857A"/>
<path opacity="0.5" d="M458.325 301.931C458.325 301.931 457.772 310.787 460.537 312.586C463.163 314.385 467.171 313.555 464.683 317.706C462.195 321.857 460.398 319.92 460.398 319.92C460.398 319.92 464.545 316.876 462.333 316.045C460.122 315.215 458.74 317.291 457.634 312.448C456.666 307.466 456.805 293.49 458.325 301.931Z" fill="#99857A"/>
<path opacity="0.45" d="M474.22 265.262C467.171 262.218 463.854 266.369 467.862 270.382C471.732 274.533 485.692 269.967 474.22 265.262Z" fill="white"/>
<path opacity="0.45" d="M479.333 272.735C475.049 273.15 477.26 277.854 480.439 278.131C483.48 278.27 482.927 272.32 479.333 272.735Z" fill="white"/>
<path opacity="0.2" d="M461.78 330.99C454.178 330.713 454.178 325.87 449.755 326.008C445.333 326.147 451.69 339.015 462.195 338.462C472.699 337.908 473.805 330.159 472.699 327.53C471.594 324.901 467.862 331.266 461.78 330.99Z" fill="#99857A"/>
<path d="M463.162 330.021C456.39 330.298 455.837 328.084 451.967 328.499C448.097 328.914 454.731 338.047 463.992 336.801C473.252 335.556 473.529 329.744 472.423 327.945C471.179 326.008 468.553 329.744 463.162 330.021Z" fill="white"/>
<path d="M434.137 292.522C434.137 291.138 434.414 289.893 434.828 288.509C435.243 287.264 435.658 285.88 436.349 284.773C437.04 283.527 437.869 282.42 438.837 281.452C439.804 280.345 441.048 279.653 442.292 278.961C443.121 278.546 444.089 278.823 444.503 279.515C444.918 280.345 444.642 281.314 443.951 281.729C443.951 281.729 443.812 281.729 443.812 281.867H443.674C442.707 282.282 441.601 282.836 440.772 283.527C439.942 284.219 439.113 285.05 438.422 286.018C437.731 286.987 437.178 288.094 436.625 289.201C436.21 290.308 435.796 291.553 435.658 292.66C435.658 293.075 435.243 293.352 434.828 293.214C434.275 293.214 434.137 292.798 434.137 292.522Z" fill="#99857A"/>
<path d="M482.928 286.987C482.789 285.88 482.375 285.049 481.96 284.081C481.545 283.112 480.854 282.282 480.163 281.452C479.472 280.622 478.505 279.93 477.399 279.376C476.293 278.684 475.049 278.408 473.805 277.992C472.976 277.716 472.008 278.131 471.594 278.823C471.179 279.515 471.594 280.206 472.423 280.483H472.561H472.7C473.805 280.622 474.773 280.898 475.74 281.313C476.708 281.729 477.537 282.144 478.366 282.836C479.196 283.389 479.749 284.081 480.301 284.911C480.854 285.741 481.269 286.572 481.684 287.402C481.822 287.679 482.236 287.817 482.513 287.679C482.789 287.54 482.928 287.263 482.928 286.987Z" fill="#99857A"/>
<path d="M467.724 246.028C467.724 246.028 445.194 280.345 410.087 298.749C419.486 240.632 431.234 227.763 453.349 224.996C467.171 224.304 467.724 246.028 467.724 246.028Z" fill="#F7DA5F"/>
<path opacity="0.4" d="M467.724 246.028C467.724 246.028 445.194 280.345 410.087 298.749C419.486 240.632 431.234 227.763 453.349 224.996C467.171 224.304 467.724 246.028 467.724 246.028Z" fill="#F47F5B"/>
<path opacity="0.4" d="M467.724 246.028C467.724 246.028 445.194 280.345 410.087 298.749C419.486 240.632 431.234 227.763 453.349 224.996C467.171 224.304 467.724 246.028 467.724 246.028Z" fill="#51403C"/>
<path d="M462.609 252.67C462.609 252.67 492.464 267.338 491.22 296.258C503.107 279.1 495.643 245.89 469.244 239.525C466.065 241.047 459.43 248.104 462.609 252.67Z" fill="#F7DA5F"/>
<path opacity="0.4" d="M462.609 252.67C462.609 252.67 492.464 267.338 491.22 296.258C503.107 279.1 495.643 245.89 469.244 239.525C466.065 241.047 459.43 248.104 462.609 252.67Z" fill="#F47F5B"/>
<path opacity="0.4" d="M462.609 252.67C462.609 252.67 492.464 267.338 491.22 296.258C503.107 279.1 495.643 245.89 469.244 239.525C466.065 241.047 459.43 248.104 462.609 252.67Z" fill="#51403C"/>
<path opacity="0.4" d="M426.121 289.201C426.121 289.201 473.252 259.036 466.065 236.204C462.61 252.671 438.284 282.006 426.121 289.201Z" fill="#2B1A16"/>
<path opacity="0.4" d="M468.967 250.733C468.967 250.733 483.065 260.142 489.976 276.332C487.903 257.098 468.967 250.733 468.967 250.733Z" fill="#2B1A16"/>
<path d="M461.918 229.977C461.918 229.977 450.999 225.411 435.796 234.82C420.592 244.229 416.307 287.679 416.307 287.679C416.307 287.679 422.803 254.884 430.958 246.72C438.975 238.694 445.194 232.883 461.918 229.977Z" fill="#42370B"/>
<path d="M227.504 555.708C205.389 524.712 372.354 523.329 472.699 523.329C573.044 523.329 740.147 524.712 717.895 555.708C679.194 610.089 266.481 610.089 227.504 555.708Z" fill="#F47F5B"/>
<path d="M701.309 568.023C661.088 581.169 577.882 596.805 418.657 587.396C245.748 577.294 242.155 550.312 258.464 533.568C233.585 538.411 220.178 545.33 227.504 555.708C263.302 605.661 613.956 609.674 701.309 568.023Z" fill="#BCB3E0"/>
<path opacity="0.5" d="M583.964 538.272C583.964 538.272 480.578 548.65 459.293 551.556C438.007 554.462 434.414 586.565 603.037 574.665C632.477 565.532 621.144 557.23 621.144 557.23L583.964 538.272Z" fill="#BCB3E0"/>
<path d="M646.714 546.437C646.714 546.437 588.386 539.241 578.158 541.594C570.695 543.254 540.978 553.079 523.701 559.167L522.457 556.261C522.457 556.261 509.741 559.582 509.188 561.658C508.636 563.733 507.53 568.161 510.156 569.268C513.335 571.206 523.978 573.004 551.068 574.25C598.2 576.325 604.696 574.25 604.696 574.25C604.696 574.25 669.796 547.959 646.714 546.437Z" fill="#334F7F"/>
<path opacity="0.4" d="M646.714 546.437C646.714 546.437 588.386 539.241 578.158 541.594C570.695 543.254 540.978 553.079 523.701 559.167L522.457 556.261C522.457 556.261 509.741 559.582 509.188 561.658C508.636 563.733 507.53 568.161 510.156 569.268C513.335 571.206 523.978 573.004 551.068 574.25C598.2 576.325 604.696 574.25 604.696 574.25C604.696 574.25 669.796 547.959 646.714 546.437Z" fill="#334F7F"/>
<path d="M646.438 538.411C646.438 538.411 587.973 532.6 577.745 535.229C567.655 537.719 516.239 556.4 511.677 559.167C507.116 561.935 504.352 566.086 551.484 567.193C598.754 568.162 605.112 565.948 605.112 565.948C605.112 565.948 669.52 539.38 646.438 538.411Z" fill="#334F7F"/>
<path opacity="0.15" d="M646.437 538.411C646.437 538.411 630.127 536.751 613.127 535.644C598.614 537.027 582.581 539.933 570.556 545.745C553.279 553.909 555.905 561.796 574.841 567.469C601.102 567.469 605.249 565.947 605.249 565.947C605.249 565.947 669.519 539.38 646.437 538.411Z" fill="#E4E8EE"/>
<path d="M599.167 565.809C597.232 562.211 600.55 548.512 605.664 530.247C610.778 511.982 617.136 481.54 621.282 478.772C625.429 476.005 653.348 466.042 664.129 461.752C674.91 457.324 674.081 462.444 668.552 483.892C663.023 505.34 655.145 539.241 653.763 544.084C652.381 548.927 619.9 563.872 612.574 565.809C605.249 567.608 600.135 567.469 599.167 565.809Z" fill="#334F7F"/>
<path opacity="0.3" d="M599.167 565.809C597.232 562.211 600.55 548.512 605.664 530.247C610.778 511.982 617.136 481.54 621.282 478.772C625.429 476.005 653.348 466.042 664.129 461.752C674.91 457.324 674.081 462.444 668.552 483.892C663.023 505.34 655.145 539.241 653.763 544.084C652.381 548.927 619.9 563.872 612.574 565.809C605.249 567.608 600.135 567.469 599.167 565.809Z" fill="#E4E8EE"/>
<path d="M610.778 533.568C615.892 515.303 622.25 484.861 626.396 482.093C630.543 479.326 658.462 469.363 669.243 465.073C670.487 464.52 671.593 464.243 672.56 463.966C672.422 459.953 669.934 459.538 664.129 461.891C653.348 466.318 625.428 476.143 621.282 478.91C617.136 481.678 610.639 512.12 605.664 530.385C600.55 548.651 597.232 562.35 599.167 565.947C599.582 566.778 601.241 567.193 603.729 567.193C603.314 561.796 606.355 549.343 610.778 533.568Z" fill="#334F7F"/>
<path opacity="0.5" d="M371.525 551.419L351.76 585.597L272.286 584.905L318.865 551.003L371.525 551.419Z" fill="#BCB3E0"/>
<path d="M381.892 548.097L362.127 582.276L282.652 581.584L329.231 547.682L381.892 548.097Z" fill="white"/>
<path opacity="0.5" d="M355.078 558.198L321.629 603.031L415.34 604L425.983 558.89L355.078 558.198Z" fill="#BCB3E0"/>
<path d="M362.127 554.877L331.857 599.71L416.308 600.541L426.121 555.431L362.127 554.877Z" fill="white"/>
</g>
<defs>
<clipPath id="clip0">
<rect width="936" height="604" fill="white"/>
</clipPath>
</defs>
</svg>
